G04 #@! TF.GenerationSoftware,KiCad,Pcbnew,(5.1.6)-1*
G04 #@! TF.CreationDate,2021-03-28T22:48:09-04:00*
G04 #@! TF.ProjectId,keyboard-layout-tall,6b657962-6f61-4726-942d-6c61796f7574,rev?*
G04 #@! TF.SameCoordinates,Original*
G04 #@! TF.FileFunction,Copper,L1,Top*
G04 #@! TF.FilePolarity,Positive*
%FSLAX46Y46*%
G04 Gerber Fmt 4.6, Leading zero omitted, Abs format (unit mm)*
G04 Created by KiCad (PCBNEW (5.1.6)-1) date 2021-03-28 22:48:09*
%MOMM*%
%LPD*%
G01*
G04 APERTURE LIST*
G04 #@! TA.AperFunction,ComponentPad*
%ADD10C,1.524000*%
G04 #@! TD*
G04 #@! TA.AperFunction,ComponentPad*
%ADD11C,2.200000*%
G04 #@! TD*
G04 #@! TA.AperFunction,ViaPad*
%ADD12C,0.800000*%
G04 #@! TD*
G04 #@! TA.AperFunction,Conductor*
%ADD13C,0.250000*%
G04 #@! TD*
G04 APERTURE END LIST*
D10*
X294800000Y-63150000D03*
X297340000Y-63150000D03*
X299880000Y-63150000D03*
X302420000Y-63150000D03*
X304960000Y-63150000D03*
X307500000Y-63150000D03*
X310040000Y-63150000D03*
X312580000Y-63150000D03*
X315120000Y-63150000D03*
X317660000Y-63150000D03*
X320200000Y-63150000D03*
X320200000Y-75850000D03*
X317660000Y-75850000D03*
X315120000Y-75850000D03*
X312580000Y-75850000D03*
X310040000Y-75850000D03*
X307500000Y-75850000D03*
X304960000Y-75850000D03*
X302420000Y-75850000D03*
X299880000Y-75850000D03*
X297340000Y-75850000D03*
X294800000Y-75850000D03*
D11*
X298350000Y-95895000D03*
X304700000Y-93355000D03*
X295968750Y-133995000D03*
X302318750Y-131455000D03*
X53081250Y-153045000D03*
X59431250Y-150505000D03*
X303112500Y-114945000D03*
X309462500Y-112405000D03*
X45937500Y-114945000D03*
X52287500Y-112405000D03*
X281681250Y-153045000D03*
X288031250Y-150505000D03*
X48318750Y-133995000D03*
X54668750Y-131455000D03*
X43556250Y-172095000D03*
X49906250Y-169555000D03*
X86418750Y-172095000D03*
X92768750Y-169555000D03*
X243581250Y-172095000D03*
X249931250Y-169555000D03*
X267393750Y-172095000D03*
X273743750Y-169555000D03*
X160237500Y-153045000D03*
X166587500Y-150505000D03*
X107850000Y-67320000D03*
X114200000Y-64780000D03*
X41175000Y-67320000D03*
X47525000Y-64780000D03*
X326925000Y-172095000D03*
X333275000Y-169555000D03*
X307875000Y-153045000D03*
X314225000Y-150505000D03*
X169762500Y-133995000D03*
X176112500Y-131455000D03*
X179287500Y-153045000D03*
X185637500Y-150505000D03*
X103087500Y-153045000D03*
X109437500Y-150505000D03*
X93562500Y-133995000D03*
X99912500Y-131455000D03*
X69750000Y-67320000D03*
X76100000Y-64780000D03*
X88800000Y-67320000D03*
X95150000Y-64780000D03*
X126900000Y-67320000D03*
X133250000Y-64780000D03*
X155475000Y-67320000D03*
X161825000Y-64780000D03*
X174525000Y-67320000D03*
X180875000Y-64780000D03*
X193575000Y-67320000D03*
X199925000Y-64780000D03*
X212625000Y-67320000D03*
X218975000Y-64780000D03*
X241200000Y-67320000D03*
X247550000Y-64780000D03*
X260250000Y-67320000D03*
X266600000Y-64780000D03*
X41175000Y-95895000D03*
X47525000Y-93355000D03*
X60225000Y-95895000D03*
X66575000Y-93355000D03*
X79275000Y-95895000D03*
X85625000Y-93355000D03*
X98325000Y-95895000D03*
X104675000Y-93355000D03*
X117375000Y-95895000D03*
X123725000Y-93355000D03*
X136425000Y-95895000D03*
X142775000Y-93355000D03*
X155475000Y-95895000D03*
X161825000Y-93355000D03*
X174525000Y-95895000D03*
X180875000Y-93355000D03*
X193575000Y-95895000D03*
X199925000Y-93355000D03*
X212625000Y-95895000D03*
X218975000Y-93355000D03*
X231675000Y-95895000D03*
X238025000Y-93355000D03*
X250725000Y-95895000D03*
X257075000Y-93355000D03*
X269775000Y-95895000D03*
X276125000Y-93355000D03*
X326925000Y-95895000D03*
X333275000Y-93355000D03*
X69750000Y-114945000D03*
X76100000Y-112405000D03*
X88800000Y-114945000D03*
X95150000Y-112405000D03*
X107850000Y-114945000D03*
X114200000Y-112405000D03*
X126900000Y-114945000D03*
X133250000Y-112405000D03*
X145950000Y-114945000D03*
X152300000Y-112405000D03*
X165000000Y-114945000D03*
X171350000Y-112405000D03*
X184050000Y-114945000D03*
X190400000Y-112405000D03*
X203100000Y-114945000D03*
X209450000Y-112405000D03*
X222150000Y-114945000D03*
X228500000Y-112405000D03*
X241200000Y-114945000D03*
X247550000Y-112405000D03*
X260250000Y-114945000D03*
X266600000Y-112405000D03*
X279300000Y-114945000D03*
X285650000Y-112405000D03*
X326925000Y-114945000D03*
X333275000Y-112405000D03*
X74512500Y-133995000D03*
X80862500Y-131455000D03*
X112612500Y-133995000D03*
X118962500Y-131455000D03*
X131662500Y-133995000D03*
X138012500Y-131455000D03*
X150712500Y-133995000D03*
X157062500Y-131455000D03*
X188812500Y-133995000D03*
X195162500Y-131455000D03*
X207862500Y-133995000D03*
X214212500Y-131455000D03*
X226912500Y-133995000D03*
X233262500Y-131455000D03*
X245962500Y-133995000D03*
X252312500Y-131455000D03*
X265012500Y-133995000D03*
X271362500Y-131455000D03*
X326925000Y-133995000D03*
X333275000Y-131455000D03*
X84037500Y-153045000D03*
X90387500Y-150505000D03*
X122137500Y-153045000D03*
X128487500Y-150505000D03*
X141187500Y-153045000D03*
X147537500Y-150505000D03*
X198337500Y-153045000D03*
X204687500Y-150505000D03*
X217387500Y-153045000D03*
X223737500Y-150505000D03*
X236437500Y-153045000D03*
X242787500Y-150505000D03*
X255487500Y-153045000D03*
X261837500Y-150505000D03*
X326925000Y-153045000D03*
X333275000Y-150505000D03*
X64987500Y-172095000D03*
X71337500Y-169555000D03*
X288825000Y-172095000D03*
X295175000Y-169555000D03*
X307875000Y-172095000D03*
X314225000Y-169555000D03*
X171350000Y-169555000D03*
X165000000Y-172095000D03*
D12*
X168480000Y-75575000D03*
X168480000Y-103261000D03*
X293321000Y-102245000D03*
X293321002Y-127010002D03*
X258500000Y-75100000D03*
X254200000Y-75100000D03*
X132920000Y-78115000D03*
X132920000Y-103261000D03*
X322785000Y-102245000D03*
X322785000Y-122311000D03*
X253600000Y-95100000D03*
X252270000Y-103270000D03*
X258650000Y-160411000D03*
X258650000Y-179461000D03*
X193245000Y-160411000D03*
X193245000Y-179461000D03*
X246300000Y-100000002D03*
X263095000Y-159395000D03*
X263095000Y-179461000D03*
X320245000Y-159395000D03*
X320245000Y-103261000D03*
X188259990Y-91425000D03*
X199820000Y-160420000D03*
X169505000Y-74695000D03*
X182441000Y-141370000D03*
X191340000Y-142885000D03*
X191340000Y-179461000D03*
X293575000Y-144790000D03*
X293575000Y-160411000D03*
X169505000Y-90705000D03*
X311990000Y-122311000D03*
X309450000Y-140218000D03*
X188400000Y-89500000D03*
X199970000Y-141370000D03*
X189435000Y-74686000D03*
X197309000Y-123835000D03*
X111330000Y-74686000D03*
X121490000Y-125740000D03*
X277319000Y-122311000D03*
X277319000Y-160411000D03*
X189435000Y-89435000D03*
X272200000Y-89200000D03*
X269600000Y-93074990D03*
X167210000Y-64780000D03*
X190225001Y-168129999D03*
X266000000Y-97000000D03*
X56720000Y-61605000D03*
X264600000Y-84000000D03*
X262600000Y-85000000D03*
X261600000Y-91800000D03*
X261300000Y-94300000D03*
X141810000Y-61097000D03*
X142826000Y-61134000D03*
X104726000Y-64780000D03*
X133301000Y-61605000D03*
X95150000Y-126692500D03*
X206900000Y-88600000D03*
X215020000Y-122320000D03*
X339000000Y-72900000D03*
X339000000Y-66400000D03*
X337700000Y-66400000D03*
X336400000Y-66400000D03*
X335100000Y-66400000D03*
X333800000Y-66400000D03*
X330100000Y-73125000D03*
X331300000Y-72900000D03*
X332600000Y-72900000D03*
X333900000Y-72900000D03*
X335100000Y-72900000D03*
X336400000Y-72900000D03*
X337700000Y-72900000D03*
X293600000Y-61200000D03*
X284000000Y-61200000D03*
X290000000Y-77000000D03*
X290000000Y-79000000D03*
X291000000Y-76900000D03*
X291000000Y-80000000D03*
X340000000Y-62000000D03*
X333600000Y-82500000D03*
D13*
X168480000Y-85100000D02*
X168480000Y-103261000D01*
X293321000Y-102245000D02*
X293321000Y-127010000D01*
X293321000Y-127010000D02*
X293321002Y-127010002D01*
X168480000Y-75575000D02*
X168480000Y-85100000D01*
X258500000Y-75100000D02*
X254200000Y-75100000D01*
X322785000Y-102245000D02*
X322785000Y-122311000D01*
X132920000Y-78115000D02*
X132920000Y-87980000D01*
X132920000Y-87640000D02*
X132920000Y-87980000D01*
X132920000Y-87980000D02*
X132920000Y-103261000D01*
X253600000Y-95100000D02*
X252209999Y-96490001D01*
X252209999Y-96490001D02*
X252209999Y-103209999D01*
X252209999Y-103209999D02*
X252270000Y-103270000D01*
X258650000Y-160411000D02*
X258650000Y-179461000D01*
X193245000Y-160411000D02*
X193245000Y-179461000D01*
X248500000Y-124700000D02*
X248500000Y-113830001D01*
X263600000Y-152800000D02*
X263600000Y-139800000D01*
X263600000Y-139800000D02*
X248500000Y-124700000D01*
X248975001Y-102675003D02*
X246300000Y-100000002D01*
X248500000Y-113830001D02*
X248975001Y-113355000D01*
X262600000Y-156461000D02*
X262600000Y-153800000D01*
X248975001Y-113355000D02*
X248975001Y-102675003D01*
X258650000Y-160411000D02*
X262600000Y-156461000D01*
X262600000Y-153800000D02*
X263600000Y-152800000D01*
X263095000Y-159395000D02*
X263095000Y-179461000D01*
X320245000Y-159395000D02*
X320245000Y-103261000D01*
X199820000Y-142293002D02*
X199820000Y-160420000D01*
X199244999Y-141718001D02*
X199820000Y-142293002D01*
X199244999Y-127744999D02*
X199244999Y-141718001D01*
X188259990Y-91425000D02*
X188534980Y-91699990D01*
X196133989Y-113633989D02*
X196133989Y-124633989D01*
X188534980Y-91699990D02*
X188534980Y-106034980D01*
X188534980Y-106034980D02*
X196133989Y-113633989D01*
X196133989Y-124633989D02*
X199244999Y-127744999D01*
X191340000Y-142885000D02*
X191340000Y-179461000D01*
X293575000Y-144790000D02*
X293575000Y-160411000D01*
X177370000Y-124470000D02*
X182441000Y-129541000D01*
X177370000Y-113040000D02*
X177370000Y-124470000D01*
X182441000Y-129541000D02*
X182441000Y-141370000D01*
X169505000Y-105175000D02*
X177370000Y-113040000D01*
X169505000Y-90705000D02*
X169505000Y-105175000D01*
X169505000Y-74695000D02*
X169505000Y-90705000D01*
X309196000Y-125105000D02*
X309196000Y-139964000D01*
X311990000Y-122311000D02*
X309196000Y-125105000D01*
X309196000Y-139964000D02*
X309450000Y-140218000D01*
X188984990Y-90084990D02*
X188984990Y-105584990D01*
X188400000Y-89500000D02*
X188984990Y-90084990D01*
X199970000Y-127569002D02*
X199970000Y-141370000D01*
X196583999Y-124183001D02*
X199970000Y-127569002D01*
X196583999Y-113183999D02*
X196583999Y-124183001D01*
X188984990Y-105584990D02*
X196583999Y-113183999D01*
X197309000Y-113040000D02*
X197309000Y-123835000D01*
X189435000Y-105166000D02*
X197309000Y-113040000D01*
X277319000Y-122311000D02*
X277319000Y-160411000D01*
X189435000Y-84211000D02*
X189435000Y-74686000D01*
X121490000Y-114310000D02*
X121490000Y-125740000D01*
X111330000Y-74686000D02*
X111330000Y-104150000D01*
X111330000Y-104150000D02*
X121490000Y-114310000D01*
X189435000Y-89435000D02*
X189435000Y-105166000D01*
X189435000Y-84211000D02*
X189435000Y-89435000D01*
X333275000Y-93355000D02*
X333275000Y-112405000D01*
X320105998Y-169555000D02*
X314225000Y-169555000D01*
X334850000Y-154810998D02*
X320105998Y-169555000D01*
X334088000Y-146568000D02*
X334850000Y-147330000D01*
X334850000Y-147330000D02*
X334850000Y-154810998D01*
X333275000Y-112405000D02*
X333275000Y-126705000D01*
X333275000Y-126705000D02*
X334850000Y-128280000D01*
X334850000Y-134503000D02*
X334088000Y-135265000D01*
X334850000Y-128280000D02*
X334850000Y-134503000D01*
X334088000Y-135265000D02*
X334088000Y-146568000D01*
X272200000Y-89200000D02*
X280500000Y-89200000D01*
X280500000Y-89200000D02*
X285300000Y-94000000D01*
X285300000Y-94000000D02*
X285300000Y-107600000D01*
X285300000Y-107600000D02*
X291100000Y-113400000D01*
X291100000Y-147436250D02*
X288031250Y-150505000D01*
X291100000Y-113400000D02*
X291100000Y-147436250D01*
X304700000Y-107642500D02*
X309462500Y-112405000D01*
X304700000Y-93355000D02*
X304700000Y-107642500D01*
X309247501Y-118601001D02*
X308110989Y-119737513D01*
X309462500Y-117649587D02*
X309247501Y-117864586D01*
X309247501Y-117864586D02*
X309247501Y-118601001D01*
X309462500Y-112405000D02*
X309462500Y-117649587D01*
X308110989Y-119737513D02*
X308110989Y-125662761D01*
X308110989Y-125662761D02*
X302318750Y-131455000D01*
X247550000Y-64780000D02*
X266600000Y-64780000D01*
X238025000Y-102880000D02*
X247550000Y-112405000D01*
X238025000Y-93355000D02*
X238025000Y-102880000D01*
X247550000Y-126692500D02*
X252312500Y-131455000D01*
X247550000Y-112405000D02*
X247550000Y-126692500D01*
X252312500Y-140980000D02*
X261837500Y-150505000D01*
X252312500Y-131455000D02*
X252312500Y-140980000D01*
X238025000Y-93355000D02*
X257075000Y-93355000D01*
X257075000Y-93355000D02*
X269319990Y-93355000D01*
X269319990Y-93355000D02*
X269600000Y-93074990D01*
X333275000Y-131455000D02*
X333275000Y-150505000D01*
X190225001Y-151422001D02*
X190225001Y-168129999D01*
X181434000Y-142631000D02*
X190225001Y-151422001D01*
X181434000Y-129931000D02*
X181434000Y-142631000D01*
X176100000Y-113040000D02*
X176100000Y-124597000D01*
X176100000Y-124597000D02*
X181434000Y-129931000D01*
X167210000Y-104150000D02*
X176100000Y-113040000D01*
X167210000Y-64780000D02*
X167210000Y-74490000D01*
X167210000Y-74305000D02*
X167210000Y-74490000D01*
X167210000Y-74490000D02*
X167210000Y-104150000D01*
X272300000Y-136850000D02*
X273743750Y-138293750D01*
X272300000Y-135800000D02*
X272300000Y-136850000D01*
X273743750Y-138300000D02*
X273743750Y-169555000D01*
X267964999Y-131464999D02*
X272300000Y-135800000D01*
X268025001Y-111720999D02*
X268025001Y-116860997D01*
X266000000Y-97000000D02*
X266000000Y-109695998D01*
X273743750Y-138293750D02*
X273743750Y-138300000D01*
X268025001Y-116860997D02*
X267964999Y-116920999D01*
X266000000Y-109695998D02*
X268025001Y-111720999D01*
X267964999Y-116920999D02*
X267964999Y-131464999D01*
X56720000Y-71130000D02*
X56720000Y-130820000D01*
X56720000Y-130820000D02*
X65610000Y-139710000D01*
X71080248Y-169555000D02*
X71337500Y-169555000D01*
X65610000Y-164084752D02*
X71080248Y-169555000D01*
X65610000Y-139710000D02*
X65610000Y-164084752D01*
X56720000Y-71130000D02*
X56720000Y-61605000D01*
X264600000Y-84000000D02*
X330500000Y-84000000D01*
X330500000Y-84000000D02*
X337500000Y-91000000D01*
X337500000Y-91000000D02*
X337500000Y-166700000D01*
X334645000Y-169555000D02*
X333275000Y-169555000D01*
X337500000Y-166700000D02*
X334645000Y-169555000D01*
X314225000Y-150505000D02*
X314225000Y-159446000D01*
X304116000Y-169555000D02*
X295175000Y-169555000D01*
X314225000Y-159446000D02*
X304116000Y-169555000D01*
X262600000Y-85000000D02*
X314000000Y-85000000D01*
X314000000Y-85000000D02*
X317000000Y-88000000D01*
X317000000Y-147730000D02*
X314225000Y-150505000D01*
X317000000Y-88000000D02*
X317000000Y-147730000D01*
X218975000Y-102880000D02*
X228500000Y-112405000D01*
X218975000Y-93355000D02*
X218975000Y-102880000D01*
X228500000Y-126692500D02*
X233262500Y-131455000D01*
X228500000Y-112405000D02*
X228500000Y-126692500D01*
X233262500Y-140980000D02*
X242787500Y-150505000D01*
X233262500Y-131455000D02*
X233262500Y-140980000D01*
X218975000Y-70038000D02*
X218975000Y-64780000D01*
X261600000Y-91800000D02*
X219100000Y-91800000D01*
X219100000Y-91800000D02*
X218975000Y-91675000D01*
X218975000Y-93355000D02*
X218975000Y-91675000D01*
X218975000Y-91675000D02*
X218975000Y-70038000D01*
X199925000Y-102880000D02*
X209450000Y-112405000D01*
X199925000Y-93355000D02*
X199925000Y-102880000D01*
X209450000Y-126692500D02*
X214212500Y-131455000D01*
X209450000Y-112405000D02*
X209450000Y-126692500D01*
X214212500Y-140980000D02*
X223737500Y-150505000D01*
X214212500Y-131455000D02*
X214212500Y-140980000D01*
X276125000Y-102880000D02*
X285650000Y-112405000D01*
X276125000Y-93355000D02*
X276125000Y-102880000D01*
X197815998Y-64780000D02*
X180875000Y-64780000D01*
X199925000Y-93355000D02*
X199925000Y-66889002D01*
X199925000Y-66889002D02*
X197815998Y-64780000D01*
X275180000Y-94300000D02*
X276125000Y-93355000D01*
X261300000Y-94300000D02*
X275180000Y-94300000D01*
X161825000Y-102880000D02*
X171350000Y-112405000D01*
X161825000Y-93355000D02*
X161825000Y-102880000D01*
X171350000Y-126692500D02*
X176112500Y-131455000D01*
X171350000Y-112405000D02*
X171350000Y-126692500D01*
X176112500Y-140980000D02*
X185637500Y-150505000D01*
X176112500Y-131455000D02*
X176112500Y-140980000D01*
X150827000Y-93355000D02*
X161825000Y-93355000D01*
X140921000Y-61986000D02*
X140921000Y-94371000D01*
X141810000Y-61097000D02*
X140921000Y-61986000D01*
X140921000Y-94371000D02*
X141810000Y-95260000D01*
X148922000Y-95260000D02*
X150827000Y-93355000D01*
X141810000Y-95260000D02*
X148922000Y-95260000D01*
X123725000Y-102880000D02*
X133250000Y-112405000D01*
X123725000Y-93355000D02*
X123725000Y-102880000D01*
X133250000Y-126692500D02*
X138012500Y-131455000D01*
X133250000Y-112405000D02*
X133250000Y-126692500D01*
X138012500Y-140980000D02*
X147537500Y-150505000D01*
X138012500Y-131455000D02*
X138012500Y-140980000D01*
X142775000Y-61185000D02*
X142826000Y-61134000D01*
X142775000Y-93355000D02*
X142775000Y-61185000D01*
X104675000Y-102880000D02*
X114200000Y-112405000D01*
X104675000Y-93355000D02*
X104675000Y-102880000D01*
X114200000Y-126692500D02*
X118962500Y-131455000D01*
X114200000Y-112405000D02*
X114200000Y-126692500D01*
X118962500Y-140980000D02*
X128487500Y-150505000D01*
X118962500Y-131455000D02*
X118962500Y-140980000D01*
X133250000Y-64780000D02*
X133250000Y-61656000D01*
X133250000Y-61656000D02*
X133301000Y-61605000D01*
X104675000Y-64831000D02*
X104726000Y-64780000D01*
X104675000Y-93355000D02*
X104675000Y-64831000D01*
X85625000Y-102880000D02*
X95150000Y-112405000D01*
X85625000Y-93355000D02*
X85625000Y-102880000D01*
X95150000Y-126692500D02*
X99912500Y-131455000D01*
X95150000Y-112405000D02*
X95150000Y-126692500D01*
X99912500Y-140980000D02*
X109437500Y-150505000D01*
X99912500Y-131455000D02*
X99912500Y-140980000D01*
X76100000Y-83830000D02*
X85625000Y-93355000D01*
X76100000Y-64780000D02*
X76100000Y-83830000D01*
X47525000Y-107642500D02*
X52287500Y-112405000D01*
X47525000Y-93355000D02*
X47525000Y-107642500D01*
X66575000Y-102880000D02*
X76100000Y-112405000D01*
X66575000Y-93355000D02*
X66575000Y-102880000D01*
X76100000Y-126692500D02*
X80862500Y-131455000D01*
X76100000Y-112405000D02*
X76100000Y-126692500D01*
X80862500Y-140980000D02*
X90387500Y-150505000D01*
X80862500Y-131455000D02*
X80862500Y-140980000D01*
X47525000Y-74305000D02*
X47525000Y-93355000D01*
X47525000Y-74305000D02*
X47525000Y-64780000D01*
X206900000Y-88600000D02*
X206900000Y-104200000D01*
X215020000Y-112320000D02*
X215020000Y-122320000D01*
X206900000Y-104200000D02*
X215020000Y-112320000D01*
X339000000Y-72900000D02*
X335500000Y-69400000D01*
X335500000Y-69400000D02*
X298200000Y-69400000D01*
X294800000Y-66000000D02*
X294800000Y-63150000D01*
X298200000Y-69400000D02*
X294800000Y-66000000D01*
X300400000Y-68900000D02*
X297340000Y-65840000D01*
X339000000Y-66400000D02*
X336500000Y-68900000D01*
X297340000Y-65840000D02*
X297340000Y-63150000D01*
X336500000Y-68900000D02*
X300400000Y-68900000D01*
X337700000Y-66400000D02*
X335700000Y-68400000D01*
X335700000Y-68400000D02*
X304900000Y-68400000D01*
X302420000Y-65920000D02*
X302420000Y-63150000D01*
X304900000Y-68400000D02*
X302420000Y-65920000D01*
X336400000Y-66400000D02*
X334900000Y-67900000D01*
X317650010Y-67850010D02*
X306950010Y-67850010D01*
X334900000Y-67900000D02*
X317700000Y-67900000D01*
X317700000Y-67900000D02*
X317650010Y-67850010D01*
X304960000Y-65860000D02*
X304960000Y-63150000D01*
X306950010Y-67850010D02*
X304960000Y-65860000D01*
X335100000Y-66400000D02*
X334100000Y-67400000D01*
X334100000Y-67400000D02*
X311600000Y-67400000D01*
X310040000Y-65840000D02*
X310040000Y-63150000D01*
X311600000Y-67400000D02*
X310040000Y-65840000D01*
X333800000Y-66400000D02*
X333300000Y-66900000D01*
X333300000Y-66900000D02*
X318700000Y-66900000D01*
X317660000Y-65860000D02*
X317660000Y-63150000D01*
X318700000Y-66900000D02*
X317660000Y-65860000D01*
X330100000Y-73125000D02*
X329875000Y-72900000D01*
X329875000Y-72900000D02*
X315300000Y-72900000D01*
X315120000Y-73080000D02*
X315120000Y-75850000D01*
X315300000Y-72900000D02*
X315120000Y-73080000D01*
X331300000Y-72900000D02*
X330800000Y-72400000D01*
X330800000Y-72400000D02*
X313200000Y-72400000D01*
X312580000Y-73020000D02*
X312580000Y-75850000D01*
X313200000Y-72400000D02*
X312580000Y-73020000D01*
X332600000Y-72900000D02*
X331600000Y-71900000D01*
X331600000Y-71900000D02*
X311100000Y-71900000D01*
X310040000Y-72960000D02*
X310040000Y-75850000D01*
X311100000Y-71900000D02*
X310040000Y-72960000D01*
X333900000Y-72900000D02*
X332400000Y-71400000D01*
X332400000Y-71400000D02*
X309100000Y-71400000D01*
X307500000Y-73000000D02*
X307500000Y-75850000D01*
X309100000Y-71400000D02*
X307500000Y-73000000D01*
X335100000Y-72900000D02*
X333100000Y-70900000D01*
X333100000Y-70900000D02*
X307100000Y-70900000D01*
X304960000Y-73040000D02*
X304960000Y-75850000D01*
X307100000Y-70900000D02*
X304960000Y-73040000D01*
X336400000Y-72900000D02*
X333900000Y-70400000D01*
X333900000Y-70400000D02*
X305000000Y-70400000D01*
X302420000Y-72980000D02*
X302420000Y-75850000D01*
X305000000Y-70400000D02*
X302420000Y-72980000D01*
X337700000Y-72900000D02*
X334700000Y-69900000D01*
X334700000Y-69900000D02*
X303000000Y-69900000D01*
X299880000Y-73020000D02*
X299880000Y-75850000D01*
X303000000Y-69900000D02*
X299880000Y-73020000D01*
X293600000Y-61200000D02*
X284000000Y-61200000D01*
X290000000Y-77000000D02*
X290000000Y-79000000D01*
X291000000Y-76900000D02*
X291000000Y-80000000D01*
X340000000Y-62000000D02*
X340000000Y-76100000D01*
X340000000Y-76100000D02*
X333600000Y-82500000D01*
M02*
