G04 #@! TF.GenerationSoftware,KiCad,Pcbnew,(5.1.6)-1*
G04 #@! TF.CreationDate,2021-03-28T22:48:09-04:00*
G04 #@! TF.ProjectId,keyboard-layout-tall,6b657962-6f61-4726-942d-6c61796f7574,rev?*
G04 #@! TF.SameCoordinates,Original*
G04 #@! TF.FileFunction,Legend,Bot*
G04 #@! TF.FilePolarity,Positive*
%FSLAX46Y46*%
G04 Gerber Fmt 4.6, Leading zero omitted, Abs format (unit mm)*
G04 Created by KiCad (PCBNEW (5.1.6)-1) date 2021-03-28 22:48:09*
%MOMM*%
%LPD*%
G01*
G04 APERTURE LIST*
%ADD10C,0.120000*%
%ADD11C,0.150000*%
%ADD12C,1.626000*%
%ADD13C,3.152000*%
%ADD14C,4.102000*%
%ADD15C,1.802000*%
%ADD16C,2.302000*%
%ADD17C,3.302000*%
%ADD18R,0.712000X2.102000*%
%ADD19R,2.782000X3.702000*%
%ADD20R,1.202000X1.202000*%
%ADD21C,0.100000*%
G04 APERTURE END LIST*
D10*
X273165000Y-86310000D02*
X273990000Y-86310000D01*
X247035000Y-86310000D02*
X247035000Y-88110000D01*
X246210000Y-86310000D02*
X247035000Y-86310000D01*
X244055000Y-81800000D02*
X244055000Y-82340000D01*
X243030000Y-81800000D02*
X244055000Y-81800000D01*
X243030000Y-80690000D02*
X243030000Y-81800000D01*
X277170000Y-80690000D02*
X243030000Y-80690000D01*
X277170000Y-81800000D02*
X277170000Y-80690000D01*
X276145000Y-81800000D02*
X277170000Y-81800000D01*
X276145000Y-82340000D02*
X276145000Y-81800000D01*
X42175000Y-75870000D02*
X40175000Y-75870000D01*
X40175000Y-75870000D02*
X40175000Y-72020000D01*
X42175000Y-75870000D02*
X42175000Y-72020000D01*
X70750000Y-75870000D02*
X68750000Y-75870000D01*
X68750000Y-75870000D02*
X68750000Y-72020000D01*
X70750000Y-75870000D02*
X70750000Y-72020000D01*
X89800000Y-75870000D02*
X87800000Y-75870000D01*
X87800000Y-75870000D02*
X87800000Y-72020000D01*
X89800000Y-75870000D02*
X89800000Y-72020000D01*
X108850000Y-75870000D02*
X106850000Y-75870000D01*
X106850000Y-75870000D02*
X106850000Y-72020000D01*
X108850000Y-75870000D02*
X108850000Y-72020000D01*
X127900000Y-75870000D02*
X127900000Y-72020000D01*
X125900000Y-75870000D02*
X125900000Y-72020000D01*
X127900000Y-75870000D02*
X125900000Y-75870000D01*
X156475000Y-75870000D02*
X154475000Y-75870000D01*
X154475000Y-75870000D02*
X154475000Y-72020000D01*
X156475000Y-75870000D02*
X156475000Y-72020000D01*
X175525000Y-75870000D02*
X173525000Y-75870000D01*
X173525000Y-75870000D02*
X173525000Y-72020000D01*
X175525000Y-75870000D02*
X175525000Y-72020000D01*
X194575000Y-75870000D02*
X192575000Y-75870000D01*
X192575000Y-75870000D02*
X192575000Y-72020000D01*
X194575000Y-75870000D02*
X194575000Y-72020000D01*
X213625000Y-75870000D02*
X211625000Y-75870000D01*
X211625000Y-75870000D02*
X211625000Y-72020000D01*
X213625000Y-75870000D02*
X213625000Y-72020000D01*
X242200000Y-75870000D02*
X242200000Y-72020000D01*
X240200000Y-75870000D02*
X240200000Y-72020000D01*
X242200000Y-75870000D02*
X240200000Y-75870000D01*
X261250000Y-75870000D02*
X261250000Y-72020000D01*
X259250000Y-75870000D02*
X259250000Y-72020000D01*
X261250000Y-75870000D02*
X259250000Y-75870000D01*
X42175000Y-104445000D02*
X42175000Y-100595000D01*
X40175000Y-104445000D02*
X40175000Y-100595000D01*
X42175000Y-104445000D02*
X40175000Y-104445000D01*
X61225000Y-104445000D02*
X59225000Y-104445000D01*
X59225000Y-104445000D02*
X59225000Y-100595000D01*
X61225000Y-104445000D02*
X61225000Y-100595000D01*
X80275000Y-104445000D02*
X78275000Y-104445000D01*
X78275000Y-104445000D02*
X78275000Y-100595000D01*
X80275000Y-104445000D02*
X80275000Y-100595000D01*
X99325000Y-104445000D02*
X97325000Y-104445000D01*
X97325000Y-104445000D02*
X97325000Y-100595000D01*
X99325000Y-104445000D02*
X99325000Y-100595000D01*
X118375000Y-104445000D02*
X116375000Y-104445000D01*
X116375000Y-104445000D02*
X116375000Y-100595000D01*
X118375000Y-104445000D02*
X118375000Y-100595000D01*
X137425000Y-104445000D02*
X137425000Y-100595000D01*
X135425000Y-104445000D02*
X135425000Y-100595000D01*
X137425000Y-104445000D02*
X135425000Y-104445000D01*
X156475000Y-104445000D02*
X156475000Y-100595000D01*
X154475000Y-104445000D02*
X154475000Y-100595000D01*
X156475000Y-104445000D02*
X154475000Y-104445000D01*
X175525000Y-104445000D02*
X175525000Y-100595000D01*
X173525000Y-104445000D02*
X173525000Y-100595000D01*
X175525000Y-104445000D02*
X173525000Y-104445000D01*
X194575000Y-104445000D02*
X194575000Y-100595000D01*
X192575000Y-104445000D02*
X192575000Y-100595000D01*
X194575000Y-104445000D02*
X192575000Y-104445000D01*
X213625000Y-104445000D02*
X213625000Y-100595000D01*
X211625000Y-104445000D02*
X211625000Y-100595000D01*
X213625000Y-104445000D02*
X211625000Y-104445000D01*
X232675000Y-104445000D02*
X232675000Y-100595000D01*
X230675000Y-104445000D02*
X230675000Y-100595000D01*
X232675000Y-104445000D02*
X230675000Y-104445000D01*
X251725000Y-104445000D02*
X249725000Y-104445000D01*
X249725000Y-104445000D02*
X249725000Y-100595000D01*
X251725000Y-104445000D02*
X251725000Y-100595000D01*
X270775000Y-104445000D02*
X270775000Y-100595000D01*
X268775000Y-104445000D02*
X268775000Y-100595000D01*
X270775000Y-104445000D02*
X268775000Y-104445000D01*
X299350000Y-104445000D02*
X299350000Y-100595000D01*
X297350000Y-104445000D02*
X297350000Y-100595000D01*
X299350000Y-104445000D02*
X297350000Y-104445000D01*
X327925000Y-104445000D02*
X325925000Y-104445000D01*
X325925000Y-104445000D02*
X325925000Y-100595000D01*
X327925000Y-104445000D02*
X327925000Y-100595000D01*
X46937500Y-123495000D02*
X46937500Y-119645000D01*
X44937500Y-123495000D02*
X44937500Y-119645000D01*
X46937500Y-123495000D02*
X44937500Y-123495000D01*
X70750000Y-123495000D02*
X70750000Y-119645000D01*
X68750000Y-123495000D02*
X68750000Y-119645000D01*
X70750000Y-123495000D02*
X68750000Y-123495000D01*
X89800000Y-123495000D02*
X87800000Y-123495000D01*
X87800000Y-123495000D02*
X87800000Y-119645000D01*
X89800000Y-123495000D02*
X89800000Y-119645000D01*
X108850000Y-123495000D02*
X108850000Y-119645000D01*
X106850000Y-123495000D02*
X106850000Y-119645000D01*
X108850000Y-123495000D02*
X106850000Y-123495000D01*
X127900000Y-123495000D02*
X125900000Y-123495000D01*
X125900000Y-123495000D02*
X125900000Y-119645000D01*
X127900000Y-123495000D02*
X127900000Y-119645000D01*
X146950000Y-123495000D02*
X146950000Y-119645000D01*
X144950000Y-123495000D02*
X144950000Y-119645000D01*
X146950000Y-123495000D02*
X144950000Y-123495000D01*
X166000000Y-123495000D02*
X164000000Y-123495000D01*
X164000000Y-123495000D02*
X164000000Y-119645000D01*
X166000000Y-123495000D02*
X166000000Y-119645000D01*
X185050000Y-123495000D02*
X185050000Y-119645000D01*
X183050000Y-123495000D02*
X183050000Y-119645000D01*
X185050000Y-123495000D02*
X183050000Y-123495000D01*
X204100000Y-123495000D02*
X202100000Y-123495000D01*
X202100000Y-123495000D02*
X202100000Y-119645000D01*
X204100000Y-123495000D02*
X204100000Y-119645000D01*
X223150000Y-123495000D02*
X223150000Y-119645000D01*
X221150000Y-123495000D02*
X221150000Y-119645000D01*
X223150000Y-123495000D02*
X221150000Y-123495000D01*
X242200000Y-123495000D02*
X240200000Y-123495000D01*
X240200000Y-123495000D02*
X240200000Y-119645000D01*
X242200000Y-123495000D02*
X242200000Y-119645000D01*
X261250000Y-123495000D02*
X261250000Y-119645000D01*
X259250000Y-123495000D02*
X259250000Y-119645000D01*
X261250000Y-123495000D02*
X259250000Y-123495000D01*
X280300000Y-123495000D02*
X278300000Y-123495000D01*
X278300000Y-123495000D02*
X278300000Y-119645000D01*
X280300000Y-123495000D02*
X280300000Y-119645000D01*
X304112500Y-123495000D02*
X304112500Y-119645000D01*
X302112500Y-123495000D02*
X302112500Y-119645000D01*
X304112500Y-123495000D02*
X302112500Y-123495000D01*
X327925000Y-123495000D02*
X325925000Y-123495000D01*
X325925000Y-123495000D02*
X325925000Y-119645000D01*
X327925000Y-123495000D02*
X327925000Y-119645000D01*
X49318750Y-142545000D02*
X47318750Y-142545000D01*
X47318750Y-142545000D02*
X47318750Y-138695000D01*
X49318750Y-142545000D02*
X49318750Y-138695000D01*
X75512500Y-142545000D02*
X75512500Y-138695000D01*
X73512500Y-142545000D02*
X73512500Y-138695000D01*
X75512500Y-142545000D02*
X73512500Y-142545000D01*
X94562500Y-142545000D02*
X92562500Y-142545000D01*
X92562500Y-142545000D02*
X92562500Y-138695000D01*
X94562500Y-142545000D02*
X94562500Y-138695000D01*
X113612500Y-142545000D02*
X113612500Y-138695000D01*
X111612500Y-142545000D02*
X111612500Y-138695000D01*
X113612500Y-142545000D02*
X111612500Y-142545000D01*
X132662500Y-142545000D02*
X130662500Y-142545000D01*
X130662500Y-142545000D02*
X130662500Y-138695000D01*
X132662500Y-142545000D02*
X132662500Y-138695000D01*
X151712500Y-142545000D02*
X151712500Y-138695000D01*
X149712500Y-142545000D02*
X149712500Y-138695000D01*
X151712500Y-142545000D02*
X149712500Y-142545000D01*
X170762500Y-142545000D02*
X168762500Y-142545000D01*
X168762500Y-142545000D02*
X168762500Y-138695000D01*
X170762500Y-142545000D02*
X170762500Y-138695000D01*
X189812500Y-142545000D02*
X189812500Y-138695000D01*
X187812500Y-142545000D02*
X187812500Y-138695000D01*
X189812500Y-142545000D02*
X187812500Y-142545000D01*
X208862500Y-142545000D02*
X208862500Y-138695000D01*
X206862500Y-142545000D02*
X206862500Y-138695000D01*
X208862500Y-142545000D02*
X206862500Y-142545000D01*
X227912500Y-142545000D02*
X227912500Y-138695000D01*
X225912500Y-142545000D02*
X225912500Y-138695000D01*
X227912500Y-142545000D02*
X225912500Y-142545000D01*
X246962500Y-142545000D02*
X244962500Y-142545000D01*
X244962500Y-142545000D02*
X244962500Y-138695000D01*
X246962500Y-142545000D02*
X246962500Y-138695000D01*
X266012500Y-142545000D02*
X266012500Y-138695000D01*
X264012500Y-142545000D02*
X264012500Y-138695000D01*
X266012500Y-142545000D02*
X264012500Y-142545000D01*
X296968750Y-142545000D02*
X294968750Y-142545000D01*
X294968750Y-142545000D02*
X294968750Y-138695000D01*
X296968750Y-142545000D02*
X296968750Y-138695000D01*
X327925000Y-142545000D02*
X325925000Y-142545000D01*
X325925000Y-142545000D02*
X325925000Y-138695000D01*
X327925000Y-142545000D02*
X327925000Y-138695000D01*
X54081250Y-161595000D02*
X52081250Y-161595000D01*
X52081250Y-161595000D02*
X52081250Y-157745000D01*
X54081250Y-161595000D02*
X54081250Y-157745000D01*
X85037500Y-161595000D02*
X83037500Y-161595000D01*
X83037500Y-161595000D02*
X83037500Y-157745000D01*
X85037500Y-161595000D02*
X85037500Y-157745000D01*
X104087500Y-161595000D02*
X104087500Y-157745000D01*
X102087500Y-161595000D02*
X102087500Y-157745000D01*
X104087500Y-161595000D02*
X102087500Y-161595000D01*
X123137500Y-161595000D02*
X121137500Y-161595000D01*
X121137500Y-161595000D02*
X121137500Y-157745000D01*
X123137500Y-161595000D02*
X123137500Y-157745000D01*
X142187500Y-161595000D02*
X142187500Y-157745000D01*
X140187500Y-161595000D02*
X140187500Y-157745000D01*
X142187500Y-161595000D02*
X140187500Y-161595000D01*
X161237500Y-161595000D02*
X159237500Y-161595000D01*
X159237500Y-161595000D02*
X159237500Y-157745000D01*
X161237500Y-161595000D02*
X161237500Y-157745000D01*
X180287500Y-161595000D02*
X180287500Y-157745000D01*
X178287500Y-161595000D02*
X178287500Y-157745000D01*
X180287500Y-161595000D02*
X178287500Y-161595000D01*
X199337500Y-161595000D02*
X197337500Y-161595000D01*
X197337500Y-161595000D02*
X197337500Y-157745000D01*
X199337500Y-161595000D02*
X199337500Y-157745000D01*
X218387500Y-161595000D02*
X218387500Y-157745000D01*
X216387500Y-161595000D02*
X216387500Y-157745000D01*
X218387500Y-161595000D02*
X216387500Y-161595000D01*
X237437500Y-161595000D02*
X235437500Y-161595000D01*
X235437500Y-161595000D02*
X235437500Y-157745000D01*
X237437500Y-161595000D02*
X237437500Y-157745000D01*
X256487500Y-161595000D02*
X256487500Y-157745000D01*
X254487500Y-161595000D02*
X254487500Y-157745000D01*
X256487500Y-161595000D02*
X254487500Y-161595000D01*
X282681250Y-161595000D02*
X282681250Y-157745000D01*
X280681250Y-161595000D02*
X280681250Y-157745000D01*
X282681250Y-161595000D02*
X280681250Y-161595000D01*
X308875000Y-161595000D02*
X308875000Y-157745000D01*
X306875000Y-161595000D02*
X306875000Y-157745000D01*
X308875000Y-161595000D02*
X306875000Y-161595000D01*
X327925000Y-161595000D02*
X325925000Y-161595000D01*
X325925000Y-161595000D02*
X325925000Y-157745000D01*
X327925000Y-161595000D02*
X327925000Y-157745000D01*
X44556250Y-180645000D02*
X44556250Y-176795000D01*
X42556250Y-180645000D02*
X42556250Y-176795000D01*
X44556250Y-180645000D02*
X42556250Y-180645000D01*
X65987500Y-180645000D02*
X63987500Y-180645000D01*
X63987500Y-180645000D02*
X63987500Y-176795000D01*
X65987500Y-180645000D02*
X65987500Y-176795000D01*
X87418750Y-180645000D02*
X87418750Y-176795000D01*
X85418750Y-180645000D02*
X85418750Y-176795000D01*
X87418750Y-180645000D02*
X85418750Y-180645000D01*
X166000000Y-180645000D02*
X164000000Y-180645000D01*
X164000000Y-180645000D02*
X164000000Y-176795000D01*
X166000000Y-180645000D02*
X166000000Y-176795000D01*
X244581250Y-180645000D02*
X244581250Y-176795000D01*
X242581250Y-180645000D02*
X242581250Y-176795000D01*
X244581250Y-180645000D02*
X242581250Y-180645000D01*
X268393750Y-180645000D02*
X266393750Y-180645000D01*
X266393750Y-180645000D02*
X266393750Y-176795000D01*
X268393750Y-180645000D02*
X268393750Y-176795000D01*
X289825000Y-180645000D02*
X289825000Y-176795000D01*
X287825000Y-180645000D02*
X287825000Y-176795000D01*
X289825000Y-180645000D02*
X287825000Y-180645000D01*
X308875000Y-180645000D02*
X306875000Y-180645000D01*
X306875000Y-180645000D02*
X306875000Y-176795000D01*
X308875000Y-180645000D02*
X308875000Y-176795000D01*
X327925000Y-180645000D02*
X327925000Y-176795000D01*
X325925000Y-180645000D02*
X325925000Y-176795000D01*
X327925000Y-180645000D02*
X325925000Y-180645000D01*
X321885000Y-65840000D02*
X321885000Y-64000000D01*
X321240000Y-65840000D02*
X321885000Y-65840000D01*
X321240000Y-69700000D02*
X321240000Y-65840000D01*
X321240000Y-73560000D02*
X321885000Y-73560000D01*
X321240000Y-69700000D02*
X321240000Y-73560000D01*
X340160000Y-65840000D02*
X339515000Y-65840000D01*
X340160000Y-69700000D02*
X340160000Y-65840000D01*
X340160000Y-73560000D02*
X339515000Y-73560000D01*
X340160000Y-69700000D02*
X340160000Y-73560000D01*
X286158578Y-69810000D02*
X285641422Y-69810000D01*
X286158578Y-68390000D02*
X285641422Y-68390000D01*
X329100000Y-61000000D02*
X325250000Y-61000000D01*
X329100000Y-63000000D02*
X325250000Y-63000000D01*
X329100000Y-61000000D02*
X329100000Y-63000000D01*
X331200000Y-76900000D02*
G75*
G03*
X330500000Y-77600000I0J-700000D01*
G01*
X332500000Y-77600000D02*
G75*
G03*
X331800000Y-76900000I-700000J0D01*
G01*
X331800000Y-79700000D02*
G75*
G03*
X332500000Y-79000000I0J700000D01*
G01*
X330500000Y-79000000D02*
G75*
G03*
X331200000Y-79700000I700000J0D01*
G01*
X331800000Y-76900000D02*
X331200000Y-76900000D01*
X332500000Y-79000000D02*
X332500000Y-77600000D01*
X331200000Y-79700000D02*
X331800000Y-79700000D01*
X330500000Y-77600000D02*
X330500000Y-79000000D01*
X327900000Y-77600000D02*
X327900000Y-79000000D01*
X328600000Y-79700000D02*
X329200000Y-79700000D01*
X329900000Y-79000000D02*
X329900000Y-77600000D01*
X329200000Y-76900000D02*
X328600000Y-76900000D01*
X327900000Y-79000000D02*
G75*
G03*
X328600000Y-79700000I700000J0D01*
G01*
X329200000Y-79700000D02*
G75*
G03*
X329900000Y-79000000I0J700000D01*
G01*
X329900000Y-77600000D02*
G75*
G03*
X329200000Y-76900000I-700000J0D01*
G01*
X328600000Y-76900000D02*
G75*
G03*
X327900000Y-77600000I0J-700000D01*
G01*
X325300000Y-77600000D02*
X325300000Y-79000000D01*
X326000000Y-79700000D02*
X326600000Y-79700000D01*
X327300000Y-79000000D02*
X327300000Y-77600000D01*
X326600000Y-76900000D02*
X326000000Y-76900000D01*
X325300000Y-79000000D02*
G75*
G03*
X326000000Y-79700000I700000J0D01*
G01*
X326600000Y-79700000D02*
G75*
G03*
X327300000Y-79000000I0J700000D01*
G01*
X327300000Y-77600000D02*
G75*
G03*
X326600000Y-76900000I-700000J0D01*
G01*
X326000000Y-76900000D02*
G75*
G03*
X325300000Y-77600000I0J-700000D01*
G01*
X332010000Y-81537221D02*
X332010000Y-81862779D01*
X330990000Y-81537221D02*
X330990000Y-81862779D01*
X328390000Y-81537221D02*
X328390000Y-81862779D01*
X329410000Y-81537221D02*
X329410000Y-81862779D01*
X326810000Y-81537221D02*
X326810000Y-81862779D01*
X325790000Y-81537221D02*
X325790000Y-81862779D01*
X282660000Y-51490000D02*
X291340000Y-51490000D01*
X292040000Y-57710000D02*
X290760000Y-57710000D01*
X292040000Y-59310000D02*
X292040000Y-57710000D01*
X293060000Y-59310000D02*
X292040000Y-59310000D01*
X293060000Y-55060000D02*
X293060000Y-59310000D01*
X283240000Y-57710000D02*
X283240000Y-60600000D01*
X281960000Y-57710000D02*
X283240000Y-57710000D01*
X281960000Y-59310000D02*
X281960000Y-57710000D01*
X280940000Y-59310000D02*
X281960000Y-59310000D01*
X280940000Y-55060000D02*
X280940000Y-59310000D01*
D11*
X260433333Y-88852380D02*
X260433333Y-89566666D01*
X260480952Y-89709523D01*
X260576190Y-89804761D01*
X260719047Y-89852380D01*
X260814285Y-89852380D01*
X259433333Y-89852380D02*
X260004761Y-89852380D01*
X259719047Y-89852380D02*
X259719047Y-88852380D01*
X259814285Y-88995238D01*
X259909523Y-89090476D01*
X260004761Y-89138095D01*
X43532380Y-73058904D02*
X42532380Y-73058904D01*
X42532380Y-73297000D01*
X42580000Y-73439857D01*
X42675238Y-73535095D01*
X42770476Y-73582714D01*
X42960952Y-73630333D01*
X43103809Y-73630333D01*
X43294285Y-73582714D01*
X43389523Y-73535095D01*
X43484761Y-73439857D01*
X43532380Y-73297000D01*
X43532380Y-73058904D01*
X42532380Y-74249380D02*
X42532380Y-74344619D01*
X42580000Y-74439857D01*
X42627619Y-74487476D01*
X42722857Y-74535095D01*
X42913333Y-74582714D01*
X43151428Y-74582714D01*
X43341904Y-74535095D01*
X43437142Y-74487476D01*
X43484761Y-74439857D01*
X43532380Y-74344619D01*
X43532380Y-74249380D01*
X43484761Y-74154142D01*
X43437142Y-74106523D01*
X43341904Y-74058904D01*
X43151428Y-74011285D01*
X42913333Y-74011285D01*
X42722857Y-74058904D01*
X42627619Y-74106523D01*
X42580000Y-74154142D01*
X42532380Y-74249380D01*
X72107380Y-73058904D02*
X71107380Y-73058904D01*
X71107380Y-73297000D01*
X71155000Y-73439857D01*
X71250238Y-73535095D01*
X71345476Y-73582714D01*
X71535952Y-73630333D01*
X71678809Y-73630333D01*
X71869285Y-73582714D01*
X71964523Y-73535095D01*
X72059761Y-73439857D01*
X72107380Y-73297000D01*
X72107380Y-73058904D01*
X72107380Y-74582714D02*
X72107380Y-74011285D01*
X72107380Y-74297000D02*
X71107380Y-74297000D01*
X71250238Y-74201761D01*
X71345476Y-74106523D01*
X71393095Y-74011285D01*
X91157380Y-73058904D02*
X90157380Y-73058904D01*
X90157380Y-73297000D01*
X90205000Y-73439857D01*
X90300238Y-73535095D01*
X90395476Y-73582714D01*
X90585952Y-73630333D01*
X90728809Y-73630333D01*
X90919285Y-73582714D01*
X91014523Y-73535095D01*
X91109761Y-73439857D01*
X91157380Y-73297000D01*
X91157380Y-73058904D01*
X90252619Y-74011285D02*
X90205000Y-74058904D01*
X90157380Y-74154142D01*
X90157380Y-74392238D01*
X90205000Y-74487476D01*
X90252619Y-74535095D01*
X90347857Y-74582714D01*
X90443095Y-74582714D01*
X90585952Y-74535095D01*
X91157380Y-73963666D01*
X91157380Y-74582714D01*
X110207380Y-73058904D02*
X109207380Y-73058904D01*
X109207380Y-73297000D01*
X109255000Y-73439857D01*
X109350238Y-73535095D01*
X109445476Y-73582714D01*
X109635952Y-73630333D01*
X109778809Y-73630333D01*
X109969285Y-73582714D01*
X110064523Y-73535095D01*
X110159761Y-73439857D01*
X110207380Y-73297000D01*
X110207380Y-73058904D01*
X109207380Y-73963666D02*
X109207380Y-74582714D01*
X109588333Y-74249380D01*
X109588333Y-74392238D01*
X109635952Y-74487476D01*
X109683571Y-74535095D01*
X109778809Y-74582714D01*
X110016904Y-74582714D01*
X110112142Y-74535095D01*
X110159761Y-74487476D01*
X110207380Y-74392238D01*
X110207380Y-74106523D01*
X110159761Y-74011285D01*
X110112142Y-73963666D01*
X129257380Y-73058904D02*
X128257380Y-73058904D01*
X128257380Y-73297000D01*
X128305000Y-73439857D01*
X128400238Y-73535095D01*
X128495476Y-73582714D01*
X128685952Y-73630333D01*
X128828809Y-73630333D01*
X129019285Y-73582714D01*
X129114523Y-73535095D01*
X129209761Y-73439857D01*
X129257380Y-73297000D01*
X129257380Y-73058904D01*
X128590714Y-74487476D02*
X129257380Y-74487476D01*
X128209761Y-74249380D02*
X128924047Y-74011285D01*
X128924047Y-74630333D01*
X157832380Y-73058904D02*
X156832380Y-73058904D01*
X156832380Y-73297000D01*
X156880000Y-73439857D01*
X156975238Y-73535095D01*
X157070476Y-73582714D01*
X157260952Y-73630333D01*
X157403809Y-73630333D01*
X157594285Y-73582714D01*
X157689523Y-73535095D01*
X157784761Y-73439857D01*
X157832380Y-73297000D01*
X157832380Y-73058904D01*
X156832380Y-74535095D02*
X156832380Y-74058904D01*
X157308571Y-74011285D01*
X157260952Y-74058904D01*
X157213333Y-74154142D01*
X157213333Y-74392238D01*
X157260952Y-74487476D01*
X157308571Y-74535095D01*
X157403809Y-74582714D01*
X157641904Y-74582714D01*
X157737142Y-74535095D01*
X157784761Y-74487476D01*
X157832380Y-74392238D01*
X157832380Y-74154142D01*
X157784761Y-74058904D01*
X157737142Y-74011285D01*
X176882380Y-73058904D02*
X175882380Y-73058904D01*
X175882380Y-73297000D01*
X175930000Y-73439857D01*
X176025238Y-73535095D01*
X176120476Y-73582714D01*
X176310952Y-73630333D01*
X176453809Y-73630333D01*
X176644285Y-73582714D01*
X176739523Y-73535095D01*
X176834761Y-73439857D01*
X176882380Y-73297000D01*
X176882380Y-73058904D01*
X175882380Y-74487476D02*
X175882380Y-74297000D01*
X175930000Y-74201761D01*
X175977619Y-74154142D01*
X176120476Y-74058904D01*
X176310952Y-74011285D01*
X176691904Y-74011285D01*
X176787142Y-74058904D01*
X176834761Y-74106523D01*
X176882380Y-74201761D01*
X176882380Y-74392238D01*
X176834761Y-74487476D01*
X176787142Y-74535095D01*
X176691904Y-74582714D01*
X176453809Y-74582714D01*
X176358571Y-74535095D01*
X176310952Y-74487476D01*
X176263333Y-74392238D01*
X176263333Y-74201761D01*
X176310952Y-74106523D01*
X176358571Y-74058904D01*
X176453809Y-74011285D01*
X195932380Y-73058904D02*
X194932380Y-73058904D01*
X194932380Y-73297000D01*
X194980000Y-73439857D01*
X195075238Y-73535095D01*
X195170476Y-73582714D01*
X195360952Y-73630333D01*
X195503809Y-73630333D01*
X195694285Y-73582714D01*
X195789523Y-73535095D01*
X195884761Y-73439857D01*
X195932380Y-73297000D01*
X195932380Y-73058904D01*
X194932380Y-73963666D02*
X194932380Y-74630333D01*
X195932380Y-74201761D01*
X214982380Y-73058904D02*
X213982380Y-73058904D01*
X213982380Y-73297000D01*
X214030000Y-73439857D01*
X214125238Y-73535095D01*
X214220476Y-73582714D01*
X214410952Y-73630333D01*
X214553809Y-73630333D01*
X214744285Y-73582714D01*
X214839523Y-73535095D01*
X214934761Y-73439857D01*
X214982380Y-73297000D01*
X214982380Y-73058904D01*
X214410952Y-74201761D02*
X214363333Y-74106523D01*
X214315714Y-74058904D01*
X214220476Y-74011285D01*
X214172857Y-74011285D01*
X214077619Y-74058904D01*
X214030000Y-74106523D01*
X213982380Y-74201761D01*
X213982380Y-74392238D01*
X214030000Y-74487476D01*
X214077619Y-74535095D01*
X214172857Y-74582714D01*
X214220476Y-74582714D01*
X214315714Y-74535095D01*
X214363333Y-74487476D01*
X214410952Y-74392238D01*
X214410952Y-74201761D01*
X214458571Y-74106523D01*
X214506190Y-74058904D01*
X214601428Y-74011285D01*
X214791904Y-74011285D01*
X214887142Y-74058904D01*
X214934761Y-74106523D01*
X214982380Y-74201761D01*
X214982380Y-74392238D01*
X214934761Y-74487476D01*
X214887142Y-74535095D01*
X214791904Y-74582714D01*
X214601428Y-74582714D01*
X214506190Y-74535095D01*
X214458571Y-74487476D01*
X214410952Y-74392238D01*
X243557380Y-73058904D02*
X242557380Y-73058904D01*
X242557380Y-73297000D01*
X242605000Y-73439857D01*
X242700238Y-73535095D01*
X242795476Y-73582714D01*
X242985952Y-73630333D01*
X243128809Y-73630333D01*
X243319285Y-73582714D01*
X243414523Y-73535095D01*
X243509761Y-73439857D01*
X243557380Y-73297000D01*
X243557380Y-73058904D01*
X243557380Y-74106523D02*
X243557380Y-74297000D01*
X243509761Y-74392238D01*
X243462142Y-74439857D01*
X243319285Y-74535095D01*
X243128809Y-74582714D01*
X242747857Y-74582714D01*
X242652619Y-74535095D01*
X242605000Y-74487476D01*
X242557380Y-74392238D01*
X242557380Y-74201761D01*
X242605000Y-74106523D01*
X242652619Y-74058904D01*
X242747857Y-74011285D01*
X242985952Y-74011285D01*
X243081190Y-74058904D01*
X243128809Y-74106523D01*
X243176428Y-74201761D01*
X243176428Y-74392238D01*
X243128809Y-74487476D01*
X243081190Y-74535095D01*
X242985952Y-74582714D01*
X262607380Y-72582714D02*
X261607380Y-72582714D01*
X261607380Y-72820809D01*
X261655000Y-72963666D01*
X261750238Y-73058904D01*
X261845476Y-73106523D01*
X262035952Y-73154142D01*
X262178809Y-73154142D01*
X262369285Y-73106523D01*
X262464523Y-73058904D01*
X262559761Y-72963666D01*
X262607380Y-72820809D01*
X262607380Y-72582714D01*
X262607380Y-74106523D02*
X262607380Y-73535095D01*
X262607380Y-73820809D02*
X261607380Y-73820809D01*
X261750238Y-73725571D01*
X261845476Y-73630333D01*
X261893095Y-73535095D01*
X261607380Y-74725571D02*
X261607380Y-74820809D01*
X261655000Y-74916047D01*
X261702619Y-74963666D01*
X261797857Y-75011285D01*
X261988333Y-75058904D01*
X262226428Y-75058904D01*
X262416904Y-75011285D01*
X262512142Y-74963666D01*
X262559761Y-74916047D01*
X262607380Y-74820809D01*
X262607380Y-74725571D01*
X262559761Y-74630333D01*
X262512142Y-74582714D01*
X262416904Y-74535095D01*
X262226428Y-74487476D01*
X261988333Y-74487476D01*
X261797857Y-74535095D01*
X261702619Y-74582714D01*
X261655000Y-74630333D01*
X261607380Y-74725571D01*
X43532380Y-101157714D02*
X42532380Y-101157714D01*
X42532380Y-101395809D01*
X42580000Y-101538666D01*
X42675238Y-101633904D01*
X42770476Y-101681523D01*
X42960952Y-101729142D01*
X43103809Y-101729142D01*
X43294285Y-101681523D01*
X43389523Y-101633904D01*
X43484761Y-101538666D01*
X43532380Y-101395809D01*
X43532380Y-101157714D01*
X43532380Y-102681523D02*
X43532380Y-102110095D01*
X43532380Y-102395809D02*
X42532380Y-102395809D01*
X42675238Y-102300571D01*
X42770476Y-102205333D01*
X42818095Y-102110095D01*
X43532380Y-103633904D02*
X43532380Y-103062476D01*
X43532380Y-103348190D02*
X42532380Y-103348190D01*
X42675238Y-103252952D01*
X42770476Y-103157714D01*
X42818095Y-103062476D01*
X62582380Y-101157714D02*
X61582380Y-101157714D01*
X61582380Y-101395809D01*
X61630000Y-101538666D01*
X61725238Y-101633904D01*
X61820476Y-101681523D01*
X62010952Y-101729142D01*
X62153809Y-101729142D01*
X62344285Y-101681523D01*
X62439523Y-101633904D01*
X62534761Y-101538666D01*
X62582380Y-101395809D01*
X62582380Y-101157714D01*
X62582380Y-102681523D02*
X62582380Y-102110095D01*
X62582380Y-102395809D02*
X61582380Y-102395809D01*
X61725238Y-102300571D01*
X61820476Y-102205333D01*
X61868095Y-102110095D01*
X61677619Y-103062476D02*
X61630000Y-103110095D01*
X61582380Y-103205333D01*
X61582380Y-103443428D01*
X61630000Y-103538666D01*
X61677619Y-103586285D01*
X61772857Y-103633904D01*
X61868095Y-103633904D01*
X62010952Y-103586285D01*
X62582380Y-103014857D01*
X62582380Y-103633904D01*
X81632380Y-101157714D02*
X80632380Y-101157714D01*
X80632380Y-101395809D01*
X80680000Y-101538666D01*
X80775238Y-101633904D01*
X80870476Y-101681523D01*
X81060952Y-101729142D01*
X81203809Y-101729142D01*
X81394285Y-101681523D01*
X81489523Y-101633904D01*
X81584761Y-101538666D01*
X81632380Y-101395809D01*
X81632380Y-101157714D01*
X81632380Y-102681523D02*
X81632380Y-102110095D01*
X81632380Y-102395809D02*
X80632380Y-102395809D01*
X80775238Y-102300571D01*
X80870476Y-102205333D01*
X80918095Y-102110095D01*
X80632380Y-103014857D02*
X80632380Y-103633904D01*
X81013333Y-103300571D01*
X81013333Y-103443428D01*
X81060952Y-103538666D01*
X81108571Y-103586285D01*
X81203809Y-103633904D01*
X81441904Y-103633904D01*
X81537142Y-103586285D01*
X81584761Y-103538666D01*
X81632380Y-103443428D01*
X81632380Y-103157714D01*
X81584761Y-103062476D01*
X81537142Y-103014857D01*
X100682380Y-101157714D02*
X99682380Y-101157714D01*
X99682380Y-101395809D01*
X99730000Y-101538666D01*
X99825238Y-101633904D01*
X99920476Y-101681523D01*
X100110952Y-101729142D01*
X100253809Y-101729142D01*
X100444285Y-101681523D01*
X100539523Y-101633904D01*
X100634761Y-101538666D01*
X100682380Y-101395809D01*
X100682380Y-101157714D01*
X100682380Y-102681523D02*
X100682380Y-102110095D01*
X100682380Y-102395809D02*
X99682380Y-102395809D01*
X99825238Y-102300571D01*
X99920476Y-102205333D01*
X99968095Y-102110095D01*
X100015714Y-103538666D02*
X100682380Y-103538666D01*
X99634761Y-103300571D02*
X100349047Y-103062476D01*
X100349047Y-103681523D01*
X119732380Y-101157714D02*
X118732380Y-101157714D01*
X118732380Y-101395809D01*
X118780000Y-101538666D01*
X118875238Y-101633904D01*
X118970476Y-101681523D01*
X119160952Y-101729142D01*
X119303809Y-101729142D01*
X119494285Y-101681523D01*
X119589523Y-101633904D01*
X119684761Y-101538666D01*
X119732380Y-101395809D01*
X119732380Y-101157714D01*
X119732380Y-102681523D02*
X119732380Y-102110095D01*
X119732380Y-102395809D02*
X118732380Y-102395809D01*
X118875238Y-102300571D01*
X118970476Y-102205333D01*
X119018095Y-102110095D01*
X118732380Y-103586285D02*
X118732380Y-103110095D01*
X119208571Y-103062476D01*
X119160952Y-103110095D01*
X119113333Y-103205333D01*
X119113333Y-103443428D01*
X119160952Y-103538666D01*
X119208571Y-103586285D01*
X119303809Y-103633904D01*
X119541904Y-103633904D01*
X119637142Y-103586285D01*
X119684761Y-103538666D01*
X119732380Y-103443428D01*
X119732380Y-103205333D01*
X119684761Y-103110095D01*
X119637142Y-103062476D01*
X138782380Y-101157714D02*
X137782380Y-101157714D01*
X137782380Y-101395809D01*
X137830000Y-101538666D01*
X137925238Y-101633904D01*
X138020476Y-101681523D01*
X138210952Y-101729142D01*
X138353809Y-101729142D01*
X138544285Y-101681523D01*
X138639523Y-101633904D01*
X138734761Y-101538666D01*
X138782380Y-101395809D01*
X138782380Y-101157714D01*
X138782380Y-102681523D02*
X138782380Y-102110095D01*
X138782380Y-102395809D02*
X137782380Y-102395809D01*
X137925238Y-102300571D01*
X138020476Y-102205333D01*
X138068095Y-102110095D01*
X137782380Y-103538666D02*
X137782380Y-103348190D01*
X137830000Y-103252952D01*
X137877619Y-103205333D01*
X138020476Y-103110095D01*
X138210952Y-103062476D01*
X138591904Y-103062476D01*
X138687142Y-103110095D01*
X138734761Y-103157714D01*
X138782380Y-103252952D01*
X138782380Y-103443428D01*
X138734761Y-103538666D01*
X138687142Y-103586285D01*
X138591904Y-103633904D01*
X138353809Y-103633904D01*
X138258571Y-103586285D01*
X138210952Y-103538666D01*
X138163333Y-103443428D01*
X138163333Y-103252952D01*
X138210952Y-103157714D01*
X138258571Y-103110095D01*
X138353809Y-103062476D01*
X157832380Y-101157714D02*
X156832380Y-101157714D01*
X156832380Y-101395809D01*
X156880000Y-101538666D01*
X156975238Y-101633904D01*
X157070476Y-101681523D01*
X157260952Y-101729142D01*
X157403809Y-101729142D01*
X157594285Y-101681523D01*
X157689523Y-101633904D01*
X157784761Y-101538666D01*
X157832380Y-101395809D01*
X157832380Y-101157714D01*
X157832380Y-102681523D02*
X157832380Y-102110095D01*
X157832380Y-102395809D02*
X156832380Y-102395809D01*
X156975238Y-102300571D01*
X157070476Y-102205333D01*
X157118095Y-102110095D01*
X156832380Y-103014857D02*
X156832380Y-103681523D01*
X157832380Y-103252952D01*
X176882380Y-101157714D02*
X175882380Y-101157714D01*
X175882380Y-101395809D01*
X175930000Y-101538666D01*
X176025238Y-101633904D01*
X176120476Y-101681523D01*
X176310952Y-101729142D01*
X176453809Y-101729142D01*
X176644285Y-101681523D01*
X176739523Y-101633904D01*
X176834761Y-101538666D01*
X176882380Y-101395809D01*
X176882380Y-101157714D01*
X176882380Y-102681523D02*
X176882380Y-102110095D01*
X176882380Y-102395809D02*
X175882380Y-102395809D01*
X176025238Y-102300571D01*
X176120476Y-102205333D01*
X176168095Y-102110095D01*
X176310952Y-103252952D02*
X176263333Y-103157714D01*
X176215714Y-103110095D01*
X176120476Y-103062476D01*
X176072857Y-103062476D01*
X175977619Y-103110095D01*
X175930000Y-103157714D01*
X175882380Y-103252952D01*
X175882380Y-103443428D01*
X175930000Y-103538666D01*
X175977619Y-103586285D01*
X176072857Y-103633904D01*
X176120476Y-103633904D01*
X176215714Y-103586285D01*
X176263333Y-103538666D01*
X176310952Y-103443428D01*
X176310952Y-103252952D01*
X176358571Y-103157714D01*
X176406190Y-103110095D01*
X176501428Y-103062476D01*
X176691904Y-103062476D01*
X176787142Y-103110095D01*
X176834761Y-103157714D01*
X176882380Y-103252952D01*
X176882380Y-103443428D01*
X176834761Y-103538666D01*
X176787142Y-103586285D01*
X176691904Y-103633904D01*
X176501428Y-103633904D01*
X176406190Y-103586285D01*
X176358571Y-103538666D01*
X176310952Y-103443428D01*
X195932380Y-101157714D02*
X194932380Y-101157714D01*
X194932380Y-101395809D01*
X194980000Y-101538666D01*
X195075238Y-101633904D01*
X195170476Y-101681523D01*
X195360952Y-101729142D01*
X195503809Y-101729142D01*
X195694285Y-101681523D01*
X195789523Y-101633904D01*
X195884761Y-101538666D01*
X195932380Y-101395809D01*
X195932380Y-101157714D01*
X195932380Y-102681523D02*
X195932380Y-102110095D01*
X195932380Y-102395809D02*
X194932380Y-102395809D01*
X195075238Y-102300571D01*
X195170476Y-102205333D01*
X195218095Y-102110095D01*
X195932380Y-103157714D02*
X195932380Y-103348190D01*
X195884761Y-103443428D01*
X195837142Y-103491047D01*
X195694285Y-103586285D01*
X195503809Y-103633904D01*
X195122857Y-103633904D01*
X195027619Y-103586285D01*
X194980000Y-103538666D01*
X194932380Y-103443428D01*
X194932380Y-103252952D01*
X194980000Y-103157714D01*
X195027619Y-103110095D01*
X195122857Y-103062476D01*
X195360952Y-103062476D01*
X195456190Y-103110095D01*
X195503809Y-103157714D01*
X195551428Y-103252952D01*
X195551428Y-103443428D01*
X195503809Y-103538666D01*
X195456190Y-103586285D01*
X195360952Y-103633904D01*
X214982380Y-101157714D02*
X213982380Y-101157714D01*
X213982380Y-101395809D01*
X214030000Y-101538666D01*
X214125238Y-101633904D01*
X214220476Y-101681523D01*
X214410952Y-101729142D01*
X214553809Y-101729142D01*
X214744285Y-101681523D01*
X214839523Y-101633904D01*
X214934761Y-101538666D01*
X214982380Y-101395809D01*
X214982380Y-101157714D01*
X214077619Y-102110095D02*
X214030000Y-102157714D01*
X213982380Y-102252952D01*
X213982380Y-102491047D01*
X214030000Y-102586285D01*
X214077619Y-102633904D01*
X214172857Y-102681523D01*
X214268095Y-102681523D01*
X214410952Y-102633904D01*
X214982380Y-102062476D01*
X214982380Y-102681523D01*
X213982380Y-103300571D02*
X213982380Y-103395809D01*
X214030000Y-103491047D01*
X214077619Y-103538666D01*
X214172857Y-103586285D01*
X214363333Y-103633904D01*
X214601428Y-103633904D01*
X214791904Y-103586285D01*
X214887142Y-103538666D01*
X214934761Y-103491047D01*
X214982380Y-103395809D01*
X214982380Y-103300571D01*
X214934761Y-103205333D01*
X214887142Y-103157714D01*
X214791904Y-103110095D01*
X214601428Y-103062476D01*
X214363333Y-103062476D01*
X214172857Y-103110095D01*
X214077619Y-103157714D01*
X214030000Y-103205333D01*
X213982380Y-103300571D01*
X234032380Y-101157714D02*
X233032380Y-101157714D01*
X233032380Y-101395809D01*
X233080000Y-101538666D01*
X233175238Y-101633904D01*
X233270476Y-101681523D01*
X233460952Y-101729142D01*
X233603809Y-101729142D01*
X233794285Y-101681523D01*
X233889523Y-101633904D01*
X233984761Y-101538666D01*
X234032380Y-101395809D01*
X234032380Y-101157714D01*
X233127619Y-102110095D02*
X233080000Y-102157714D01*
X233032380Y-102252952D01*
X233032380Y-102491047D01*
X233080000Y-102586285D01*
X233127619Y-102633904D01*
X233222857Y-102681523D01*
X233318095Y-102681523D01*
X233460952Y-102633904D01*
X234032380Y-102062476D01*
X234032380Y-102681523D01*
X234032380Y-103633904D02*
X234032380Y-103062476D01*
X234032380Y-103348190D02*
X233032380Y-103348190D01*
X233175238Y-103252952D01*
X233270476Y-103157714D01*
X233318095Y-103062476D01*
X253082380Y-101157714D02*
X252082380Y-101157714D01*
X252082380Y-101395809D01*
X252130000Y-101538666D01*
X252225238Y-101633904D01*
X252320476Y-101681523D01*
X252510952Y-101729142D01*
X252653809Y-101729142D01*
X252844285Y-101681523D01*
X252939523Y-101633904D01*
X253034761Y-101538666D01*
X253082380Y-101395809D01*
X253082380Y-101157714D01*
X252177619Y-102110095D02*
X252130000Y-102157714D01*
X252082380Y-102252952D01*
X252082380Y-102491047D01*
X252130000Y-102586285D01*
X252177619Y-102633904D01*
X252272857Y-102681523D01*
X252368095Y-102681523D01*
X252510952Y-102633904D01*
X253082380Y-102062476D01*
X253082380Y-102681523D01*
X252177619Y-103062476D02*
X252130000Y-103110095D01*
X252082380Y-103205333D01*
X252082380Y-103443428D01*
X252130000Y-103538666D01*
X252177619Y-103586285D01*
X252272857Y-103633904D01*
X252368095Y-103633904D01*
X252510952Y-103586285D01*
X253082380Y-103014857D01*
X253082380Y-103633904D01*
X272132380Y-101157714D02*
X271132380Y-101157714D01*
X271132380Y-101395809D01*
X271180000Y-101538666D01*
X271275238Y-101633904D01*
X271370476Y-101681523D01*
X271560952Y-101729142D01*
X271703809Y-101729142D01*
X271894285Y-101681523D01*
X271989523Y-101633904D01*
X272084761Y-101538666D01*
X272132380Y-101395809D01*
X272132380Y-101157714D01*
X271227619Y-102110095D02*
X271180000Y-102157714D01*
X271132380Y-102252952D01*
X271132380Y-102491047D01*
X271180000Y-102586285D01*
X271227619Y-102633904D01*
X271322857Y-102681523D01*
X271418095Y-102681523D01*
X271560952Y-102633904D01*
X272132380Y-102062476D01*
X272132380Y-102681523D01*
X271132380Y-103014857D02*
X271132380Y-103633904D01*
X271513333Y-103300571D01*
X271513333Y-103443428D01*
X271560952Y-103538666D01*
X271608571Y-103586285D01*
X271703809Y-103633904D01*
X271941904Y-103633904D01*
X272037142Y-103586285D01*
X272084761Y-103538666D01*
X272132380Y-103443428D01*
X272132380Y-103157714D01*
X272084761Y-103062476D01*
X272037142Y-103014857D01*
X300707380Y-101157714D02*
X299707380Y-101157714D01*
X299707380Y-101395809D01*
X299755000Y-101538666D01*
X299850238Y-101633904D01*
X299945476Y-101681523D01*
X300135952Y-101729142D01*
X300278809Y-101729142D01*
X300469285Y-101681523D01*
X300564523Y-101633904D01*
X300659761Y-101538666D01*
X300707380Y-101395809D01*
X300707380Y-101157714D01*
X299802619Y-102110095D02*
X299755000Y-102157714D01*
X299707380Y-102252952D01*
X299707380Y-102491047D01*
X299755000Y-102586285D01*
X299802619Y-102633904D01*
X299897857Y-102681523D01*
X299993095Y-102681523D01*
X300135952Y-102633904D01*
X300707380Y-102062476D01*
X300707380Y-102681523D01*
X300040714Y-103538666D02*
X300707380Y-103538666D01*
X299659761Y-103300571D02*
X300374047Y-103062476D01*
X300374047Y-103681523D01*
X329282380Y-101157714D02*
X328282380Y-101157714D01*
X328282380Y-101395809D01*
X328330000Y-101538666D01*
X328425238Y-101633904D01*
X328520476Y-101681523D01*
X328710952Y-101729142D01*
X328853809Y-101729142D01*
X329044285Y-101681523D01*
X329139523Y-101633904D01*
X329234761Y-101538666D01*
X329282380Y-101395809D01*
X329282380Y-101157714D01*
X328377619Y-102110095D02*
X328330000Y-102157714D01*
X328282380Y-102252952D01*
X328282380Y-102491047D01*
X328330000Y-102586285D01*
X328377619Y-102633904D01*
X328472857Y-102681523D01*
X328568095Y-102681523D01*
X328710952Y-102633904D01*
X329282380Y-102062476D01*
X329282380Y-102681523D01*
X328282380Y-103586285D02*
X328282380Y-103110095D01*
X328758571Y-103062476D01*
X328710952Y-103110095D01*
X328663333Y-103205333D01*
X328663333Y-103443428D01*
X328710952Y-103538666D01*
X328758571Y-103586285D01*
X328853809Y-103633904D01*
X329091904Y-103633904D01*
X329187142Y-103586285D01*
X329234761Y-103538666D01*
X329282380Y-103443428D01*
X329282380Y-103205333D01*
X329234761Y-103110095D01*
X329187142Y-103062476D01*
X48294880Y-120207714D02*
X47294880Y-120207714D01*
X47294880Y-120445809D01*
X47342500Y-120588666D01*
X47437738Y-120683904D01*
X47532976Y-120731523D01*
X47723452Y-120779142D01*
X47866309Y-120779142D01*
X48056785Y-120731523D01*
X48152023Y-120683904D01*
X48247261Y-120588666D01*
X48294880Y-120445809D01*
X48294880Y-120207714D01*
X47390119Y-121160095D02*
X47342500Y-121207714D01*
X47294880Y-121302952D01*
X47294880Y-121541047D01*
X47342500Y-121636285D01*
X47390119Y-121683904D01*
X47485357Y-121731523D01*
X47580595Y-121731523D01*
X47723452Y-121683904D01*
X48294880Y-121112476D01*
X48294880Y-121731523D01*
X47294880Y-122588666D02*
X47294880Y-122398190D01*
X47342500Y-122302952D01*
X47390119Y-122255333D01*
X47532976Y-122160095D01*
X47723452Y-122112476D01*
X48104404Y-122112476D01*
X48199642Y-122160095D01*
X48247261Y-122207714D01*
X48294880Y-122302952D01*
X48294880Y-122493428D01*
X48247261Y-122588666D01*
X48199642Y-122636285D01*
X48104404Y-122683904D01*
X47866309Y-122683904D01*
X47771071Y-122636285D01*
X47723452Y-122588666D01*
X47675833Y-122493428D01*
X47675833Y-122302952D01*
X47723452Y-122207714D01*
X47771071Y-122160095D01*
X47866309Y-122112476D01*
X72107380Y-120207714D02*
X71107380Y-120207714D01*
X71107380Y-120445809D01*
X71155000Y-120588666D01*
X71250238Y-120683904D01*
X71345476Y-120731523D01*
X71535952Y-120779142D01*
X71678809Y-120779142D01*
X71869285Y-120731523D01*
X71964523Y-120683904D01*
X72059761Y-120588666D01*
X72107380Y-120445809D01*
X72107380Y-120207714D01*
X71202619Y-121160095D02*
X71155000Y-121207714D01*
X71107380Y-121302952D01*
X71107380Y-121541047D01*
X71155000Y-121636285D01*
X71202619Y-121683904D01*
X71297857Y-121731523D01*
X71393095Y-121731523D01*
X71535952Y-121683904D01*
X72107380Y-121112476D01*
X72107380Y-121731523D01*
X71107380Y-122064857D02*
X71107380Y-122731523D01*
X72107380Y-122302952D01*
X91157380Y-120207714D02*
X90157380Y-120207714D01*
X90157380Y-120445809D01*
X90205000Y-120588666D01*
X90300238Y-120683904D01*
X90395476Y-120731523D01*
X90585952Y-120779142D01*
X90728809Y-120779142D01*
X90919285Y-120731523D01*
X91014523Y-120683904D01*
X91109761Y-120588666D01*
X91157380Y-120445809D01*
X91157380Y-120207714D01*
X90252619Y-121160095D02*
X90205000Y-121207714D01*
X90157380Y-121302952D01*
X90157380Y-121541047D01*
X90205000Y-121636285D01*
X90252619Y-121683904D01*
X90347857Y-121731523D01*
X90443095Y-121731523D01*
X90585952Y-121683904D01*
X91157380Y-121112476D01*
X91157380Y-121731523D01*
X90585952Y-122302952D02*
X90538333Y-122207714D01*
X90490714Y-122160095D01*
X90395476Y-122112476D01*
X90347857Y-122112476D01*
X90252619Y-122160095D01*
X90205000Y-122207714D01*
X90157380Y-122302952D01*
X90157380Y-122493428D01*
X90205000Y-122588666D01*
X90252619Y-122636285D01*
X90347857Y-122683904D01*
X90395476Y-122683904D01*
X90490714Y-122636285D01*
X90538333Y-122588666D01*
X90585952Y-122493428D01*
X90585952Y-122302952D01*
X90633571Y-122207714D01*
X90681190Y-122160095D01*
X90776428Y-122112476D01*
X90966904Y-122112476D01*
X91062142Y-122160095D01*
X91109761Y-122207714D01*
X91157380Y-122302952D01*
X91157380Y-122493428D01*
X91109761Y-122588666D01*
X91062142Y-122636285D01*
X90966904Y-122683904D01*
X90776428Y-122683904D01*
X90681190Y-122636285D01*
X90633571Y-122588666D01*
X90585952Y-122493428D01*
X110207380Y-120207714D02*
X109207380Y-120207714D01*
X109207380Y-120445809D01*
X109255000Y-120588666D01*
X109350238Y-120683904D01*
X109445476Y-120731523D01*
X109635952Y-120779142D01*
X109778809Y-120779142D01*
X109969285Y-120731523D01*
X110064523Y-120683904D01*
X110159761Y-120588666D01*
X110207380Y-120445809D01*
X110207380Y-120207714D01*
X109302619Y-121160095D02*
X109255000Y-121207714D01*
X109207380Y-121302952D01*
X109207380Y-121541047D01*
X109255000Y-121636285D01*
X109302619Y-121683904D01*
X109397857Y-121731523D01*
X109493095Y-121731523D01*
X109635952Y-121683904D01*
X110207380Y-121112476D01*
X110207380Y-121731523D01*
X110207380Y-122207714D02*
X110207380Y-122398190D01*
X110159761Y-122493428D01*
X110112142Y-122541047D01*
X109969285Y-122636285D01*
X109778809Y-122683904D01*
X109397857Y-122683904D01*
X109302619Y-122636285D01*
X109255000Y-122588666D01*
X109207380Y-122493428D01*
X109207380Y-122302952D01*
X109255000Y-122207714D01*
X109302619Y-122160095D01*
X109397857Y-122112476D01*
X109635952Y-122112476D01*
X109731190Y-122160095D01*
X109778809Y-122207714D01*
X109826428Y-122302952D01*
X109826428Y-122493428D01*
X109778809Y-122588666D01*
X109731190Y-122636285D01*
X109635952Y-122683904D01*
X129257380Y-120207714D02*
X128257380Y-120207714D01*
X128257380Y-120445809D01*
X128305000Y-120588666D01*
X128400238Y-120683904D01*
X128495476Y-120731523D01*
X128685952Y-120779142D01*
X128828809Y-120779142D01*
X129019285Y-120731523D01*
X129114523Y-120683904D01*
X129209761Y-120588666D01*
X129257380Y-120445809D01*
X129257380Y-120207714D01*
X128257380Y-121112476D02*
X128257380Y-121731523D01*
X128638333Y-121398190D01*
X128638333Y-121541047D01*
X128685952Y-121636285D01*
X128733571Y-121683904D01*
X128828809Y-121731523D01*
X129066904Y-121731523D01*
X129162142Y-121683904D01*
X129209761Y-121636285D01*
X129257380Y-121541047D01*
X129257380Y-121255333D01*
X129209761Y-121160095D01*
X129162142Y-121112476D01*
X128257380Y-122350571D02*
X128257380Y-122445809D01*
X128305000Y-122541047D01*
X128352619Y-122588666D01*
X128447857Y-122636285D01*
X128638333Y-122683904D01*
X128876428Y-122683904D01*
X129066904Y-122636285D01*
X129162142Y-122588666D01*
X129209761Y-122541047D01*
X129257380Y-122445809D01*
X129257380Y-122350571D01*
X129209761Y-122255333D01*
X129162142Y-122207714D01*
X129066904Y-122160095D01*
X128876428Y-122112476D01*
X128638333Y-122112476D01*
X128447857Y-122160095D01*
X128352619Y-122207714D01*
X128305000Y-122255333D01*
X128257380Y-122350571D01*
X148307380Y-120207714D02*
X147307380Y-120207714D01*
X147307380Y-120445809D01*
X147355000Y-120588666D01*
X147450238Y-120683904D01*
X147545476Y-120731523D01*
X147735952Y-120779142D01*
X147878809Y-120779142D01*
X148069285Y-120731523D01*
X148164523Y-120683904D01*
X148259761Y-120588666D01*
X148307380Y-120445809D01*
X148307380Y-120207714D01*
X147307380Y-121112476D02*
X147307380Y-121731523D01*
X147688333Y-121398190D01*
X147688333Y-121541047D01*
X147735952Y-121636285D01*
X147783571Y-121683904D01*
X147878809Y-121731523D01*
X148116904Y-121731523D01*
X148212142Y-121683904D01*
X148259761Y-121636285D01*
X148307380Y-121541047D01*
X148307380Y-121255333D01*
X148259761Y-121160095D01*
X148212142Y-121112476D01*
X148307380Y-122683904D02*
X148307380Y-122112476D01*
X148307380Y-122398190D02*
X147307380Y-122398190D01*
X147450238Y-122302952D01*
X147545476Y-122207714D01*
X147593095Y-122112476D01*
X167357380Y-120207714D02*
X166357380Y-120207714D01*
X166357380Y-120445809D01*
X166405000Y-120588666D01*
X166500238Y-120683904D01*
X166595476Y-120731523D01*
X166785952Y-120779142D01*
X166928809Y-120779142D01*
X167119285Y-120731523D01*
X167214523Y-120683904D01*
X167309761Y-120588666D01*
X167357380Y-120445809D01*
X167357380Y-120207714D01*
X166357380Y-121112476D02*
X166357380Y-121731523D01*
X166738333Y-121398190D01*
X166738333Y-121541047D01*
X166785952Y-121636285D01*
X166833571Y-121683904D01*
X166928809Y-121731523D01*
X167166904Y-121731523D01*
X167262142Y-121683904D01*
X167309761Y-121636285D01*
X167357380Y-121541047D01*
X167357380Y-121255333D01*
X167309761Y-121160095D01*
X167262142Y-121112476D01*
X166452619Y-122112476D02*
X166405000Y-122160095D01*
X166357380Y-122255333D01*
X166357380Y-122493428D01*
X166405000Y-122588666D01*
X166452619Y-122636285D01*
X166547857Y-122683904D01*
X166643095Y-122683904D01*
X166785952Y-122636285D01*
X167357380Y-122064857D01*
X167357380Y-122683904D01*
X186407380Y-120207714D02*
X185407380Y-120207714D01*
X185407380Y-120445809D01*
X185455000Y-120588666D01*
X185550238Y-120683904D01*
X185645476Y-120731523D01*
X185835952Y-120779142D01*
X185978809Y-120779142D01*
X186169285Y-120731523D01*
X186264523Y-120683904D01*
X186359761Y-120588666D01*
X186407380Y-120445809D01*
X186407380Y-120207714D01*
X185407380Y-121112476D02*
X185407380Y-121731523D01*
X185788333Y-121398190D01*
X185788333Y-121541047D01*
X185835952Y-121636285D01*
X185883571Y-121683904D01*
X185978809Y-121731523D01*
X186216904Y-121731523D01*
X186312142Y-121683904D01*
X186359761Y-121636285D01*
X186407380Y-121541047D01*
X186407380Y-121255333D01*
X186359761Y-121160095D01*
X186312142Y-121112476D01*
X185407380Y-122064857D02*
X185407380Y-122683904D01*
X185788333Y-122350571D01*
X185788333Y-122493428D01*
X185835952Y-122588666D01*
X185883571Y-122636285D01*
X185978809Y-122683904D01*
X186216904Y-122683904D01*
X186312142Y-122636285D01*
X186359761Y-122588666D01*
X186407380Y-122493428D01*
X186407380Y-122207714D01*
X186359761Y-122112476D01*
X186312142Y-122064857D01*
X205457380Y-120207714D02*
X204457380Y-120207714D01*
X204457380Y-120445809D01*
X204505000Y-120588666D01*
X204600238Y-120683904D01*
X204695476Y-120731523D01*
X204885952Y-120779142D01*
X205028809Y-120779142D01*
X205219285Y-120731523D01*
X205314523Y-120683904D01*
X205409761Y-120588666D01*
X205457380Y-120445809D01*
X205457380Y-120207714D01*
X204457380Y-121112476D02*
X204457380Y-121731523D01*
X204838333Y-121398190D01*
X204838333Y-121541047D01*
X204885952Y-121636285D01*
X204933571Y-121683904D01*
X205028809Y-121731523D01*
X205266904Y-121731523D01*
X205362142Y-121683904D01*
X205409761Y-121636285D01*
X205457380Y-121541047D01*
X205457380Y-121255333D01*
X205409761Y-121160095D01*
X205362142Y-121112476D01*
X204790714Y-122588666D02*
X205457380Y-122588666D01*
X204409761Y-122350571D02*
X205124047Y-122112476D01*
X205124047Y-122731523D01*
X224507380Y-120207714D02*
X223507380Y-120207714D01*
X223507380Y-120445809D01*
X223555000Y-120588666D01*
X223650238Y-120683904D01*
X223745476Y-120731523D01*
X223935952Y-120779142D01*
X224078809Y-120779142D01*
X224269285Y-120731523D01*
X224364523Y-120683904D01*
X224459761Y-120588666D01*
X224507380Y-120445809D01*
X224507380Y-120207714D01*
X223507380Y-121112476D02*
X223507380Y-121731523D01*
X223888333Y-121398190D01*
X223888333Y-121541047D01*
X223935952Y-121636285D01*
X223983571Y-121683904D01*
X224078809Y-121731523D01*
X224316904Y-121731523D01*
X224412142Y-121683904D01*
X224459761Y-121636285D01*
X224507380Y-121541047D01*
X224507380Y-121255333D01*
X224459761Y-121160095D01*
X224412142Y-121112476D01*
X223507380Y-122636285D02*
X223507380Y-122160095D01*
X223983571Y-122112476D01*
X223935952Y-122160095D01*
X223888333Y-122255333D01*
X223888333Y-122493428D01*
X223935952Y-122588666D01*
X223983571Y-122636285D01*
X224078809Y-122683904D01*
X224316904Y-122683904D01*
X224412142Y-122636285D01*
X224459761Y-122588666D01*
X224507380Y-122493428D01*
X224507380Y-122255333D01*
X224459761Y-122160095D01*
X224412142Y-122112476D01*
X243557380Y-120207714D02*
X242557380Y-120207714D01*
X242557380Y-120445809D01*
X242605000Y-120588666D01*
X242700238Y-120683904D01*
X242795476Y-120731523D01*
X242985952Y-120779142D01*
X243128809Y-120779142D01*
X243319285Y-120731523D01*
X243414523Y-120683904D01*
X243509761Y-120588666D01*
X243557380Y-120445809D01*
X243557380Y-120207714D01*
X242557380Y-121112476D02*
X242557380Y-121731523D01*
X242938333Y-121398190D01*
X242938333Y-121541047D01*
X242985952Y-121636285D01*
X243033571Y-121683904D01*
X243128809Y-121731523D01*
X243366904Y-121731523D01*
X243462142Y-121683904D01*
X243509761Y-121636285D01*
X243557380Y-121541047D01*
X243557380Y-121255333D01*
X243509761Y-121160095D01*
X243462142Y-121112476D01*
X242557380Y-122588666D02*
X242557380Y-122398190D01*
X242605000Y-122302952D01*
X242652619Y-122255333D01*
X242795476Y-122160095D01*
X242985952Y-122112476D01*
X243366904Y-122112476D01*
X243462142Y-122160095D01*
X243509761Y-122207714D01*
X243557380Y-122302952D01*
X243557380Y-122493428D01*
X243509761Y-122588666D01*
X243462142Y-122636285D01*
X243366904Y-122683904D01*
X243128809Y-122683904D01*
X243033571Y-122636285D01*
X242985952Y-122588666D01*
X242938333Y-122493428D01*
X242938333Y-122302952D01*
X242985952Y-122207714D01*
X243033571Y-122160095D01*
X243128809Y-122112476D01*
X262607380Y-120207714D02*
X261607380Y-120207714D01*
X261607380Y-120445809D01*
X261655000Y-120588666D01*
X261750238Y-120683904D01*
X261845476Y-120731523D01*
X262035952Y-120779142D01*
X262178809Y-120779142D01*
X262369285Y-120731523D01*
X262464523Y-120683904D01*
X262559761Y-120588666D01*
X262607380Y-120445809D01*
X262607380Y-120207714D01*
X261607380Y-121112476D02*
X261607380Y-121731523D01*
X261988333Y-121398190D01*
X261988333Y-121541047D01*
X262035952Y-121636285D01*
X262083571Y-121683904D01*
X262178809Y-121731523D01*
X262416904Y-121731523D01*
X262512142Y-121683904D01*
X262559761Y-121636285D01*
X262607380Y-121541047D01*
X262607380Y-121255333D01*
X262559761Y-121160095D01*
X262512142Y-121112476D01*
X261607380Y-122064857D02*
X261607380Y-122731523D01*
X262607380Y-122302952D01*
X281657380Y-120207714D02*
X280657380Y-120207714D01*
X280657380Y-120445809D01*
X280705000Y-120588666D01*
X280800238Y-120683904D01*
X280895476Y-120731523D01*
X281085952Y-120779142D01*
X281228809Y-120779142D01*
X281419285Y-120731523D01*
X281514523Y-120683904D01*
X281609761Y-120588666D01*
X281657380Y-120445809D01*
X281657380Y-120207714D01*
X280657380Y-121112476D02*
X280657380Y-121731523D01*
X281038333Y-121398190D01*
X281038333Y-121541047D01*
X281085952Y-121636285D01*
X281133571Y-121683904D01*
X281228809Y-121731523D01*
X281466904Y-121731523D01*
X281562142Y-121683904D01*
X281609761Y-121636285D01*
X281657380Y-121541047D01*
X281657380Y-121255333D01*
X281609761Y-121160095D01*
X281562142Y-121112476D01*
X281085952Y-122302952D02*
X281038333Y-122207714D01*
X280990714Y-122160095D01*
X280895476Y-122112476D01*
X280847857Y-122112476D01*
X280752619Y-122160095D01*
X280705000Y-122207714D01*
X280657380Y-122302952D01*
X280657380Y-122493428D01*
X280705000Y-122588666D01*
X280752619Y-122636285D01*
X280847857Y-122683904D01*
X280895476Y-122683904D01*
X280990714Y-122636285D01*
X281038333Y-122588666D01*
X281085952Y-122493428D01*
X281085952Y-122302952D01*
X281133571Y-122207714D01*
X281181190Y-122160095D01*
X281276428Y-122112476D01*
X281466904Y-122112476D01*
X281562142Y-122160095D01*
X281609761Y-122207714D01*
X281657380Y-122302952D01*
X281657380Y-122493428D01*
X281609761Y-122588666D01*
X281562142Y-122636285D01*
X281466904Y-122683904D01*
X281276428Y-122683904D01*
X281181190Y-122636285D01*
X281133571Y-122588666D01*
X281085952Y-122493428D01*
X305469880Y-120207714D02*
X304469880Y-120207714D01*
X304469880Y-120445809D01*
X304517500Y-120588666D01*
X304612738Y-120683904D01*
X304707976Y-120731523D01*
X304898452Y-120779142D01*
X305041309Y-120779142D01*
X305231785Y-120731523D01*
X305327023Y-120683904D01*
X305422261Y-120588666D01*
X305469880Y-120445809D01*
X305469880Y-120207714D01*
X304469880Y-121112476D02*
X304469880Y-121731523D01*
X304850833Y-121398190D01*
X304850833Y-121541047D01*
X304898452Y-121636285D01*
X304946071Y-121683904D01*
X305041309Y-121731523D01*
X305279404Y-121731523D01*
X305374642Y-121683904D01*
X305422261Y-121636285D01*
X305469880Y-121541047D01*
X305469880Y-121255333D01*
X305422261Y-121160095D01*
X305374642Y-121112476D01*
X305469880Y-122207714D02*
X305469880Y-122398190D01*
X305422261Y-122493428D01*
X305374642Y-122541047D01*
X305231785Y-122636285D01*
X305041309Y-122683904D01*
X304660357Y-122683904D01*
X304565119Y-122636285D01*
X304517500Y-122588666D01*
X304469880Y-122493428D01*
X304469880Y-122302952D01*
X304517500Y-122207714D01*
X304565119Y-122160095D01*
X304660357Y-122112476D01*
X304898452Y-122112476D01*
X304993690Y-122160095D01*
X305041309Y-122207714D01*
X305088928Y-122302952D01*
X305088928Y-122493428D01*
X305041309Y-122588666D01*
X304993690Y-122636285D01*
X304898452Y-122683904D01*
X329282380Y-120207714D02*
X328282380Y-120207714D01*
X328282380Y-120445809D01*
X328330000Y-120588666D01*
X328425238Y-120683904D01*
X328520476Y-120731523D01*
X328710952Y-120779142D01*
X328853809Y-120779142D01*
X329044285Y-120731523D01*
X329139523Y-120683904D01*
X329234761Y-120588666D01*
X329282380Y-120445809D01*
X329282380Y-120207714D01*
X328615714Y-121636285D02*
X329282380Y-121636285D01*
X328234761Y-121398190D02*
X328949047Y-121160095D01*
X328949047Y-121779142D01*
X328282380Y-122350571D02*
X328282380Y-122445809D01*
X328330000Y-122541047D01*
X328377619Y-122588666D01*
X328472857Y-122636285D01*
X328663333Y-122683904D01*
X328901428Y-122683904D01*
X329091904Y-122636285D01*
X329187142Y-122588666D01*
X329234761Y-122541047D01*
X329282380Y-122445809D01*
X329282380Y-122350571D01*
X329234761Y-122255333D01*
X329187142Y-122207714D01*
X329091904Y-122160095D01*
X328901428Y-122112476D01*
X328663333Y-122112476D01*
X328472857Y-122160095D01*
X328377619Y-122207714D01*
X328330000Y-122255333D01*
X328282380Y-122350571D01*
X50676130Y-139257714D02*
X49676130Y-139257714D01*
X49676130Y-139495809D01*
X49723750Y-139638666D01*
X49818988Y-139733904D01*
X49914226Y-139781523D01*
X50104702Y-139829142D01*
X50247559Y-139829142D01*
X50438035Y-139781523D01*
X50533273Y-139733904D01*
X50628511Y-139638666D01*
X50676130Y-139495809D01*
X50676130Y-139257714D01*
X50009464Y-140686285D02*
X50676130Y-140686285D01*
X49628511Y-140448190D02*
X50342797Y-140210095D01*
X50342797Y-140829142D01*
X50676130Y-141733904D02*
X50676130Y-141162476D01*
X50676130Y-141448190D02*
X49676130Y-141448190D01*
X49818988Y-141352952D01*
X49914226Y-141257714D01*
X49961845Y-141162476D01*
X76869880Y-139257714D02*
X75869880Y-139257714D01*
X75869880Y-139495809D01*
X75917500Y-139638666D01*
X76012738Y-139733904D01*
X76107976Y-139781523D01*
X76298452Y-139829142D01*
X76441309Y-139829142D01*
X76631785Y-139781523D01*
X76727023Y-139733904D01*
X76822261Y-139638666D01*
X76869880Y-139495809D01*
X76869880Y-139257714D01*
X76203214Y-140686285D02*
X76869880Y-140686285D01*
X75822261Y-140448190D02*
X76536547Y-140210095D01*
X76536547Y-140829142D01*
X75965119Y-141162476D02*
X75917500Y-141210095D01*
X75869880Y-141305333D01*
X75869880Y-141543428D01*
X75917500Y-141638666D01*
X75965119Y-141686285D01*
X76060357Y-141733904D01*
X76155595Y-141733904D01*
X76298452Y-141686285D01*
X76869880Y-141114857D01*
X76869880Y-141733904D01*
X95919880Y-139257714D02*
X94919880Y-139257714D01*
X94919880Y-139495809D01*
X94967500Y-139638666D01*
X95062738Y-139733904D01*
X95157976Y-139781523D01*
X95348452Y-139829142D01*
X95491309Y-139829142D01*
X95681785Y-139781523D01*
X95777023Y-139733904D01*
X95872261Y-139638666D01*
X95919880Y-139495809D01*
X95919880Y-139257714D01*
X95253214Y-140686285D02*
X95919880Y-140686285D01*
X94872261Y-140448190D02*
X95586547Y-140210095D01*
X95586547Y-140829142D01*
X94919880Y-141114857D02*
X94919880Y-141733904D01*
X95300833Y-141400571D01*
X95300833Y-141543428D01*
X95348452Y-141638666D01*
X95396071Y-141686285D01*
X95491309Y-141733904D01*
X95729404Y-141733904D01*
X95824642Y-141686285D01*
X95872261Y-141638666D01*
X95919880Y-141543428D01*
X95919880Y-141257714D01*
X95872261Y-141162476D01*
X95824642Y-141114857D01*
X114969880Y-139257714D02*
X113969880Y-139257714D01*
X113969880Y-139495809D01*
X114017500Y-139638666D01*
X114112738Y-139733904D01*
X114207976Y-139781523D01*
X114398452Y-139829142D01*
X114541309Y-139829142D01*
X114731785Y-139781523D01*
X114827023Y-139733904D01*
X114922261Y-139638666D01*
X114969880Y-139495809D01*
X114969880Y-139257714D01*
X114303214Y-140686285D02*
X114969880Y-140686285D01*
X113922261Y-140448190D02*
X114636547Y-140210095D01*
X114636547Y-140829142D01*
X114303214Y-141638666D02*
X114969880Y-141638666D01*
X113922261Y-141400571D02*
X114636547Y-141162476D01*
X114636547Y-141781523D01*
X134019880Y-139257714D02*
X133019880Y-139257714D01*
X133019880Y-139495809D01*
X133067500Y-139638666D01*
X133162738Y-139733904D01*
X133257976Y-139781523D01*
X133448452Y-139829142D01*
X133591309Y-139829142D01*
X133781785Y-139781523D01*
X133877023Y-139733904D01*
X133972261Y-139638666D01*
X134019880Y-139495809D01*
X134019880Y-139257714D01*
X133353214Y-140686285D02*
X134019880Y-140686285D01*
X132972261Y-140448190D02*
X133686547Y-140210095D01*
X133686547Y-140829142D01*
X133019880Y-141686285D02*
X133019880Y-141210095D01*
X133496071Y-141162476D01*
X133448452Y-141210095D01*
X133400833Y-141305333D01*
X133400833Y-141543428D01*
X133448452Y-141638666D01*
X133496071Y-141686285D01*
X133591309Y-141733904D01*
X133829404Y-141733904D01*
X133924642Y-141686285D01*
X133972261Y-141638666D01*
X134019880Y-141543428D01*
X134019880Y-141305333D01*
X133972261Y-141210095D01*
X133924642Y-141162476D01*
X153069880Y-139257714D02*
X152069880Y-139257714D01*
X152069880Y-139495809D01*
X152117500Y-139638666D01*
X152212738Y-139733904D01*
X152307976Y-139781523D01*
X152498452Y-139829142D01*
X152641309Y-139829142D01*
X152831785Y-139781523D01*
X152927023Y-139733904D01*
X153022261Y-139638666D01*
X153069880Y-139495809D01*
X153069880Y-139257714D01*
X152403214Y-140686285D02*
X153069880Y-140686285D01*
X152022261Y-140448190D02*
X152736547Y-140210095D01*
X152736547Y-140829142D01*
X152069880Y-141638666D02*
X152069880Y-141448190D01*
X152117500Y-141352952D01*
X152165119Y-141305333D01*
X152307976Y-141210095D01*
X152498452Y-141162476D01*
X152879404Y-141162476D01*
X152974642Y-141210095D01*
X153022261Y-141257714D01*
X153069880Y-141352952D01*
X153069880Y-141543428D01*
X153022261Y-141638666D01*
X152974642Y-141686285D01*
X152879404Y-141733904D01*
X152641309Y-141733904D01*
X152546071Y-141686285D01*
X152498452Y-141638666D01*
X152450833Y-141543428D01*
X152450833Y-141352952D01*
X152498452Y-141257714D01*
X152546071Y-141210095D01*
X152641309Y-141162476D01*
X172119880Y-139257714D02*
X171119880Y-139257714D01*
X171119880Y-139495809D01*
X171167500Y-139638666D01*
X171262738Y-139733904D01*
X171357976Y-139781523D01*
X171548452Y-139829142D01*
X171691309Y-139829142D01*
X171881785Y-139781523D01*
X171977023Y-139733904D01*
X172072261Y-139638666D01*
X172119880Y-139495809D01*
X172119880Y-139257714D01*
X171453214Y-140686285D02*
X172119880Y-140686285D01*
X171072261Y-140448190D02*
X171786547Y-140210095D01*
X171786547Y-140829142D01*
X171119880Y-141114857D02*
X171119880Y-141781523D01*
X172119880Y-141352952D01*
X191169880Y-139257714D02*
X190169880Y-139257714D01*
X190169880Y-139495809D01*
X190217500Y-139638666D01*
X190312738Y-139733904D01*
X190407976Y-139781523D01*
X190598452Y-139829142D01*
X190741309Y-139829142D01*
X190931785Y-139781523D01*
X191027023Y-139733904D01*
X191122261Y-139638666D01*
X191169880Y-139495809D01*
X191169880Y-139257714D01*
X190503214Y-140686285D02*
X191169880Y-140686285D01*
X190122261Y-140448190D02*
X190836547Y-140210095D01*
X190836547Y-140829142D01*
X190598452Y-141352952D02*
X190550833Y-141257714D01*
X190503214Y-141210095D01*
X190407976Y-141162476D01*
X190360357Y-141162476D01*
X190265119Y-141210095D01*
X190217500Y-141257714D01*
X190169880Y-141352952D01*
X190169880Y-141543428D01*
X190217500Y-141638666D01*
X190265119Y-141686285D01*
X190360357Y-141733904D01*
X190407976Y-141733904D01*
X190503214Y-141686285D01*
X190550833Y-141638666D01*
X190598452Y-141543428D01*
X190598452Y-141352952D01*
X190646071Y-141257714D01*
X190693690Y-141210095D01*
X190788928Y-141162476D01*
X190979404Y-141162476D01*
X191074642Y-141210095D01*
X191122261Y-141257714D01*
X191169880Y-141352952D01*
X191169880Y-141543428D01*
X191122261Y-141638666D01*
X191074642Y-141686285D01*
X190979404Y-141733904D01*
X190788928Y-141733904D01*
X190693690Y-141686285D01*
X190646071Y-141638666D01*
X190598452Y-141543428D01*
X210219880Y-139257714D02*
X209219880Y-139257714D01*
X209219880Y-139495809D01*
X209267500Y-139638666D01*
X209362738Y-139733904D01*
X209457976Y-139781523D01*
X209648452Y-139829142D01*
X209791309Y-139829142D01*
X209981785Y-139781523D01*
X210077023Y-139733904D01*
X210172261Y-139638666D01*
X210219880Y-139495809D01*
X210219880Y-139257714D01*
X209553214Y-140686285D02*
X210219880Y-140686285D01*
X209172261Y-140448190D02*
X209886547Y-140210095D01*
X209886547Y-140829142D01*
X210219880Y-141257714D02*
X210219880Y-141448190D01*
X210172261Y-141543428D01*
X210124642Y-141591047D01*
X209981785Y-141686285D01*
X209791309Y-141733904D01*
X209410357Y-141733904D01*
X209315119Y-141686285D01*
X209267500Y-141638666D01*
X209219880Y-141543428D01*
X209219880Y-141352952D01*
X209267500Y-141257714D01*
X209315119Y-141210095D01*
X209410357Y-141162476D01*
X209648452Y-141162476D01*
X209743690Y-141210095D01*
X209791309Y-141257714D01*
X209838928Y-141352952D01*
X209838928Y-141543428D01*
X209791309Y-141638666D01*
X209743690Y-141686285D01*
X209648452Y-141733904D01*
X229269880Y-139257714D02*
X228269880Y-139257714D01*
X228269880Y-139495809D01*
X228317500Y-139638666D01*
X228412738Y-139733904D01*
X228507976Y-139781523D01*
X228698452Y-139829142D01*
X228841309Y-139829142D01*
X229031785Y-139781523D01*
X229127023Y-139733904D01*
X229222261Y-139638666D01*
X229269880Y-139495809D01*
X229269880Y-139257714D01*
X228269880Y-140733904D02*
X228269880Y-140257714D01*
X228746071Y-140210095D01*
X228698452Y-140257714D01*
X228650833Y-140352952D01*
X228650833Y-140591047D01*
X228698452Y-140686285D01*
X228746071Y-140733904D01*
X228841309Y-140781523D01*
X229079404Y-140781523D01*
X229174642Y-140733904D01*
X229222261Y-140686285D01*
X229269880Y-140591047D01*
X229269880Y-140352952D01*
X229222261Y-140257714D01*
X229174642Y-140210095D01*
X228269880Y-141400571D02*
X228269880Y-141495809D01*
X228317500Y-141591047D01*
X228365119Y-141638666D01*
X228460357Y-141686285D01*
X228650833Y-141733904D01*
X228888928Y-141733904D01*
X229079404Y-141686285D01*
X229174642Y-141638666D01*
X229222261Y-141591047D01*
X229269880Y-141495809D01*
X229269880Y-141400571D01*
X229222261Y-141305333D01*
X229174642Y-141257714D01*
X229079404Y-141210095D01*
X228888928Y-141162476D01*
X228650833Y-141162476D01*
X228460357Y-141210095D01*
X228365119Y-141257714D01*
X228317500Y-141305333D01*
X228269880Y-141400571D01*
X248319880Y-139257714D02*
X247319880Y-139257714D01*
X247319880Y-139495809D01*
X247367500Y-139638666D01*
X247462738Y-139733904D01*
X247557976Y-139781523D01*
X247748452Y-139829142D01*
X247891309Y-139829142D01*
X248081785Y-139781523D01*
X248177023Y-139733904D01*
X248272261Y-139638666D01*
X248319880Y-139495809D01*
X248319880Y-139257714D01*
X247319880Y-140733904D02*
X247319880Y-140257714D01*
X247796071Y-140210095D01*
X247748452Y-140257714D01*
X247700833Y-140352952D01*
X247700833Y-140591047D01*
X247748452Y-140686285D01*
X247796071Y-140733904D01*
X247891309Y-140781523D01*
X248129404Y-140781523D01*
X248224642Y-140733904D01*
X248272261Y-140686285D01*
X248319880Y-140591047D01*
X248319880Y-140352952D01*
X248272261Y-140257714D01*
X248224642Y-140210095D01*
X248319880Y-141733904D02*
X248319880Y-141162476D01*
X248319880Y-141448190D02*
X247319880Y-141448190D01*
X247462738Y-141352952D01*
X247557976Y-141257714D01*
X247605595Y-141162476D01*
X267369880Y-139257714D02*
X266369880Y-139257714D01*
X266369880Y-139495809D01*
X266417500Y-139638666D01*
X266512738Y-139733904D01*
X266607976Y-139781523D01*
X266798452Y-139829142D01*
X266941309Y-139829142D01*
X267131785Y-139781523D01*
X267227023Y-139733904D01*
X267322261Y-139638666D01*
X267369880Y-139495809D01*
X267369880Y-139257714D01*
X266369880Y-140733904D02*
X266369880Y-140257714D01*
X266846071Y-140210095D01*
X266798452Y-140257714D01*
X266750833Y-140352952D01*
X266750833Y-140591047D01*
X266798452Y-140686285D01*
X266846071Y-140733904D01*
X266941309Y-140781523D01*
X267179404Y-140781523D01*
X267274642Y-140733904D01*
X267322261Y-140686285D01*
X267369880Y-140591047D01*
X267369880Y-140352952D01*
X267322261Y-140257714D01*
X267274642Y-140210095D01*
X266465119Y-141162476D02*
X266417500Y-141210095D01*
X266369880Y-141305333D01*
X266369880Y-141543428D01*
X266417500Y-141638666D01*
X266465119Y-141686285D01*
X266560357Y-141733904D01*
X266655595Y-141733904D01*
X266798452Y-141686285D01*
X267369880Y-141114857D01*
X267369880Y-141733904D01*
X298326130Y-139257714D02*
X297326130Y-139257714D01*
X297326130Y-139495809D01*
X297373750Y-139638666D01*
X297468988Y-139733904D01*
X297564226Y-139781523D01*
X297754702Y-139829142D01*
X297897559Y-139829142D01*
X298088035Y-139781523D01*
X298183273Y-139733904D01*
X298278511Y-139638666D01*
X298326130Y-139495809D01*
X298326130Y-139257714D01*
X297326130Y-140733904D02*
X297326130Y-140257714D01*
X297802321Y-140210095D01*
X297754702Y-140257714D01*
X297707083Y-140352952D01*
X297707083Y-140591047D01*
X297754702Y-140686285D01*
X297802321Y-140733904D01*
X297897559Y-140781523D01*
X298135654Y-140781523D01*
X298230892Y-140733904D01*
X298278511Y-140686285D01*
X298326130Y-140591047D01*
X298326130Y-140352952D01*
X298278511Y-140257714D01*
X298230892Y-140210095D01*
X297326130Y-141114857D02*
X297326130Y-141733904D01*
X297707083Y-141400571D01*
X297707083Y-141543428D01*
X297754702Y-141638666D01*
X297802321Y-141686285D01*
X297897559Y-141733904D01*
X298135654Y-141733904D01*
X298230892Y-141686285D01*
X298278511Y-141638666D01*
X298326130Y-141543428D01*
X298326130Y-141257714D01*
X298278511Y-141162476D01*
X298230892Y-141114857D01*
X329282380Y-139257714D02*
X328282380Y-139257714D01*
X328282380Y-139495809D01*
X328330000Y-139638666D01*
X328425238Y-139733904D01*
X328520476Y-139781523D01*
X328710952Y-139829142D01*
X328853809Y-139829142D01*
X329044285Y-139781523D01*
X329139523Y-139733904D01*
X329234761Y-139638666D01*
X329282380Y-139495809D01*
X329282380Y-139257714D01*
X328282380Y-140733904D02*
X328282380Y-140257714D01*
X328758571Y-140210095D01*
X328710952Y-140257714D01*
X328663333Y-140352952D01*
X328663333Y-140591047D01*
X328710952Y-140686285D01*
X328758571Y-140733904D01*
X328853809Y-140781523D01*
X329091904Y-140781523D01*
X329187142Y-140733904D01*
X329234761Y-140686285D01*
X329282380Y-140591047D01*
X329282380Y-140352952D01*
X329234761Y-140257714D01*
X329187142Y-140210095D01*
X328615714Y-141638666D02*
X329282380Y-141638666D01*
X328234761Y-141400571D02*
X328949047Y-141162476D01*
X328949047Y-141781523D01*
X55438630Y-158307714D02*
X54438630Y-158307714D01*
X54438630Y-158545809D01*
X54486250Y-158688666D01*
X54581488Y-158783904D01*
X54676726Y-158831523D01*
X54867202Y-158879142D01*
X55010059Y-158879142D01*
X55200535Y-158831523D01*
X55295773Y-158783904D01*
X55391011Y-158688666D01*
X55438630Y-158545809D01*
X55438630Y-158307714D01*
X54438630Y-159783904D02*
X54438630Y-159307714D01*
X54914821Y-159260095D01*
X54867202Y-159307714D01*
X54819583Y-159402952D01*
X54819583Y-159641047D01*
X54867202Y-159736285D01*
X54914821Y-159783904D01*
X55010059Y-159831523D01*
X55248154Y-159831523D01*
X55343392Y-159783904D01*
X55391011Y-159736285D01*
X55438630Y-159641047D01*
X55438630Y-159402952D01*
X55391011Y-159307714D01*
X55343392Y-159260095D01*
X54438630Y-160736285D02*
X54438630Y-160260095D01*
X54914821Y-160212476D01*
X54867202Y-160260095D01*
X54819583Y-160355333D01*
X54819583Y-160593428D01*
X54867202Y-160688666D01*
X54914821Y-160736285D01*
X55010059Y-160783904D01*
X55248154Y-160783904D01*
X55343392Y-160736285D01*
X55391011Y-160688666D01*
X55438630Y-160593428D01*
X55438630Y-160355333D01*
X55391011Y-160260095D01*
X55343392Y-160212476D01*
X86394880Y-158307714D02*
X85394880Y-158307714D01*
X85394880Y-158545809D01*
X85442500Y-158688666D01*
X85537738Y-158783904D01*
X85632976Y-158831523D01*
X85823452Y-158879142D01*
X85966309Y-158879142D01*
X86156785Y-158831523D01*
X86252023Y-158783904D01*
X86347261Y-158688666D01*
X86394880Y-158545809D01*
X86394880Y-158307714D01*
X85394880Y-159783904D02*
X85394880Y-159307714D01*
X85871071Y-159260095D01*
X85823452Y-159307714D01*
X85775833Y-159402952D01*
X85775833Y-159641047D01*
X85823452Y-159736285D01*
X85871071Y-159783904D01*
X85966309Y-159831523D01*
X86204404Y-159831523D01*
X86299642Y-159783904D01*
X86347261Y-159736285D01*
X86394880Y-159641047D01*
X86394880Y-159402952D01*
X86347261Y-159307714D01*
X86299642Y-159260095D01*
X85394880Y-160688666D02*
X85394880Y-160498190D01*
X85442500Y-160402952D01*
X85490119Y-160355333D01*
X85632976Y-160260095D01*
X85823452Y-160212476D01*
X86204404Y-160212476D01*
X86299642Y-160260095D01*
X86347261Y-160307714D01*
X86394880Y-160402952D01*
X86394880Y-160593428D01*
X86347261Y-160688666D01*
X86299642Y-160736285D01*
X86204404Y-160783904D01*
X85966309Y-160783904D01*
X85871071Y-160736285D01*
X85823452Y-160688666D01*
X85775833Y-160593428D01*
X85775833Y-160402952D01*
X85823452Y-160307714D01*
X85871071Y-160260095D01*
X85966309Y-160212476D01*
X105444880Y-158307714D02*
X104444880Y-158307714D01*
X104444880Y-158545809D01*
X104492500Y-158688666D01*
X104587738Y-158783904D01*
X104682976Y-158831523D01*
X104873452Y-158879142D01*
X105016309Y-158879142D01*
X105206785Y-158831523D01*
X105302023Y-158783904D01*
X105397261Y-158688666D01*
X105444880Y-158545809D01*
X105444880Y-158307714D01*
X104444880Y-159783904D02*
X104444880Y-159307714D01*
X104921071Y-159260095D01*
X104873452Y-159307714D01*
X104825833Y-159402952D01*
X104825833Y-159641047D01*
X104873452Y-159736285D01*
X104921071Y-159783904D01*
X105016309Y-159831523D01*
X105254404Y-159831523D01*
X105349642Y-159783904D01*
X105397261Y-159736285D01*
X105444880Y-159641047D01*
X105444880Y-159402952D01*
X105397261Y-159307714D01*
X105349642Y-159260095D01*
X104444880Y-160164857D02*
X104444880Y-160831523D01*
X105444880Y-160402952D01*
X124494880Y-158307714D02*
X123494880Y-158307714D01*
X123494880Y-158545809D01*
X123542500Y-158688666D01*
X123637738Y-158783904D01*
X123732976Y-158831523D01*
X123923452Y-158879142D01*
X124066309Y-158879142D01*
X124256785Y-158831523D01*
X124352023Y-158783904D01*
X124447261Y-158688666D01*
X124494880Y-158545809D01*
X124494880Y-158307714D01*
X123494880Y-159783904D02*
X123494880Y-159307714D01*
X123971071Y-159260095D01*
X123923452Y-159307714D01*
X123875833Y-159402952D01*
X123875833Y-159641047D01*
X123923452Y-159736285D01*
X123971071Y-159783904D01*
X124066309Y-159831523D01*
X124304404Y-159831523D01*
X124399642Y-159783904D01*
X124447261Y-159736285D01*
X124494880Y-159641047D01*
X124494880Y-159402952D01*
X124447261Y-159307714D01*
X124399642Y-159260095D01*
X123923452Y-160402952D02*
X123875833Y-160307714D01*
X123828214Y-160260095D01*
X123732976Y-160212476D01*
X123685357Y-160212476D01*
X123590119Y-160260095D01*
X123542500Y-160307714D01*
X123494880Y-160402952D01*
X123494880Y-160593428D01*
X123542500Y-160688666D01*
X123590119Y-160736285D01*
X123685357Y-160783904D01*
X123732976Y-160783904D01*
X123828214Y-160736285D01*
X123875833Y-160688666D01*
X123923452Y-160593428D01*
X123923452Y-160402952D01*
X123971071Y-160307714D01*
X124018690Y-160260095D01*
X124113928Y-160212476D01*
X124304404Y-160212476D01*
X124399642Y-160260095D01*
X124447261Y-160307714D01*
X124494880Y-160402952D01*
X124494880Y-160593428D01*
X124447261Y-160688666D01*
X124399642Y-160736285D01*
X124304404Y-160783904D01*
X124113928Y-160783904D01*
X124018690Y-160736285D01*
X123971071Y-160688666D01*
X123923452Y-160593428D01*
X143544880Y-158307714D02*
X142544880Y-158307714D01*
X142544880Y-158545809D01*
X142592500Y-158688666D01*
X142687738Y-158783904D01*
X142782976Y-158831523D01*
X142973452Y-158879142D01*
X143116309Y-158879142D01*
X143306785Y-158831523D01*
X143402023Y-158783904D01*
X143497261Y-158688666D01*
X143544880Y-158545809D01*
X143544880Y-158307714D01*
X142544880Y-159783904D02*
X142544880Y-159307714D01*
X143021071Y-159260095D01*
X142973452Y-159307714D01*
X142925833Y-159402952D01*
X142925833Y-159641047D01*
X142973452Y-159736285D01*
X143021071Y-159783904D01*
X143116309Y-159831523D01*
X143354404Y-159831523D01*
X143449642Y-159783904D01*
X143497261Y-159736285D01*
X143544880Y-159641047D01*
X143544880Y-159402952D01*
X143497261Y-159307714D01*
X143449642Y-159260095D01*
X143544880Y-160307714D02*
X143544880Y-160498190D01*
X143497261Y-160593428D01*
X143449642Y-160641047D01*
X143306785Y-160736285D01*
X143116309Y-160783904D01*
X142735357Y-160783904D01*
X142640119Y-160736285D01*
X142592500Y-160688666D01*
X142544880Y-160593428D01*
X142544880Y-160402952D01*
X142592500Y-160307714D01*
X142640119Y-160260095D01*
X142735357Y-160212476D01*
X142973452Y-160212476D01*
X143068690Y-160260095D01*
X143116309Y-160307714D01*
X143163928Y-160402952D01*
X143163928Y-160593428D01*
X143116309Y-160688666D01*
X143068690Y-160736285D01*
X142973452Y-160783904D01*
X162594880Y-158307714D02*
X161594880Y-158307714D01*
X161594880Y-158545809D01*
X161642500Y-158688666D01*
X161737738Y-158783904D01*
X161832976Y-158831523D01*
X162023452Y-158879142D01*
X162166309Y-158879142D01*
X162356785Y-158831523D01*
X162452023Y-158783904D01*
X162547261Y-158688666D01*
X162594880Y-158545809D01*
X162594880Y-158307714D01*
X161594880Y-159736285D02*
X161594880Y-159545809D01*
X161642500Y-159450571D01*
X161690119Y-159402952D01*
X161832976Y-159307714D01*
X162023452Y-159260095D01*
X162404404Y-159260095D01*
X162499642Y-159307714D01*
X162547261Y-159355333D01*
X162594880Y-159450571D01*
X162594880Y-159641047D01*
X162547261Y-159736285D01*
X162499642Y-159783904D01*
X162404404Y-159831523D01*
X162166309Y-159831523D01*
X162071071Y-159783904D01*
X162023452Y-159736285D01*
X161975833Y-159641047D01*
X161975833Y-159450571D01*
X162023452Y-159355333D01*
X162071071Y-159307714D01*
X162166309Y-159260095D01*
X161594880Y-160450571D02*
X161594880Y-160545809D01*
X161642500Y-160641047D01*
X161690119Y-160688666D01*
X161785357Y-160736285D01*
X161975833Y-160783904D01*
X162213928Y-160783904D01*
X162404404Y-160736285D01*
X162499642Y-160688666D01*
X162547261Y-160641047D01*
X162594880Y-160545809D01*
X162594880Y-160450571D01*
X162547261Y-160355333D01*
X162499642Y-160307714D01*
X162404404Y-160260095D01*
X162213928Y-160212476D01*
X161975833Y-160212476D01*
X161785357Y-160260095D01*
X161690119Y-160307714D01*
X161642500Y-160355333D01*
X161594880Y-160450571D01*
X181644880Y-158307714D02*
X180644880Y-158307714D01*
X180644880Y-158545809D01*
X180692500Y-158688666D01*
X180787738Y-158783904D01*
X180882976Y-158831523D01*
X181073452Y-158879142D01*
X181216309Y-158879142D01*
X181406785Y-158831523D01*
X181502023Y-158783904D01*
X181597261Y-158688666D01*
X181644880Y-158545809D01*
X181644880Y-158307714D01*
X180644880Y-159736285D02*
X180644880Y-159545809D01*
X180692500Y-159450571D01*
X180740119Y-159402952D01*
X180882976Y-159307714D01*
X181073452Y-159260095D01*
X181454404Y-159260095D01*
X181549642Y-159307714D01*
X181597261Y-159355333D01*
X181644880Y-159450571D01*
X181644880Y-159641047D01*
X181597261Y-159736285D01*
X181549642Y-159783904D01*
X181454404Y-159831523D01*
X181216309Y-159831523D01*
X181121071Y-159783904D01*
X181073452Y-159736285D01*
X181025833Y-159641047D01*
X181025833Y-159450571D01*
X181073452Y-159355333D01*
X181121071Y-159307714D01*
X181216309Y-159260095D01*
X181644880Y-160783904D02*
X181644880Y-160212476D01*
X181644880Y-160498190D02*
X180644880Y-160498190D01*
X180787738Y-160402952D01*
X180882976Y-160307714D01*
X180930595Y-160212476D01*
X200694880Y-158307714D02*
X199694880Y-158307714D01*
X199694880Y-158545809D01*
X199742500Y-158688666D01*
X199837738Y-158783904D01*
X199932976Y-158831523D01*
X200123452Y-158879142D01*
X200266309Y-158879142D01*
X200456785Y-158831523D01*
X200552023Y-158783904D01*
X200647261Y-158688666D01*
X200694880Y-158545809D01*
X200694880Y-158307714D01*
X199694880Y-159736285D02*
X199694880Y-159545809D01*
X199742500Y-159450571D01*
X199790119Y-159402952D01*
X199932976Y-159307714D01*
X200123452Y-159260095D01*
X200504404Y-159260095D01*
X200599642Y-159307714D01*
X200647261Y-159355333D01*
X200694880Y-159450571D01*
X200694880Y-159641047D01*
X200647261Y-159736285D01*
X200599642Y-159783904D01*
X200504404Y-159831523D01*
X200266309Y-159831523D01*
X200171071Y-159783904D01*
X200123452Y-159736285D01*
X200075833Y-159641047D01*
X200075833Y-159450571D01*
X200123452Y-159355333D01*
X200171071Y-159307714D01*
X200266309Y-159260095D01*
X199790119Y-160212476D02*
X199742500Y-160260095D01*
X199694880Y-160355333D01*
X199694880Y-160593428D01*
X199742500Y-160688666D01*
X199790119Y-160736285D01*
X199885357Y-160783904D01*
X199980595Y-160783904D01*
X200123452Y-160736285D01*
X200694880Y-160164857D01*
X200694880Y-160783904D01*
X219744880Y-158307714D02*
X218744880Y-158307714D01*
X218744880Y-158545809D01*
X218792500Y-158688666D01*
X218887738Y-158783904D01*
X218982976Y-158831523D01*
X219173452Y-158879142D01*
X219316309Y-158879142D01*
X219506785Y-158831523D01*
X219602023Y-158783904D01*
X219697261Y-158688666D01*
X219744880Y-158545809D01*
X219744880Y-158307714D01*
X218744880Y-159736285D02*
X218744880Y-159545809D01*
X218792500Y-159450571D01*
X218840119Y-159402952D01*
X218982976Y-159307714D01*
X219173452Y-159260095D01*
X219554404Y-159260095D01*
X219649642Y-159307714D01*
X219697261Y-159355333D01*
X219744880Y-159450571D01*
X219744880Y-159641047D01*
X219697261Y-159736285D01*
X219649642Y-159783904D01*
X219554404Y-159831523D01*
X219316309Y-159831523D01*
X219221071Y-159783904D01*
X219173452Y-159736285D01*
X219125833Y-159641047D01*
X219125833Y-159450571D01*
X219173452Y-159355333D01*
X219221071Y-159307714D01*
X219316309Y-159260095D01*
X218744880Y-160164857D02*
X218744880Y-160783904D01*
X219125833Y-160450571D01*
X219125833Y-160593428D01*
X219173452Y-160688666D01*
X219221071Y-160736285D01*
X219316309Y-160783904D01*
X219554404Y-160783904D01*
X219649642Y-160736285D01*
X219697261Y-160688666D01*
X219744880Y-160593428D01*
X219744880Y-160307714D01*
X219697261Y-160212476D01*
X219649642Y-160164857D01*
X238794880Y-158307714D02*
X237794880Y-158307714D01*
X237794880Y-158545809D01*
X237842500Y-158688666D01*
X237937738Y-158783904D01*
X238032976Y-158831523D01*
X238223452Y-158879142D01*
X238366309Y-158879142D01*
X238556785Y-158831523D01*
X238652023Y-158783904D01*
X238747261Y-158688666D01*
X238794880Y-158545809D01*
X238794880Y-158307714D01*
X237794880Y-159736285D02*
X237794880Y-159545809D01*
X237842500Y-159450571D01*
X237890119Y-159402952D01*
X238032976Y-159307714D01*
X238223452Y-159260095D01*
X238604404Y-159260095D01*
X238699642Y-159307714D01*
X238747261Y-159355333D01*
X238794880Y-159450571D01*
X238794880Y-159641047D01*
X238747261Y-159736285D01*
X238699642Y-159783904D01*
X238604404Y-159831523D01*
X238366309Y-159831523D01*
X238271071Y-159783904D01*
X238223452Y-159736285D01*
X238175833Y-159641047D01*
X238175833Y-159450571D01*
X238223452Y-159355333D01*
X238271071Y-159307714D01*
X238366309Y-159260095D01*
X238128214Y-160688666D02*
X238794880Y-160688666D01*
X237747261Y-160450571D02*
X238461547Y-160212476D01*
X238461547Y-160831523D01*
X257844880Y-158307714D02*
X256844880Y-158307714D01*
X256844880Y-158545809D01*
X256892500Y-158688666D01*
X256987738Y-158783904D01*
X257082976Y-158831523D01*
X257273452Y-158879142D01*
X257416309Y-158879142D01*
X257606785Y-158831523D01*
X257702023Y-158783904D01*
X257797261Y-158688666D01*
X257844880Y-158545809D01*
X257844880Y-158307714D01*
X256844880Y-159736285D02*
X256844880Y-159545809D01*
X256892500Y-159450571D01*
X256940119Y-159402952D01*
X257082976Y-159307714D01*
X257273452Y-159260095D01*
X257654404Y-159260095D01*
X257749642Y-159307714D01*
X257797261Y-159355333D01*
X257844880Y-159450571D01*
X257844880Y-159641047D01*
X257797261Y-159736285D01*
X257749642Y-159783904D01*
X257654404Y-159831523D01*
X257416309Y-159831523D01*
X257321071Y-159783904D01*
X257273452Y-159736285D01*
X257225833Y-159641047D01*
X257225833Y-159450571D01*
X257273452Y-159355333D01*
X257321071Y-159307714D01*
X257416309Y-159260095D01*
X256844880Y-160736285D02*
X256844880Y-160260095D01*
X257321071Y-160212476D01*
X257273452Y-160260095D01*
X257225833Y-160355333D01*
X257225833Y-160593428D01*
X257273452Y-160688666D01*
X257321071Y-160736285D01*
X257416309Y-160783904D01*
X257654404Y-160783904D01*
X257749642Y-160736285D01*
X257797261Y-160688666D01*
X257844880Y-160593428D01*
X257844880Y-160355333D01*
X257797261Y-160260095D01*
X257749642Y-160212476D01*
X284038630Y-158307714D02*
X283038630Y-158307714D01*
X283038630Y-158545809D01*
X283086250Y-158688666D01*
X283181488Y-158783904D01*
X283276726Y-158831523D01*
X283467202Y-158879142D01*
X283610059Y-158879142D01*
X283800535Y-158831523D01*
X283895773Y-158783904D01*
X283991011Y-158688666D01*
X284038630Y-158545809D01*
X284038630Y-158307714D01*
X283038630Y-159736285D02*
X283038630Y-159545809D01*
X283086250Y-159450571D01*
X283133869Y-159402952D01*
X283276726Y-159307714D01*
X283467202Y-159260095D01*
X283848154Y-159260095D01*
X283943392Y-159307714D01*
X283991011Y-159355333D01*
X284038630Y-159450571D01*
X284038630Y-159641047D01*
X283991011Y-159736285D01*
X283943392Y-159783904D01*
X283848154Y-159831523D01*
X283610059Y-159831523D01*
X283514821Y-159783904D01*
X283467202Y-159736285D01*
X283419583Y-159641047D01*
X283419583Y-159450571D01*
X283467202Y-159355333D01*
X283514821Y-159307714D01*
X283610059Y-159260095D01*
X283038630Y-160688666D02*
X283038630Y-160498190D01*
X283086250Y-160402952D01*
X283133869Y-160355333D01*
X283276726Y-160260095D01*
X283467202Y-160212476D01*
X283848154Y-160212476D01*
X283943392Y-160260095D01*
X283991011Y-160307714D01*
X284038630Y-160402952D01*
X284038630Y-160593428D01*
X283991011Y-160688666D01*
X283943392Y-160736285D01*
X283848154Y-160783904D01*
X283610059Y-160783904D01*
X283514821Y-160736285D01*
X283467202Y-160688666D01*
X283419583Y-160593428D01*
X283419583Y-160402952D01*
X283467202Y-160307714D01*
X283514821Y-160260095D01*
X283610059Y-160212476D01*
X310232380Y-158307714D02*
X309232380Y-158307714D01*
X309232380Y-158545809D01*
X309280000Y-158688666D01*
X309375238Y-158783904D01*
X309470476Y-158831523D01*
X309660952Y-158879142D01*
X309803809Y-158879142D01*
X309994285Y-158831523D01*
X310089523Y-158783904D01*
X310184761Y-158688666D01*
X310232380Y-158545809D01*
X310232380Y-158307714D01*
X309232380Y-159736285D02*
X309232380Y-159545809D01*
X309280000Y-159450571D01*
X309327619Y-159402952D01*
X309470476Y-159307714D01*
X309660952Y-159260095D01*
X310041904Y-159260095D01*
X310137142Y-159307714D01*
X310184761Y-159355333D01*
X310232380Y-159450571D01*
X310232380Y-159641047D01*
X310184761Y-159736285D01*
X310137142Y-159783904D01*
X310041904Y-159831523D01*
X309803809Y-159831523D01*
X309708571Y-159783904D01*
X309660952Y-159736285D01*
X309613333Y-159641047D01*
X309613333Y-159450571D01*
X309660952Y-159355333D01*
X309708571Y-159307714D01*
X309803809Y-159260095D01*
X309232380Y-160164857D02*
X309232380Y-160831523D01*
X310232380Y-160402952D01*
X329282380Y-158307714D02*
X328282380Y-158307714D01*
X328282380Y-158545809D01*
X328330000Y-158688666D01*
X328425238Y-158783904D01*
X328520476Y-158831523D01*
X328710952Y-158879142D01*
X328853809Y-158879142D01*
X329044285Y-158831523D01*
X329139523Y-158783904D01*
X329234761Y-158688666D01*
X329282380Y-158545809D01*
X329282380Y-158307714D01*
X328282380Y-159736285D02*
X328282380Y-159545809D01*
X328330000Y-159450571D01*
X328377619Y-159402952D01*
X328520476Y-159307714D01*
X328710952Y-159260095D01*
X329091904Y-159260095D01*
X329187142Y-159307714D01*
X329234761Y-159355333D01*
X329282380Y-159450571D01*
X329282380Y-159641047D01*
X329234761Y-159736285D01*
X329187142Y-159783904D01*
X329091904Y-159831523D01*
X328853809Y-159831523D01*
X328758571Y-159783904D01*
X328710952Y-159736285D01*
X328663333Y-159641047D01*
X328663333Y-159450571D01*
X328710952Y-159355333D01*
X328758571Y-159307714D01*
X328853809Y-159260095D01*
X328710952Y-160402952D02*
X328663333Y-160307714D01*
X328615714Y-160260095D01*
X328520476Y-160212476D01*
X328472857Y-160212476D01*
X328377619Y-160260095D01*
X328330000Y-160307714D01*
X328282380Y-160402952D01*
X328282380Y-160593428D01*
X328330000Y-160688666D01*
X328377619Y-160736285D01*
X328472857Y-160783904D01*
X328520476Y-160783904D01*
X328615714Y-160736285D01*
X328663333Y-160688666D01*
X328710952Y-160593428D01*
X328710952Y-160402952D01*
X328758571Y-160307714D01*
X328806190Y-160260095D01*
X328901428Y-160212476D01*
X329091904Y-160212476D01*
X329187142Y-160260095D01*
X329234761Y-160307714D01*
X329282380Y-160402952D01*
X329282380Y-160593428D01*
X329234761Y-160688666D01*
X329187142Y-160736285D01*
X329091904Y-160783904D01*
X328901428Y-160783904D01*
X328806190Y-160736285D01*
X328758571Y-160688666D01*
X328710952Y-160593428D01*
X45913630Y-177357714D02*
X44913630Y-177357714D01*
X44913630Y-177595809D01*
X44961250Y-177738666D01*
X45056488Y-177833904D01*
X45151726Y-177881523D01*
X45342202Y-177929142D01*
X45485059Y-177929142D01*
X45675535Y-177881523D01*
X45770773Y-177833904D01*
X45866011Y-177738666D01*
X45913630Y-177595809D01*
X45913630Y-177357714D01*
X44913630Y-178786285D02*
X44913630Y-178595809D01*
X44961250Y-178500571D01*
X45008869Y-178452952D01*
X45151726Y-178357714D01*
X45342202Y-178310095D01*
X45723154Y-178310095D01*
X45818392Y-178357714D01*
X45866011Y-178405333D01*
X45913630Y-178500571D01*
X45913630Y-178691047D01*
X45866011Y-178786285D01*
X45818392Y-178833904D01*
X45723154Y-178881523D01*
X45485059Y-178881523D01*
X45389821Y-178833904D01*
X45342202Y-178786285D01*
X45294583Y-178691047D01*
X45294583Y-178500571D01*
X45342202Y-178405333D01*
X45389821Y-178357714D01*
X45485059Y-178310095D01*
X45913630Y-179357714D02*
X45913630Y-179548190D01*
X45866011Y-179643428D01*
X45818392Y-179691047D01*
X45675535Y-179786285D01*
X45485059Y-179833904D01*
X45104107Y-179833904D01*
X45008869Y-179786285D01*
X44961250Y-179738666D01*
X44913630Y-179643428D01*
X44913630Y-179452952D01*
X44961250Y-179357714D01*
X45008869Y-179310095D01*
X45104107Y-179262476D01*
X45342202Y-179262476D01*
X45437440Y-179310095D01*
X45485059Y-179357714D01*
X45532678Y-179452952D01*
X45532678Y-179643428D01*
X45485059Y-179738666D01*
X45437440Y-179786285D01*
X45342202Y-179833904D01*
X67344880Y-177357714D02*
X66344880Y-177357714D01*
X66344880Y-177595809D01*
X66392500Y-177738666D01*
X66487738Y-177833904D01*
X66582976Y-177881523D01*
X66773452Y-177929142D01*
X66916309Y-177929142D01*
X67106785Y-177881523D01*
X67202023Y-177833904D01*
X67297261Y-177738666D01*
X67344880Y-177595809D01*
X67344880Y-177357714D01*
X66344880Y-178262476D02*
X66344880Y-178929142D01*
X67344880Y-178500571D01*
X66344880Y-179500571D02*
X66344880Y-179595809D01*
X66392500Y-179691047D01*
X66440119Y-179738666D01*
X66535357Y-179786285D01*
X66725833Y-179833904D01*
X66963928Y-179833904D01*
X67154404Y-179786285D01*
X67249642Y-179738666D01*
X67297261Y-179691047D01*
X67344880Y-179595809D01*
X67344880Y-179500571D01*
X67297261Y-179405333D01*
X67249642Y-179357714D01*
X67154404Y-179310095D01*
X66963928Y-179262476D01*
X66725833Y-179262476D01*
X66535357Y-179310095D01*
X66440119Y-179357714D01*
X66392500Y-179405333D01*
X66344880Y-179500571D01*
X88776130Y-177357714D02*
X87776130Y-177357714D01*
X87776130Y-177595809D01*
X87823750Y-177738666D01*
X87918988Y-177833904D01*
X88014226Y-177881523D01*
X88204702Y-177929142D01*
X88347559Y-177929142D01*
X88538035Y-177881523D01*
X88633273Y-177833904D01*
X88728511Y-177738666D01*
X88776130Y-177595809D01*
X88776130Y-177357714D01*
X87776130Y-178262476D02*
X87776130Y-178929142D01*
X88776130Y-178500571D01*
X88776130Y-179833904D02*
X88776130Y-179262476D01*
X88776130Y-179548190D02*
X87776130Y-179548190D01*
X87918988Y-179452952D01*
X88014226Y-179357714D01*
X88061845Y-179262476D01*
X167357380Y-177357714D02*
X166357380Y-177357714D01*
X166357380Y-177595809D01*
X166405000Y-177738666D01*
X166500238Y-177833904D01*
X166595476Y-177881523D01*
X166785952Y-177929142D01*
X166928809Y-177929142D01*
X167119285Y-177881523D01*
X167214523Y-177833904D01*
X167309761Y-177738666D01*
X167357380Y-177595809D01*
X167357380Y-177357714D01*
X166357380Y-178262476D02*
X166357380Y-178929142D01*
X167357380Y-178500571D01*
X166452619Y-179262476D02*
X166405000Y-179310095D01*
X166357380Y-179405333D01*
X166357380Y-179643428D01*
X166405000Y-179738666D01*
X166452619Y-179786285D01*
X166547857Y-179833904D01*
X166643095Y-179833904D01*
X166785952Y-179786285D01*
X167357380Y-179214857D01*
X167357380Y-179833904D01*
X245938630Y-177357714D02*
X244938630Y-177357714D01*
X244938630Y-177595809D01*
X244986250Y-177738666D01*
X245081488Y-177833904D01*
X245176726Y-177881523D01*
X245367202Y-177929142D01*
X245510059Y-177929142D01*
X245700535Y-177881523D01*
X245795773Y-177833904D01*
X245891011Y-177738666D01*
X245938630Y-177595809D01*
X245938630Y-177357714D01*
X244938630Y-178262476D02*
X244938630Y-178929142D01*
X245938630Y-178500571D01*
X244938630Y-179214857D02*
X244938630Y-179833904D01*
X245319583Y-179500571D01*
X245319583Y-179643428D01*
X245367202Y-179738666D01*
X245414821Y-179786285D01*
X245510059Y-179833904D01*
X245748154Y-179833904D01*
X245843392Y-179786285D01*
X245891011Y-179738666D01*
X245938630Y-179643428D01*
X245938630Y-179357714D01*
X245891011Y-179262476D01*
X245843392Y-179214857D01*
X269751130Y-177357714D02*
X268751130Y-177357714D01*
X268751130Y-177595809D01*
X268798750Y-177738666D01*
X268893988Y-177833904D01*
X268989226Y-177881523D01*
X269179702Y-177929142D01*
X269322559Y-177929142D01*
X269513035Y-177881523D01*
X269608273Y-177833904D01*
X269703511Y-177738666D01*
X269751130Y-177595809D01*
X269751130Y-177357714D01*
X268751130Y-178262476D02*
X268751130Y-178929142D01*
X269751130Y-178500571D01*
X269084464Y-179738666D02*
X269751130Y-179738666D01*
X268703511Y-179500571D02*
X269417797Y-179262476D01*
X269417797Y-179881523D01*
X291182380Y-177357714D02*
X290182380Y-177357714D01*
X290182380Y-177595809D01*
X290230000Y-177738666D01*
X290325238Y-177833904D01*
X290420476Y-177881523D01*
X290610952Y-177929142D01*
X290753809Y-177929142D01*
X290944285Y-177881523D01*
X291039523Y-177833904D01*
X291134761Y-177738666D01*
X291182380Y-177595809D01*
X291182380Y-177357714D01*
X290182380Y-178262476D02*
X290182380Y-178929142D01*
X291182380Y-178500571D01*
X290182380Y-179786285D02*
X290182380Y-179310095D01*
X290658571Y-179262476D01*
X290610952Y-179310095D01*
X290563333Y-179405333D01*
X290563333Y-179643428D01*
X290610952Y-179738666D01*
X290658571Y-179786285D01*
X290753809Y-179833904D01*
X290991904Y-179833904D01*
X291087142Y-179786285D01*
X291134761Y-179738666D01*
X291182380Y-179643428D01*
X291182380Y-179405333D01*
X291134761Y-179310095D01*
X291087142Y-179262476D01*
X310232380Y-177357714D02*
X309232380Y-177357714D01*
X309232380Y-177595809D01*
X309280000Y-177738666D01*
X309375238Y-177833904D01*
X309470476Y-177881523D01*
X309660952Y-177929142D01*
X309803809Y-177929142D01*
X309994285Y-177881523D01*
X310089523Y-177833904D01*
X310184761Y-177738666D01*
X310232380Y-177595809D01*
X310232380Y-177357714D01*
X309232380Y-178262476D02*
X309232380Y-178929142D01*
X310232380Y-178500571D01*
X309232380Y-179738666D02*
X309232380Y-179548190D01*
X309280000Y-179452952D01*
X309327619Y-179405333D01*
X309470476Y-179310095D01*
X309660952Y-179262476D01*
X310041904Y-179262476D01*
X310137142Y-179310095D01*
X310184761Y-179357714D01*
X310232380Y-179452952D01*
X310232380Y-179643428D01*
X310184761Y-179738666D01*
X310137142Y-179786285D01*
X310041904Y-179833904D01*
X309803809Y-179833904D01*
X309708571Y-179786285D01*
X309660952Y-179738666D01*
X309613333Y-179643428D01*
X309613333Y-179452952D01*
X309660952Y-179357714D01*
X309708571Y-179310095D01*
X309803809Y-179262476D01*
X329282380Y-177357714D02*
X328282380Y-177357714D01*
X328282380Y-177595809D01*
X328330000Y-177738666D01*
X328425238Y-177833904D01*
X328520476Y-177881523D01*
X328710952Y-177929142D01*
X328853809Y-177929142D01*
X329044285Y-177881523D01*
X329139523Y-177833904D01*
X329234761Y-177738666D01*
X329282380Y-177595809D01*
X329282380Y-177357714D01*
X328282380Y-178262476D02*
X328282380Y-178929142D01*
X329282380Y-178500571D01*
X328282380Y-179214857D02*
X328282380Y-179881523D01*
X329282380Y-179452952D01*
X319852380Y-68938095D02*
X320661904Y-68938095D01*
X320757142Y-68985714D01*
X320804761Y-69033333D01*
X320852380Y-69128571D01*
X320852380Y-69319047D01*
X320804761Y-69414285D01*
X320757142Y-69461904D01*
X320661904Y-69509523D01*
X319852380Y-69509523D01*
X320852380Y-70509523D02*
X320852380Y-69938095D01*
X320852380Y-70223809D02*
X319852380Y-70223809D01*
X319995238Y-70128571D01*
X320090476Y-70033333D01*
X320138095Y-69938095D01*
X286066666Y-71257142D02*
X286114285Y-71304761D01*
X286257142Y-71352380D01*
X286352380Y-71352380D01*
X286495238Y-71304761D01*
X286590476Y-71209523D01*
X286638095Y-71114285D01*
X286685714Y-70923809D01*
X286685714Y-70780952D01*
X286638095Y-70590476D01*
X286590476Y-70495238D01*
X286495238Y-70400000D01*
X286352380Y-70352380D01*
X286257142Y-70352380D01*
X286114285Y-70400000D01*
X286066666Y-70447619D01*
X285114285Y-71352380D02*
X285685714Y-71352380D01*
X285400000Y-71352380D02*
X285400000Y-70352380D01*
X285495238Y-70495238D01*
X285590476Y-70590476D01*
X285685714Y-70638095D01*
X328241285Y-60547380D02*
X328241285Y-59547380D01*
X328003190Y-59547380D01*
X327860333Y-59595000D01*
X327765095Y-59690238D01*
X327717476Y-59785476D01*
X327669857Y-59975952D01*
X327669857Y-60118809D01*
X327717476Y-60309285D01*
X327765095Y-60404523D01*
X327860333Y-60499761D01*
X328003190Y-60547380D01*
X328241285Y-60547380D01*
X327336523Y-59547380D02*
X326669857Y-59547380D01*
X327098428Y-60547380D01*
X326146047Y-59975952D02*
X326241285Y-59928333D01*
X326288904Y-59880714D01*
X326336523Y-59785476D01*
X326336523Y-59737857D01*
X326288904Y-59642619D01*
X326241285Y-59595000D01*
X326146047Y-59547380D01*
X325955571Y-59547380D01*
X325860333Y-59595000D01*
X325812714Y-59642619D01*
X325765095Y-59737857D01*
X325765095Y-59785476D01*
X325812714Y-59880714D01*
X325860333Y-59928333D01*
X325955571Y-59975952D01*
X326146047Y-59975952D01*
X326241285Y-60023571D01*
X326288904Y-60071190D01*
X326336523Y-60166428D01*
X326336523Y-60356904D01*
X326288904Y-60452142D01*
X326241285Y-60499761D01*
X326146047Y-60547380D01*
X325955571Y-60547380D01*
X325860333Y-60499761D01*
X325812714Y-60452142D01*
X325765095Y-60356904D01*
X325765095Y-60166428D01*
X325812714Y-60071190D01*
X325860333Y-60023571D01*
X325955571Y-59975952D01*
X335752380Y-77466666D02*
X336466666Y-77466666D01*
X336609523Y-77419047D01*
X336704761Y-77323809D01*
X336752380Y-77180952D01*
X336752380Y-77085714D01*
X336752380Y-77942857D02*
X335752380Y-77942857D01*
X335752380Y-78323809D01*
X335800000Y-78419047D01*
X335847619Y-78466666D01*
X335942857Y-78514285D01*
X336085714Y-78514285D01*
X336180952Y-78466666D01*
X336228571Y-78419047D01*
X336276190Y-78323809D01*
X336276190Y-77942857D01*
X336752380Y-79466666D02*
X336752380Y-78895238D01*
X336752380Y-79180952D02*
X335752380Y-79180952D01*
X335895238Y-79085714D01*
X335990476Y-78990476D01*
X336038095Y-78895238D01*
X334452380Y-77466666D02*
X335166666Y-77466666D01*
X335309523Y-77419047D01*
X335404761Y-77323809D01*
X335452380Y-77180952D01*
X335452380Y-77085714D01*
X335452380Y-77942857D02*
X334452380Y-77942857D01*
X334452380Y-78323809D01*
X334500000Y-78419047D01*
X334547619Y-78466666D01*
X334642857Y-78514285D01*
X334785714Y-78514285D01*
X334880952Y-78466666D01*
X334928571Y-78419047D01*
X334976190Y-78323809D01*
X334976190Y-77942857D01*
X334547619Y-78895238D02*
X334500000Y-78942857D01*
X334452380Y-79038095D01*
X334452380Y-79276190D01*
X334500000Y-79371428D01*
X334547619Y-79419047D01*
X334642857Y-79466666D01*
X334738095Y-79466666D01*
X334880952Y-79419047D01*
X335452380Y-78847619D01*
X335452380Y-79466666D01*
X333152380Y-77466666D02*
X333866666Y-77466666D01*
X334009523Y-77419047D01*
X334104761Y-77323809D01*
X334152380Y-77180952D01*
X334152380Y-77085714D01*
X334152380Y-77942857D02*
X333152380Y-77942857D01*
X333152380Y-78323809D01*
X333200000Y-78419047D01*
X333247619Y-78466666D01*
X333342857Y-78514285D01*
X333485714Y-78514285D01*
X333580952Y-78466666D01*
X333628571Y-78419047D01*
X333676190Y-78323809D01*
X333676190Y-77942857D01*
X333152380Y-78847619D02*
X333152380Y-79466666D01*
X333533333Y-79133333D01*
X333533333Y-79276190D01*
X333580952Y-79371428D01*
X333628571Y-79419047D01*
X333723809Y-79466666D01*
X333961904Y-79466666D01*
X334057142Y-79419047D01*
X334104761Y-79371428D01*
X334152380Y-79276190D01*
X334152380Y-78990476D01*
X334104761Y-78895238D01*
X334057142Y-78847619D01*
X331952380Y-84133333D02*
X331476190Y-83800000D01*
X331952380Y-83561904D02*
X330952380Y-83561904D01*
X330952380Y-83942857D01*
X331000000Y-84038095D01*
X331047619Y-84085714D01*
X331142857Y-84133333D01*
X331285714Y-84133333D01*
X331380952Y-84085714D01*
X331428571Y-84038095D01*
X331476190Y-83942857D01*
X331476190Y-83561904D01*
X331952380Y-85085714D02*
X331952380Y-84514285D01*
X331952380Y-84800000D02*
X330952380Y-84800000D01*
X331095238Y-84704761D01*
X331190476Y-84609523D01*
X331238095Y-84514285D01*
X329352380Y-84133333D02*
X328876190Y-83800000D01*
X329352380Y-83561904D02*
X328352380Y-83561904D01*
X328352380Y-83942857D01*
X328400000Y-84038095D01*
X328447619Y-84085714D01*
X328542857Y-84133333D01*
X328685714Y-84133333D01*
X328780952Y-84085714D01*
X328828571Y-84038095D01*
X328876190Y-83942857D01*
X328876190Y-83561904D01*
X328447619Y-84514285D02*
X328400000Y-84561904D01*
X328352380Y-84657142D01*
X328352380Y-84895238D01*
X328400000Y-84990476D01*
X328447619Y-85038095D01*
X328542857Y-85085714D01*
X328638095Y-85085714D01*
X328780952Y-85038095D01*
X329352380Y-84466666D01*
X329352380Y-85085714D01*
X326752380Y-84133333D02*
X326276190Y-83800000D01*
X326752380Y-83561904D02*
X325752380Y-83561904D01*
X325752380Y-83942857D01*
X325800000Y-84038095D01*
X325847619Y-84085714D01*
X325942857Y-84133333D01*
X326085714Y-84133333D01*
X326180952Y-84085714D01*
X326228571Y-84038095D01*
X326276190Y-83942857D01*
X326276190Y-83561904D01*
X325752380Y-84466666D02*
X325752380Y-85085714D01*
X326133333Y-84752380D01*
X326133333Y-84895238D01*
X326180952Y-84990476D01*
X326228571Y-85038095D01*
X326323809Y-85085714D01*
X326561904Y-85085714D01*
X326657142Y-85038095D01*
X326704761Y-84990476D01*
X326752380Y-84895238D01*
X326752380Y-84609523D01*
X326704761Y-84514285D01*
X326657142Y-84466666D01*
X287333333Y-61252380D02*
X287333333Y-61966666D01*
X287380952Y-62109523D01*
X287476190Y-62204761D01*
X287619047Y-62252380D01*
X287714285Y-62252380D01*
X286904761Y-61347619D02*
X286857142Y-61300000D01*
X286761904Y-61252380D01*
X286523809Y-61252380D01*
X286428571Y-61300000D01*
X286380952Y-61347619D01*
X286333333Y-61442857D01*
X286333333Y-61538095D01*
X286380952Y-61680952D01*
X286952380Y-62252380D01*
X286333333Y-62252380D01*
%LPC*%
D12*
X294800000Y-63150000D03*
X297340000Y-63150000D03*
X299880000Y-63150000D03*
X302420000Y-63150000D03*
X304960000Y-63150000D03*
X307500000Y-63150000D03*
X310040000Y-63150000D03*
X312580000Y-63150000D03*
X315120000Y-63150000D03*
X317660000Y-63150000D03*
X320200000Y-63150000D03*
X320200000Y-75850000D03*
X317660000Y-75850000D03*
X315120000Y-75850000D03*
X312580000Y-75850000D03*
X310040000Y-75850000D03*
X307500000Y-75850000D03*
X304960000Y-75850000D03*
X302420000Y-75850000D03*
X299880000Y-75850000D03*
X297340000Y-75850000D03*
X294800000Y-75850000D03*
D13*
X314060000Y-91435000D03*
X290260000Y-91435000D03*
D14*
X290260000Y-106675000D03*
X314060000Y-106675000D03*
D15*
X307240000Y-98435000D03*
X297080000Y-98435000D03*
D14*
X302160000Y-98435000D03*
D16*
X298350000Y-95895000D03*
X304700000Y-93355000D03*
D13*
X311678750Y-129535000D03*
X287878750Y-129535000D03*
D14*
X287878750Y-144775000D03*
X311678750Y-144775000D03*
D15*
X304858750Y-136535000D03*
X294698750Y-136535000D03*
D14*
X299778750Y-136535000D03*
D16*
X295968750Y-133995000D03*
X302318750Y-131455000D03*
D13*
X68791250Y-148585000D03*
X44991250Y-148585000D03*
D14*
X44991250Y-163825000D03*
X68791250Y-163825000D03*
D15*
X61971250Y-155585000D03*
X51811250Y-155585000D03*
D14*
X56891250Y-155585000D03*
D16*
X53081250Y-153045000D03*
X59431250Y-150505000D03*
D15*
X312002500Y-117485000D03*
X301842500Y-117485000D03*
D14*
X306922500Y-117485000D03*
D16*
X303112500Y-114945000D03*
X309462500Y-112405000D03*
D15*
X54827500Y-117485000D03*
X44667500Y-117485000D03*
D14*
X49747500Y-117485000D03*
D16*
X45937500Y-114945000D03*
X52287500Y-112405000D03*
D15*
X290571250Y-155585000D03*
X280411250Y-155585000D03*
D14*
X285491250Y-155585000D03*
D16*
X281681250Y-153045000D03*
X288031250Y-150505000D03*
D15*
X57208750Y-136535000D03*
X47048750Y-136535000D03*
D14*
X52128750Y-136535000D03*
D16*
X48318750Y-133995000D03*
X54668750Y-131455000D03*
D15*
X52446250Y-174635000D03*
X42286250Y-174635000D03*
D14*
X47366250Y-174635000D03*
D16*
X43556250Y-172095000D03*
X49906250Y-169555000D03*
D15*
X95308750Y-174635000D03*
X85148750Y-174635000D03*
D14*
X90228750Y-174635000D03*
D16*
X86418750Y-172095000D03*
X92768750Y-169555000D03*
D15*
X252471250Y-174635000D03*
X242311250Y-174635000D03*
D14*
X247391250Y-174635000D03*
D16*
X243581250Y-172095000D03*
X249931250Y-169555000D03*
D15*
X276283750Y-174635000D03*
X266123750Y-174635000D03*
D14*
X271203750Y-174635000D03*
D16*
X267393750Y-172095000D03*
X273743750Y-169555000D03*
D15*
X169127500Y-155585000D03*
X158967500Y-155585000D03*
D14*
X164047500Y-155585000D03*
D16*
X160237500Y-153045000D03*
X166587500Y-150505000D03*
D15*
X116740000Y-69860000D03*
X106580000Y-69860000D03*
D14*
X111660000Y-69860000D03*
D16*
X107850000Y-67320000D03*
X114200000Y-64780000D03*
D15*
X50065000Y-69860000D03*
X39905000Y-69860000D03*
D14*
X44985000Y-69860000D03*
D16*
X41175000Y-67320000D03*
X47525000Y-64780000D03*
D15*
X335815000Y-174635000D03*
X325655000Y-174635000D03*
D14*
X330735000Y-174635000D03*
D16*
X326925000Y-172095000D03*
X333275000Y-169555000D03*
D15*
X316765000Y-155585000D03*
X306605000Y-155585000D03*
D14*
X311685000Y-155585000D03*
D16*
X307875000Y-153045000D03*
X314225000Y-150505000D03*
D15*
X178652500Y-136535000D03*
X168492500Y-136535000D03*
D14*
X173572500Y-136535000D03*
D16*
X169762500Y-133995000D03*
X176112500Y-131455000D03*
D15*
X188177500Y-155585000D03*
X178017500Y-155585000D03*
D14*
X183097500Y-155585000D03*
D16*
X179287500Y-153045000D03*
X185637500Y-150505000D03*
D15*
X111977500Y-155585000D03*
X101817500Y-155585000D03*
D14*
X106897500Y-155585000D03*
D16*
X103087500Y-153045000D03*
X109437500Y-150505000D03*
D15*
X102452500Y-136535000D03*
X92292500Y-136535000D03*
D14*
X97372500Y-136535000D03*
D16*
X93562500Y-133995000D03*
X99912500Y-131455000D03*
D15*
X78640000Y-69860000D03*
X68480000Y-69860000D03*
D14*
X73560000Y-69860000D03*
D16*
X69750000Y-67320000D03*
X76100000Y-64780000D03*
D15*
X97690000Y-69860000D03*
X87530000Y-69860000D03*
D14*
X92610000Y-69860000D03*
D16*
X88800000Y-67320000D03*
X95150000Y-64780000D03*
D15*
X135790000Y-69860000D03*
X125630000Y-69860000D03*
D14*
X130710000Y-69860000D03*
D16*
X126900000Y-67320000D03*
X133250000Y-64780000D03*
D15*
X164365000Y-69860000D03*
X154205000Y-69860000D03*
D14*
X159285000Y-69860000D03*
D16*
X155475000Y-67320000D03*
X161825000Y-64780000D03*
D15*
X183415000Y-69860000D03*
X173255000Y-69860000D03*
D14*
X178335000Y-69860000D03*
D16*
X174525000Y-67320000D03*
X180875000Y-64780000D03*
D15*
X202465000Y-69860000D03*
X192305000Y-69860000D03*
D14*
X197385000Y-69860000D03*
D16*
X193575000Y-67320000D03*
X199925000Y-64780000D03*
D15*
X221515000Y-69860000D03*
X211355000Y-69860000D03*
D14*
X216435000Y-69860000D03*
D16*
X212625000Y-67320000D03*
X218975000Y-64780000D03*
D15*
X250090000Y-69860000D03*
X239930000Y-69860000D03*
D14*
X245010000Y-69860000D03*
D16*
X241200000Y-67320000D03*
X247550000Y-64780000D03*
D15*
X269140000Y-69860000D03*
X258980000Y-69860000D03*
D14*
X264060000Y-69860000D03*
D16*
X260250000Y-67320000D03*
X266600000Y-64780000D03*
D15*
X50065000Y-98435000D03*
X39905000Y-98435000D03*
D14*
X44985000Y-98435000D03*
D16*
X41175000Y-95895000D03*
X47525000Y-93355000D03*
D15*
X69115000Y-98435000D03*
X58955000Y-98435000D03*
D14*
X64035000Y-98435000D03*
D16*
X60225000Y-95895000D03*
X66575000Y-93355000D03*
D15*
X88165000Y-98435000D03*
X78005000Y-98435000D03*
D14*
X83085000Y-98435000D03*
D16*
X79275000Y-95895000D03*
X85625000Y-93355000D03*
D15*
X107215000Y-98435000D03*
X97055000Y-98435000D03*
D14*
X102135000Y-98435000D03*
D16*
X98325000Y-95895000D03*
X104675000Y-93355000D03*
D15*
X126265000Y-98435000D03*
X116105000Y-98435000D03*
D14*
X121185000Y-98435000D03*
D16*
X117375000Y-95895000D03*
X123725000Y-93355000D03*
D15*
X145315000Y-98435000D03*
X135155000Y-98435000D03*
D14*
X140235000Y-98435000D03*
D16*
X136425000Y-95895000D03*
X142775000Y-93355000D03*
D15*
X164365000Y-98435000D03*
X154205000Y-98435000D03*
D14*
X159285000Y-98435000D03*
D16*
X155475000Y-95895000D03*
X161825000Y-93355000D03*
D15*
X183415000Y-98435000D03*
X173255000Y-98435000D03*
D14*
X178335000Y-98435000D03*
D16*
X174525000Y-95895000D03*
X180875000Y-93355000D03*
D15*
X202465000Y-98435000D03*
X192305000Y-98435000D03*
D14*
X197385000Y-98435000D03*
D16*
X193575000Y-95895000D03*
X199925000Y-93355000D03*
D15*
X221515000Y-98435000D03*
X211355000Y-98435000D03*
D14*
X216435000Y-98435000D03*
D16*
X212625000Y-95895000D03*
X218975000Y-93355000D03*
D15*
X240565000Y-98435000D03*
X230405000Y-98435000D03*
D14*
X235485000Y-98435000D03*
D16*
X231675000Y-95895000D03*
X238025000Y-93355000D03*
D15*
X259615000Y-98435000D03*
X249455000Y-98435000D03*
D14*
X254535000Y-98435000D03*
D16*
X250725000Y-95895000D03*
X257075000Y-93355000D03*
D15*
X278665000Y-98435000D03*
X268505000Y-98435000D03*
D14*
X273585000Y-98435000D03*
D16*
X269775000Y-95895000D03*
X276125000Y-93355000D03*
D15*
X335815000Y-98435000D03*
X325655000Y-98435000D03*
D14*
X330735000Y-98435000D03*
D16*
X326925000Y-95895000D03*
X333275000Y-93355000D03*
D15*
X78640000Y-117485000D03*
X68480000Y-117485000D03*
D14*
X73560000Y-117485000D03*
D16*
X69750000Y-114945000D03*
X76100000Y-112405000D03*
D15*
X97690000Y-117485000D03*
X87530000Y-117485000D03*
D14*
X92610000Y-117485000D03*
D16*
X88800000Y-114945000D03*
X95150000Y-112405000D03*
D15*
X116740000Y-117485000D03*
X106580000Y-117485000D03*
D14*
X111660000Y-117485000D03*
D16*
X107850000Y-114945000D03*
X114200000Y-112405000D03*
D15*
X135790000Y-117485000D03*
X125630000Y-117485000D03*
D14*
X130710000Y-117485000D03*
D16*
X126900000Y-114945000D03*
X133250000Y-112405000D03*
D15*
X154840000Y-117485000D03*
X144680000Y-117485000D03*
D14*
X149760000Y-117485000D03*
D16*
X145950000Y-114945000D03*
X152300000Y-112405000D03*
D15*
X173890000Y-117485000D03*
X163730000Y-117485000D03*
D14*
X168810000Y-117485000D03*
D16*
X165000000Y-114945000D03*
X171350000Y-112405000D03*
D15*
X192940000Y-117485000D03*
X182780000Y-117485000D03*
D14*
X187860000Y-117485000D03*
D16*
X184050000Y-114945000D03*
X190400000Y-112405000D03*
D15*
X211990000Y-117485000D03*
X201830000Y-117485000D03*
D14*
X206910000Y-117485000D03*
D16*
X203100000Y-114945000D03*
X209450000Y-112405000D03*
D15*
X231040000Y-117485000D03*
X220880000Y-117485000D03*
D14*
X225960000Y-117485000D03*
D16*
X222150000Y-114945000D03*
X228500000Y-112405000D03*
D15*
X250090000Y-117485000D03*
X239930000Y-117485000D03*
D14*
X245010000Y-117485000D03*
D16*
X241200000Y-114945000D03*
X247550000Y-112405000D03*
D15*
X269140000Y-117485000D03*
X258980000Y-117485000D03*
D14*
X264060000Y-117485000D03*
D16*
X260250000Y-114945000D03*
X266600000Y-112405000D03*
D15*
X288190000Y-117485000D03*
X278030000Y-117485000D03*
D14*
X283110000Y-117485000D03*
D16*
X279300000Y-114945000D03*
X285650000Y-112405000D03*
D15*
X335815000Y-117485000D03*
X325655000Y-117485000D03*
D14*
X330735000Y-117485000D03*
D16*
X326925000Y-114945000D03*
X333275000Y-112405000D03*
D15*
X83402500Y-136535000D03*
X73242500Y-136535000D03*
D14*
X78322500Y-136535000D03*
D16*
X74512500Y-133995000D03*
X80862500Y-131455000D03*
D15*
X121502500Y-136535000D03*
X111342500Y-136535000D03*
D14*
X116422500Y-136535000D03*
D16*
X112612500Y-133995000D03*
X118962500Y-131455000D03*
D15*
X140552500Y-136535000D03*
X130392500Y-136535000D03*
D14*
X135472500Y-136535000D03*
D16*
X131662500Y-133995000D03*
X138012500Y-131455000D03*
D15*
X159602500Y-136535000D03*
X149442500Y-136535000D03*
D14*
X154522500Y-136535000D03*
D16*
X150712500Y-133995000D03*
X157062500Y-131455000D03*
D15*
X197702500Y-136535000D03*
X187542500Y-136535000D03*
D14*
X192622500Y-136535000D03*
D16*
X188812500Y-133995000D03*
X195162500Y-131455000D03*
D15*
X216752500Y-136535000D03*
X206592500Y-136535000D03*
D14*
X211672500Y-136535000D03*
D16*
X207862500Y-133995000D03*
X214212500Y-131455000D03*
D15*
X235802500Y-136535000D03*
X225642500Y-136535000D03*
D14*
X230722500Y-136535000D03*
D16*
X226912500Y-133995000D03*
X233262500Y-131455000D03*
D15*
X254852500Y-136535000D03*
X244692500Y-136535000D03*
D14*
X249772500Y-136535000D03*
D16*
X245962500Y-133995000D03*
X252312500Y-131455000D03*
D15*
X273902500Y-136535000D03*
X263742500Y-136535000D03*
D14*
X268822500Y-136535000D03*
D16*
X265012500Y-133995000D03*
X271362500Y-131455000D03*
D15*
X335815000Y-136535000D03*
X325655000Y-136535000D03*
D14*
X330735000Y-136535000D03*
D16*
X326925000Y-133995000D03*
X333275000Y-131455000D03*
D15*
X92927500Y-155585000D03*
X82767500Y-155585000D03*
D14*
X87847500Y-155585000D03*
D16*
X84037500Y-153045000D03*
X90387500Y-150505000D03*
D15*
X131027500Y-155585000D03*
X120867500Y-155585000D03*
D14*
X125947500Y-155585000D03*
D16*
X122137500Y-153045000D03*
X128487500Y-150505000D03*
D15*
X150077500Y-155585000D03*
X139917500Y-155585000D03*
D14*
X144997500Y-155585000D03*
D16*
X141187500Y-153045000D03*
X147537500Y-150505000D03*
D15*
X207227500Y-155585000D03*
X197067500Y-155585000D03*
D14*
X202147500Y-155585000D03*
D16*
X198337500Y-153045000D03*
X204687500Y-150505000D03*
D15*
X226277500Y-155585000D03*
X216117500Y-155585000D03*
D14*
X221197500Y-155585000D03*
D16*
X217387500Y-153045000D03*
X223737500Y-150505000D03*
D15*
X245327500Y-155585000D03*
X235167500Y-155585000D03*
D14*
X240247500Y-155585000D03*
D16*
X236437500Y-153045000D03*
X242787500Y-150505000D03*
D15*
X264377500Y-155585000D03*
X254217500Y-155585000D03*
D14*
X259297500Y-155585000D03*
D16*
X255487500Y-153045000D03*
X261837500Y-150505000D03*
D15*
X335815000Y-155585000D03*
X325655000Y-155585000D03*
D14*
X330735000Y-155585000D03*
D16*
X326925000Y-153045000D03*
X333275000Y-150505000D03*
D15*
X73877500Y-174635000D03*
X63717500Y-174635000D03*
D14*
X68797500Y-174635000D03*
D16*
X64987500Y-172095000D03*
X71337500Y-169555000D03*
D15*
X297715000Y-174635000D03*
X287555000Y-174635000D03*
D14*
X292635000Y-174635000D03*
D16*
X288825000Y-172095000D03*
X295175000Y-169555000D03*
D15*
X316765000Y-174635000D03*
X306605000Y-174635000D03*
D14*
X311685000Y-174635000D03*
D16*
X307875000Y-172095000D03*
X314225000Y-169555000D03*
D17*
X38000000Y-55000000D03*
X138000000Y-55000000D03*
X238000000Y-55000000D03*
X338000000Y-55000000D03*
D18*
X247600000Y-87200000D03*
X248600000Y-87200000D03*
X249600000Y-87200000D03*
X250600000Y-87200000D03*
X251600000Y-87200000D03*
X252600000Y-87200000D03*
X253600000Y-87200000D03*
X254600000Y-87200000D03*
X255600000Y-87200000D03*
X256600000Y-87200000D03*
X257600000Y-87200000D03*
X258600000Y-87200000D03*
X259600000Y-87200000D03*
X260600000Y-87200000D03*
X261600000Y-87200000D03*
X262600000Y-87200000D03*
X263600000Y-87200000D03*
X264600000Y-87200000D03*
X265600000Y-87200000D03*
X266600000Y-87200000D03*
X267600000Y-87200000D03*
X268600000Y-87200000D03*
X269600000Y-87200000D03*
X270600000Y-87200000D03*
X271600000Y-87200000D03*
X272600000Y-87200000D03*
D19*
X244610000Y-84400000D03*
X275590000Y-84400000D03*
D20*
X41175000Y-75070000D03*
X41175000Y-72270000D03*
X69750000Y-72270000D03*
X69750000Y-75070000D03*
X88800000Y-72270000D03*
X88800000Y-75070000D03*
X107850000Y-72270000D03*
X107850000Y-75070000D03*
X126900000Y-75070000D03*
X126900000Y-72270000D03*
X155475000Y-72270000D03*
X155475000Y-75070000D03*
X174525000Y-72270000D03*
X174525000Y-75070000D03*
X193575000Y-72270000D03*
X193575000Y-75070000D03*
X212625000Y-72270000D03*
X212625000Y-75070000D03*
X241200000Y-75070000D03*
X241200000Y-72270000D03*
X260250000Y-75070000D03*
X260250000Y-72270000D03*
X41175000Y-103645000D03*
X41175000Y-100845000D03*
X60225000Y-100845000D03*
X60225000Y-103645000D03*
X79275000Y-100845000D03*
X79275000Y-103645000D03*
X98325000Y-100845000D03*
X98325000Y-103645000D03*
X117375000Y-100845000D03*
X117375000Y-103645000D03*
X136425000Y-103645000D03*
X136425000Y-100845000D03*
X155475000Y-103645000D03*
X155475000Y-100845000D03*
X174525000Y-103645000D03*
X174525000Y-100845000D03*
X193575000Y-103645000D03*
X193575000Y-100845000D03*
X212625000Y-103645000D03*
X212625000Y-100845000D03*
X231675000Y-103645000D03*
X231675000Y-100845000D03*
X250725000Y-100845000D03*
X250725000Y-103645000D03*
X269775000Y-103645000D03*
X269775000Y-100845000D03*
X298350000Y-103645000D03*
X298350000Y-100845000D03*
X326925000Y-100845000D03*
X326925000Y-103645000D03*
X45937500Y-122695000D03*
X45937500Y-119895000D03*
X69750000Y-122695000D03*
X69750000Y-119895000D03*
X88800000Y-119895000D03*
X88800000Y-122695000D03*
X107850000Y-122695000D03*
X107850000Y-119895000D03*
X126900000Y-119895000D03*
X126900000Y-122695000D03*
X145950000Y-122695000D03*
X145950000Y-119895000D03*
X165000000Y-119895000D03*
X165000000Y-122695000D03*
X184050000Y-122695000D03*
X184050000Y-119895000D03*
X203100000Y-119895000D03*
X203100000Y-122695000D03*
X222150000Y-122695000D03*
X222150000Y-119895000D03*
X241200000Y-119895000D03*
X241200000Y-122695000D03*
X260250000Y-122695000D03*
X260250000Y-119895000D03*
X279300000Y-119895000D03*
X279300000Y-122695000D03*
X303112500Y-122695000D03*
X303112500Y-119895000D03*
X326925000Y-119895000D03*
X326925000Y-122695000D03*
X48318750Y-138945000D03*
X48318750Y-141745000D03*
X74512500Y-141745000D03*
X74512500Y-138945000D03*
X93562500Y-138945000D03*
X93562500Y-141745000D03*
X112612500Y-141745000D03*
X112612500Y-138945000D03*
X131662500Y-138945000D03*
X131662500Y-141745000D03*
X150712500Y-141745000D03*
X150712500Y-138945000D03*
X169762500Y-138945000D03*
X169762500Y-141745000D03*
X188812500Y-141745000D03*
X188812500Y-138945000D03*
X207862500Y-141745000D03*
X207862500Y-138945000D03*
X226912500Y-141745000D03*
X226912500Y-138945000D03*
X245962500Y-138945000D03*
X245962500Y-141745000D03*
X265012500Y-141745000D03*
X265012500Y-138945000D03*
X295968750Y-138945000D03*
X295968750Y-141745000D03*
X326925000Y-138945000D03*
X326925000Y-141745000D03*
X53081250Y-157995000D03*
X53081250Y-160795000D03*
X84037500Y-157995000D03*
X84037500Y-160795000D03*
X103087500Y-160795000D03*
X103087500Y-157995000D03*
X122137500Y-157995000D03*
X122137500Y-160795000D03*
X141187500Y-160795000D03*
X141187500Y-157995000D03*
X160237500Y-157995000D03*
X160237500Y-160795000D03*
X179287500Y-160795000D03*
X179287500Y-157995000D03*
X198337500Y-157995000D03*
X198337500Y-160795000D03*
X217387500Y-160795000D03*
X217387500Y-157995000D03*
X236437500Y-157995000D03*
X236437500Y-160795000D03*
X255487500Y-160795000D03*
X255487500Y-157995000D03*
X281681250Y-160795000D03*
X281681250Y-157995000D03*
X307875000Y-160795000D03*
X307875000Y-157995000D03*
X326925000Y-157995000D03*
X326925000Y-160795000D03*
X43556250Y-179845000D03*
X43556250Y-177045000D03*
X64987500Y-177045000D03*
X64987500Y-179845000D03*
X86418750Y-179845000D03*
X86418750Y-177045000D03*
X165000000Y-177045000D03*
X165000000Y-179845000D03*
X243581250Y-179845000D03*
X243581250Y-177045000D03*
X267393750Y-177045000D03*
X267393750Y-179845000D03*
X288825000Y-179845000D03*
X288825000Y-177045000D03*
X307875000Y-177045000D03*
X307875000Y-179845000D03*
X326925000Y-179845000D03*
X326925000Y-177045000D03*
D16*
X171350000Y-169555000D03*
X165000000Y-172095000D03*
D14*
X168810000Y-174635000D03*
D15*
X163730000Y-174635000D03*
X173890000Y-174635000D03*
D14*
X225960000Y-182875000D03*
X111660000Y-182875000D03*
D13*
X111660000Y-167635000D03*
X225960000Y-167635000D03*
G36*
G01*
X322269500Y-63949000D02*
X322620500Y-63949000D01*
G75*
G02*
X322796000Y-64124500I0J-175500D01*
G01*
X322796000Y-65675500D01*
G75*
G02*
X322620500Y-65851000I-175500J0D01*
G01*
X322269500Y-65851000D01*
G75*
G02*
X322094000Y-65675500I0J175500D01*
G01*
X322094000Y-64124500D01*
G75*
G02*
X322269500Y-63949000I175500J0D01*
G01*
G37*
G36*
G01*
X323539500Y-63949000D02*
X323890500Y-63949000D01*
G75*
G02*
X324066000Y-64124500I0J-175500D01*
G01*
X324066000Y-65675500D01*
G75*
G02*
X323890500Y-65851000I-175500J0D01*
G01*
X323539500Y-65851000D01*
G75*
G02*
X323364000Y-65675500I0J175500D01*
G01*
X323364000Y-64124500D01*
G75*
G02*
X323539500Y-63949000I175500J0D01*
G01*
G37*
G36*
G01*
X324809500Y-63949000D02*
X325160500Y-63949000D01*
G75*
G02*
X325336000Y-64124500I0J-175500D01*
G01*
X325336000Y-65675500D01*
G75*
G02*
X325160500Y-65851000I-175500J0D01*
G01*
X324809500Y-65851000D01*
G75*
G02*
X324634000Y-65675500I0J175500D01*
G01*
X324634000Y-64124500D01*
G75*
G02*
X324809500Y-63949000I175500J0D01*
G01*
G37*
G36*
G01*
X326079500Y-63949000D02*
X326430500Y-63949000D01*
G75*
G02*
X326606000Y-64124500I0J-175500D01*
G01*
X326606000Y-65675500D01*
G75*
G02*
X326430500Y-65851000I-175500J0D01*
G01*
X326079500Y-65851000D01*
G75*
G02*
X325904000Y-65675500I0J175500D01*
G01*
X325904000Y-64124500D01*
G75*
G02*
X326079500Y-63949000I175500J0D01*
G01*
G37*
G36*
G01*
X327349500Y-63949000D02*
X327700500Y-63949000D01*
G75*
G02*
X327876000Y-64124500I0J-175500D01*
G01*
X327876000Y-65675500D01*
G75*
G02*
X327700500Y-65851000I-175500J0D01*
G01*
X327349500Y-65851000D01*
G75*
G02*
X327174000Y-65675500I0J175500D01*
G01*
X327174000Y-64124500D01*
G75*
G02*
X327349500Y-63949000I175500J0D01*
G01*
G37*
G36*
G01*
X328619500Y-63949000D02*
X328970500Y-63949000D01*
G75*
G02*
X329146000Y-64124500I0J-175500D01*
G01*
X329146000Y-65675500D01*
G75*
G02*
X328970500Y-65851000I-175500J0D01*
G01*
X328619500Y-65851000D01*
G75*
G02*
X328444000Y-65675500I0J175500D01*
G01*
X328444000Y-64124500D01*
G75*
G02*
X328619500Y-63949000I175500J0D01*
G01*
G37*
G36*
G01*
X329889500Y-63949000D02*
X330240500Y-63949000D01*
G75*
G02*
X330416000Y-64124500I0J-175500D01*
G01*
X330416000Y-65675500D01*
G75*
G02*
X330240500Y-65851000I-175500J0D01*
G01*
X329889500Y-65851000D01*
G75*
G02*
X329714000Y-65675500I0J175500D01*
G01*
X329714000Y-64124500D01*
G75*
G02*
X329889500Y-63949000I175500J0D01*
G01*
G37*
G36*
G01*
X331159500Y-63949000D02*
X331510500Y-63949000D01*
G75*
G02*
X331686000Y-64124500I0J-175500D01*
G01*
X331686000Y-65675500D01*
G75*
G02*
X331510500Y-65851000I-175500J0D01*
G01*
X331159500Y-65851000D01*
G75*
G02*
X330984000Y-65675500I0J175500D01*
G01*
X330984000Y-64124500D01*
G75*
G02*
X331159500Y-63949000I175500J0D01*
G01*
G37*
G36*
G01*
X332429500Y-63949000D02*
X332780500Y-63949000D01*
G75*
G02*
X332956000Y-64124500I0J-175500D01*
G01*
X332956000Y-65675500D01*
G75*
G02*
X332780500Y-65851000I-175500J0D01*
G01*
X332429500Y-65851000D01*
G75*
G02*
X332254000Y-65675500I0J175500D01*
G01*
X332254000Y-64124500D01*
G75*
G02*
X332429500Y-63949000I175500J0D01*
G01*
G37*
G36*
G01*
X333699500Y-63949000D02*
X334050500Y-63949000D01*
G75*
G02*
X334226000Y-64124500I0J-175500D01*
G01*
X334226000Y-65675500D01*
G75*
G02*
X334050500Y-65851000I-175500J0D01*
G01*
X333699500Y-65851000D01*
G75*
G02*
X333524000Y-65675500I0J175500D01*
G01*
X333524000Y-64124500D01*
G75*
G02*
X333699500Y-63949000I175500J0D01*
G01*
G37*
G36*
G01*
X334969500Y-63949000D02*
X335320500Y-63949000D01*
G75*
G02*
X335496000Y-64124500I0J-175500D01*
G01*
X335496000Y-65675500D01*
G75*
G02*
X335320500Y-65851000I-175500J0D01*
G01*
X334969500Y-65851000D01*
G75*
G02*
X334794000Y-65675500I0J175500D01*
G01*
X334794000Y-64124500D01*
G75*
G02*
X334969500Y-63949000I175500J0D01*
G01*
G37*
G36*
G01*
X336239500Y-63949000D02*
X336590500Y-63949000D01*
G75*
G02*
X336766000Y-64124500I0J-175500D01*
G01*
X336766000Y-65675500D01*
G75*
G02*
X336590500Y-65851000I-175500J0D01*
G01*
X336239500Y-65851000D01*
G75*
G02*
X336064000Y-65675500I0J175500D01*
G01*
X336064000Y-64124500D01*
G75*
G02*
X336239500Y-63949000I175500J0D01*
G01*
G37*
G36*
G01*
X337509500Y-63949000D02*
X337860500Y-63949000D01*
G75*
G02*
X338036000Y-64124500I0J-175500D01*
G01*
X338036000Y-65675500D01*
G75*
G02*
X337860500Y-65851000I-175500J0D01*
G01*
X337509500Y-65851000D01*
G75*
G02*
X337334000Y-65675500I0J175500D01*
G01*
X337334000Y-64124500D01*
G75*
G02*
X337509500Y-63949000I175500J0D01*
G01*
G37*
G36*
G01*
X338779500Y-63949000D02*
X339130500Y-63949000D01*
G75*
G02*
X339306000Y-64124500I0J-175500D01*
G01*
X339306000Y-65675500D01*
G75*
G02*
X339130500Y-65851000I-175500J0D01*
G01*
X338779500Y-65851000D01*
G75*
G02*
X338604000Y-65675500I0J175500D01*
G01*
X338604000Y-64124500D01*
G75*
G02*
X338779500Y-63949000I175500J0D01*
G01*
G37*
G36*
G01*
X338779500Y-73549000D02*
X339130500Y-73549000D01*
G75*
G02*
X339306000Y-73724500I0J-175500D01*
G01*
X339306000Y-75275500D01*
G75*
G02*
X339130500Y-75451000I-175500J0D01*
G01*
X338779500Y-75451000D01*
G75*
G02*
X338604000Y-75275500I0J175500D01*
G01*
X338604000Y-73724500D01*
G75*
G02*
X338779500Y-73549000I175500J0D01*
G01*
G37*
G36*
G01*
X337509500Y-73549000D02*
X337860500Y-73549000D01*
G75*
G02*
X338036000Y-73724500I0J-175500D01*
G01*
X338036000Y-75275500D01*
G75*
G02*
X337860500Y-75451000I-175500J0D01*
G01*
X337509500Y-75451000D01*
G75*
G02*
X337334000Y-75275500I0J175500D01*
G01*
X337334000Y-73724500D01*
G75*
G02*
X337509500Y-73549000I175500J0D01*
G01*
G37*
G36*
G01*
X336239500Y-73549000D02*
X336590500Y-73549000D01*
G75*
G02*
X336766000Y-73724500I0J-175500D01*
G01*
X336766000Y-75275500D01*
G75*
G02*
X336590500Y-75451000I-175500J0D01*
G01*
X336239500Y-75451000D01*
G75*
G02*
X336064000Y-75275500I0J175500D01*
G01*
X336064000Y-73724500D01*
G75*
G02*
X336239500Y-73549000I175500J0D01*
G01*
G37*
G36*
G01*
X334969500Y-73549000D02*
X335320500Y-73549000D01*
G75*
G02*
X335496000Y-73724500I0J-175500D01*
G01*
X335496000Y-75275500D01*
G75*
G02*
X335320500Y-75451000I-175500J0D01*
G01*
X334969500Y-75451000D01*
G75*
G02*
X334794000Y-75275500I0J175500D01*
G01*
X334794000Y-73724500D01*
G75*
G02*
X334969500Y-73549000I175500J0D01*
G01*
G37*
G36*
G01*
X333699500Y-73549000D02*
X334050500Y-73549000D01*
G75*
G02*
X334226000Y-73724500I0J-175500D01*
G01*
X334226000Y-75275500D01*
G75*
G02*
X334050500Y-75451000I-175500J0D01*
G01*
X333699500Y-75451000D01*
G75*
G02*
X333524000Y-75275500I0J175500D01*
G01*
X333524000Y-73724500D01*
G75*
G02*
X333699500Y-73549000I175500J0D01*
G01*
G37*
G36*
G01*
X332429500Y-73549000D02*
X332780500Y-73549000D01*
G75*
G02*
X332956000Y-73724500I0J-175500D01*
G01*
X332956000Y-75275500D01*
G75*
G02*
X332780500Y-75451000I-175500J0D01*
G01*
X332429500Y-75451000D01*
G75*
G02*
X332254000Y-75275500I0J175500D01*
G01*
X332254000Y-73724500D01*
G75*
G02*
X332429500Y-73549000I175500J0D01*
G01*
G37*
G36*
G01*
X331159500Y-73549000D02*
X331510500Y-73549000D01*
G75*
G02*
X331686000Y-73724500I0J-175500D01*
G01*
X331686000Y-75275500D01*
G75*
G02*
X331510500Y-75451000I-175500J0D01*
G01*
X331159500Y-75451000D01*
G75*
G02*
X330984000Y-75275500I0J175500D01*
G01*
X330984000Y-73724500D01*
G75*
G02*
X331159500Y-73549000I175500J0D01*
G01*
G37*
G36*
G01*
X329889500Y-73549000D02*
X330240500Y-73549000D01*
G75*
G02*
X330416000Y-73724500I0J-175500D01*
G01*
X330416000Y-75275500D01*
G75*
G02*
X330240500Y-75451000I-175500J0D01*
G01*
X329889500Y-75451000D01*
G75*
G02*
X329714000Y-75275500I0J175500D01*
G01*
X329714000Y-73724500D01*
G75*
G02*
X329889500Y-73549000I175500J0D01*
G01*
G37*
G36*
G01*
X328619500Y-73549000D02*
X328970500Y-73549000D01*
G75*
G02*
X329146000Y-73724500I0J-175500D01*
G01*
X329146000Y-75275500D01*
G75*
G02*
X328970500Y-75451000I-175500J0D01*
G01*
X328619500Y-75451000D01*
G75*
G02*
X328444000Y-75275500I0J175500D01*
G01*
X328444000Y-73724500D01*
G75*
G02*
X328619500Y-73549000I175500J0D01*
G01*
G37*
G36*
G01*
X327349500Y-73549000D02*
X327700500Y-73549000D01*
G75*
G02*
X327876000Y-73724500I0J-175500D01*
G01*
X327876000Y-75275500D01*
G75*
G02*
X327700500Y-75451000I-175500J0D01*
G01*
X327349500Y-75451000D01*
G75*
G02*
X327174000Y-75275500I0J175500D01*
G01*
X327174000Y-73724500D01*
G75*
G02*
X327349500Y-73549000I175500J0D01*
G01*
G37*
G36*
G01*
X326079500Y-73549000D02*
X326430500Y-73549000D01*
G75*
G02*
X326606000Y-73724500I0J-175500D01*
G01*
X326606000Y-75275500D01*
G75*
G02*
X326430500Y-75451000I-175500J0D01*
G01*
X326079500Y-75451000D01*
G75*
G02*
X325904000Y-75275500I0J175500D01*
G01*
X325904000Y-73724500D01*
G75*
G02*
X326079500Y-73549000I175500J0D01*
G01*
G37*
G36*
G01*
X324809500Y-73549000D02*
X325160500Y-73549000D01*
G75*
G02*
X325336000Y-73724500I0J-175500D01*
G01*
X325336000Y-75275500D01*
G75*
G02*
X325160500Y-75451000I-175500J0D01*
G01*
X324809500Y-75451000D01*
G75*
G02*
X324634000Y-75275500I0J175500D01*
G01*
X324634000Y-73724500D01*
G75*
G02*
X324809500Y-73549000I175500J0D01*
G01*
G37*
G36*
G01*
X323539500Y-73549000D02*
X323890500Y-73549000D01*
G75*
G02*
X324066000Y-73724500I0J-175500D01*
G01*
X324066000Y-75275500D01*
G75*
G02*
X323890500Y-75451000I-175500J0D01*
G01*
X323539500Y-75451000D01*
G75*
G02*
X323364000Y-75275500I0J175500D01*
G01*
X323364000Y-73724500D01*
G75*
G02*
X323539500Y-73549000I175500J0D01*
G01*
G37*
G36*
G01*
X322269500Y-73549000D02*
X322620500Y-73549000D01*
G75*
G02*
X322796000Y-73724500I0J-175500D01*
G01*
X322796000Y-75275500D01*
G75*
G02*
X322620500Y-75451000I-175500J0D01*
G01*
X322269500Y-75451000D01*
G75*
G02*
X322094000Y-75275500I0J175500D01*
G01*
X322094000Y-73724500D01*
G75*
G02*
X322269500Y-73549000I175500J0D01*
G01*
G37*
G36*
G01*
X287376000Y-68618250D02*
X287376000Y-69581750D01*
G75*
G02*
X287106750Y-69851000I-269250J0D01*
G01*
X286568250Y-69851000D01*
G75*
G02*
X286299000Y-69581750I0J269250D01*
G01*
X286299000Y-68618250D01*
G75*
G02*
X286568250Y-68349000I269250J0D01*
G01*
X287106750Y-68349000D01*
G75*
G02*
X287376000Y-68618250I0J-269250D01*
G01*
G37*
G36*
G01*
X285501000Y-68618250D02*
X285501000Y-69581750D01*
G75*
G02*
X285231750Y-69851000I-269250J0D01*
G01*
X284693250Y-69851000D01*
G75*
G02*
X284424000Y-69581750I0J269250D01*
G01*
X284424000Y-68618250D01*
G75*
G02*
X284693250Y-68349000I269250J0D01*
G01*
X285231750Y-68349000D01*
G75*
G02*
X285501000Y-68618250I0J-269250D01*
G01*
G37*
D20*
X328300000Y-62000000D03*
X325500000Y-62000000D03*
D21*
G36*
X332300398Y-78956112D02*
G01*
X332300398Y-78974534D01*
X332300152Y-78979533D01*
X332295342Y-79028364D01*
X332294608Y-79033314D01*
X332285036Y-79081439D01*
X332283820Y-79086295D01*
X332269576Y-79133250D01*
X332267890Y-79137961D01*
X332249113Y-79183294D01*
X332246973Y-79187820D01*
X332223842Y-79231093D01*
X332221269Y-79235384D01*
X332194009Y-79276183D01*
X332191027Y-79280204D01*
X332159899Y-79318133D01*
X332156538Y-79321841D01*
X332121841Y-79356538D01*
X332118133Y-79359899D01*
X332080204Y-79391027D01*
X332076183Y-79394009D01*
X332035384Y-79421269D01*
X332031093Y-79423842D01*
X331987820Y-79446973D01*
X331983294Y-79449113D01*
X331937961Y-79467890D01*
X331933250Y-79469576D01*
X331886295Y-79483820D01*
X331881439Y-79485036D01*
X331833314Y-79494608D01*
X331828364Y-79495342D01*
X331779533Y-79500152D01*
X331774534Y-79500398D01*
X331756112Y-79500398D01*
X331750000Y-79501000D01*
X331250000Y-79501000D01*
X331243888Y-79500398D01*
X331225466Y-79500398D01*
X331220467Y-79500152D01*
X331171636Y-79495342D01*
X331166686Y-79494608D01*
X331118561Y-79485036D01*
X331113705Y-79483820D01*
X331066750Y-79469576D01*
X331062039Y-79467890D01*
X331016706Y-79449113D01*
X331012180Y-79446973D01*
X330968907Y-79423842D01*
X330964616Y-79421269D01*
X330923817Y-79394009D01*
X330919796Y-79391027D01*
X330881867Y-79359899D01*
X330878159Y-79356538D01*
X330843462Y-79321841D01*
X330840101Y-79318133D01*
X330808973Y-79280204D01*
X330805991Y-79276183D01*
X330778731Y-79235384D01*
X330776158Y-79231093D01*
X330753027Y-79187820D01*
X330750887Y-79183294D01*
X330732110Y-79137961D01*
X330730424Y-79133250D01*
X330716180Y-79086295D01*
X330714964Y-79081439D01*
X330705392Y-79033314D01*
X330704658Y-79028364D01*
X330699848Y-78979533D01*
X330699602Y-78974534D01*
X330699602Y-78956112D01*
X330699000Y-78950000D01*
X330699000Y-78450000D01*
X330699980Y-78440050D01*
X330702882Y-78430483D01*
X330707595Y-78421666D01*
X330713938Y-78413938D01*
X330721666Y-78407595D01*
X330730483Y-78402882D01*
X330740050Y-78399980D01*
X330750000Y-78399000D01*
X332250000Y-78399000D01*
X332259950Y-78399980D01*
X332269517Y-78402882D01*
X332278334Y-78407595D01*
X332286062Y-78413938D01*
X332292405Y-78421666D01*
X332297118Y-78430483D01*
X332300020Y-78440050D01*
X332301000Y-78450000D01*
X332301000Y-78950000D01*
X332300398Y-78956112D01*
G37*
G36*
X332300020Y-78159950D02*
G01*
X332297118Y-78169517D01*
X332292405Y-78178334D01*
X332286062Y-78186062D01*
X332278334Y-78192405D01*
X332269517Y-78197118D01*
X332259950Y-78200020D01*
X332250000Y-78201000D01*
X330750000Y-78201000D01*
X330740050Y-78200020D01*
X330730483Y-78197118D01*
X330721666Y-78192405D01*
X330713938Y-78186062D01*
X330707595Y-78178334D01*
X330702882Y-78169517D01*
X330699980Y-78159950D01*
X330699000Y-78150000D01*
X330699000Y-77650000D01*
X330699602Y-77643888D01*
X330699602Y-77625466D01*
X330699848Y-77620467D01*
X330704658Y-77571636D01*
X330705392Y-77566686D01*
X330714964Y-77518561D01*
X330716180Y-77513705D01*
X330730424Y-77466750D01*
X330732110Y-77462039D01*
X330750887Y-77416706D01*
X330753027Y-77412180D01*
X330776158Y-77368907D01*
X330778731Y-77364616D01*
X330805991Y-77323817D01*
X330808973Y-77319796D01*
X330840101Y-77281867D01*
X330843462Y-77278159D01*
X330878159Y-77243462D01*
X330881867Y-77240101D01*
X330919796Y-77208973D01*
X330923817Y-77205991D01*
X330964616Y-77178731D01*
X330968907Y-77176158D01*
X331012180Y-77153027D01*
X331016706Y-77150887D01*
X331062039Y-77132110D01*
X331066750Y-77130424D01*
X331113705Y-77116180D01*
X331118561Y-77114964D01*
X331166686Y-77105392D01*
X331171636Y-77104658D01*
X331220467Y-77099848D01*
X331225466Y-77099602D01*
X331243888Y-77099602D01*
X331250000Y-77099000D01*
X331750000Y-77099000D01*
X331756112Y-77099602D01*
X331774534Y-77099602D01*
X331779533Y-77099848D01*
X331828364Y-77104658D01*
X331833314Y-77105392D01*
X331881439Y-77114964D01*
X331886295Y-77116180D01*
X331933250Y-77130424D01*
X331937961Y-77132110D01*
X331983294Y-77150887D01*
X331987820Y-77153027D01*
X332031093Y-77176158D01*
X332035384Y-77178731D01*
X332076183Y-77205991D01*
X332080204Y-77208973D01*
X332118133Y-77240101D01*
X332121841Y-77243462D01*
X332156538Y-77278159D01*
X332159899Y-77281867D01*
X332191027Y-77319796D01*
X332194009Y-77323817D01*
X332221269Y-77364616D01*
X332223842Y-77368907D01*
X332246973Y-77412180D01*
X332249113Y-77416706D01*
X332267890Y-77462039D01*
X332269576Y-77466750D01*
X332283820Y-77513705D01*
X332285036Y-77518561D01*
X332294608Y-77566686D01*
X332295342Y-77571636D01*
X332300152Y-77620467D01*
X332300398Y-77625466D01*
X332300398Y-77643888D01*
X332301000Y-77650000D01*
X332301000Y-78150000D01*
X332300020Y-78159950D01*
G37*
G36*
X329700020Y-78159950D02*
G01*
X329697118Y-78169517D01*
X329692405Y-78178334D01*
X329686062Y-78186062D01*
X329678334Y-78192405D01*
X329669517Y-78197118D01*
X329659950Y-78200020D01*
X329650000Y-78201000D01*
X328150000Y-78201000D01*
X328140050Y-78200020D01*
X328130483Y-78197118D01*
X328121666Y-78192405D01*
X328113938Y-78186062D01*
X328107595Y-78178334D01*
X328102882Y-78169517D01*
X328099980Y-78159950D01*
X328099000Y-78150000D01*
X328099000Y-77650000D01*
X328099602Y-77643888D01*
X328099602Y-77625466D01*
X328099848Y-77620467D01*
X328104658Y-77571636D01*
X328105392Y-77566686D01*
X328114964Y-77518561D01*
X328116180Y-77513705D01*
X328130424Y-77466750D01*
X328132110Y-77462039D01*
X328150887Y-77416706D01*
X328153027Y-77412180D01*
X328176158Y-77368907D01*
X328178731Y-77364616D01*
X328205991Y-77323817D01*
X328208973Y-77319796D01*
X328240101Y-77281867D01*
X328243462Y-77278159D01*
X328278159Y-77243462D01*
X328281867Y-77240101D01*
X328319796Y-77208973D01*
X328323817Y-77205991D01*
X328364616Y-77178731D01*
X328368907Y-77176158D01*
X328412180Y-77153027D01*
X328416706Y-77150887D01*
X328462039Y-77132110D01*
X328466750Y-77130424D01*
X328513705Y-77116180D01*
X328518561Y-77114964D01*
X328566686Y-77105392D01*
X328571636Y-77104658D01*
X328620467Y-77099848D01*
X328625466Y-77099602D01*
X328643888Y-77099602D01*
X328650000Y-77099000D01*
X329150000Y-77099000D01*
X329156112Y-77099602D01*
X329174534Y-77099602D01*
X329179533Y-77099848D01*
X329228364Y-77104658D01*
X329233314Y-77105392D01*
X329281439Y-77114964D01*
X329286295Y-77116180D01*
X329333250Y-77130424D01*
X329337961Y-77132110D01*
X329383294Y-77150887D01*
X329387820Y-77153027D01*
X329431093Y-77176158D01*
X329435384Y-77178731D01*
X329476183Y-77205991D01*
X329480204Y-77208973D01*
X329518133Y-77240101D01*
X329521841Y-77243462D01*
X329556538Y-77278159D01*
X329559899Y-77281867D01*
X329591027Y-77319796D01*
X329594009Y-77323817D01*
X329621269Y-77364616D01*
X329623842Y-77368907D01*
X329646973Y-77412180D01*
X329649113Y-77416706D01*
X329667890Y-77462039D01*
X329669576Y-77466750D01*
X329683820Y-77513705D01*
X329685036Y-77518561D01*
X329694608Y-77566686D01*
X329695342Y-77571636D01*
X329700152Y-77620467D01*
X329700398Y-77625466D01*
X329700398Y-77643888D01*
X329701000Y-77650000D01*
X329701000Y-78150000D01*
X329700020Y-78159950D01*
G37*
G36*
X329700398Y-78956112D02*
G01*
X329700398Y-78974534D01*
X329700152Y-78979533D01*
X329695342Y-79028364D01*
X329694608Y-79033314D01*
X329685036Y-79081439D01*
X329683820Y-79086295D01*
X329669576Y-79133250D01*
X329667890Y-79137961D01*
X329649113Y-79183294D01*
X329646973Y-79187820D01*
X329623842Y-79231093D01*
X329621269Y-79235384D01*
X329594009Y-79276183D01*
X329591027Y-79280204D01*
X329559899Y-79318133D01*
X329556538Y-79321841D01*
X329521841Y-79356538D01*
X329518133Y-79359899D01*
X329480204Y-79391027D01*
X329476183Y-79394009D01*
X329435384Y-79421269D01*
X329431093Y-79423842D01*
X329387820Y-79446973D01*
X329383294Y-79449113D01*
X329337961Y-79467890D01*
X329333250Y-79469576D01*
X329286295Y-79483820D01*
X329281439Y-79485036D01*
X329233314Y-79494608D01*
X329228364Y-79495342D01*
X329179533Y-79500152D01*
X329174534Y-79500398D01*
X329156112Y-79500398D01*
X329150000Y-79501000D01*
X328650000Y-79501000D01*
X328643888Y-79500398D01*
X328625466Y-79500398D01*
X328620467Y-79500152D01*
X328571636Y-79495342D01*
X328566686Y-79494608D01*
X328518561Y-79485036D01*
X328513705Y-79483820D01*
X328466750Y-79469576D01*
X328462039Y-79467890D01*
X328416706Y-79449113D01*
X328412180Y-79446973D01*
X328368907Y-79423842D01*
X328364616Y-79421269D01*
X328323817Y-79394009D01*
X328319796Y-79391027D01*
X328281867Y-79359899D01*
X328278159Y-79356538D01*
X328243462Y-79321841D01*
X328240101Y-79318133D01*
X328208973Y-79280204D01*
X328205991Y-79276183D01*
X328178731Y-79235384D01*
X328176158Y-79231093D01*
X328153027Y-79187820D01*
X328150887Y-79183294D01*
X328132110Y-79137961D01*
X328130424Y-79133250D01*
X328116180Y-79086295D01*
X328114964Y-79081439D01*
X328105392Y-79033314D01*
X328104658Y-79028364D01*
X328099848Y-78979533D01*
X328099602Y-78974534D01*
X328099602Y-78956112D01*
X328099000Y-78950000D01*
X328099000Y-78450000D01*
X328099980Y-78440050D01*
X328102882Y-78430483D01*
X328107595Y-78421666D01*
X328113938Y-78413938D01*
X328121666Y-78407595D01*
X328130483Y-78402882D01*
X328140050Y-78399980D01*
X328150000Y-78399000D01*
X329650000Y-78399000D01*
X329659950Y-78399980D01*
X329669517Y-78402882D01*
X329678334Y-78407595D01*
X329686062Y-78413938D01*
X329692405Y-78421666D01*
X329697118Y-78430483D01*
X329700020Y-78440050D01*
X329701000Y-78450000D01*
X329701000Y-78950000D01*
X329700398Y-78956112D01*
G37*
G36*
X327100020Y-78159950D02*
G01*
X327097118Y-78169517D01*
X327092405Y-78178334D01*
X327086062Y-78186062D01*
X327078334Y-78192405D01*
X327069517Y-78197118D01*
X327059950Y-78200020D01*
X327050000Y-78201000D01*
X325550000Y-78201000D01*
X325540050Y-78200020D01*
X325530483Y-78197118D01*
X325521666Y-78192405D01*
X325513938Y-78186062D01*
X325507595Y-78178334D01*
X325502882Y-78169517D01*
X325499980Y-78159950D01*
X325499000Y-78150000D01*
X325499000Y-77650000D01*
X325499602Y-77643888D01*
X325499602Y-77625466D01*
X325499848Y-77620467D01*
X325504658Y-77571636D01*
X325505392Y-77566686D01*
X325514964Y-77518561D01*
X325516180Y-77513705D01*
X325530424Y-77466750D01*
X325532110Y-77462039D01*
X325550887Y-77416706D01*
X325553027Y-77412180D01*
X325576158Y-77368907D01*
X325578731Y-77364616D01*
X325605991Y-77323817D01*
X325608973Y-77319796D01*
X325640101Y-77281867D01*
X325643462Y-77278159D01*
X325678159Y-77243462D01*
X325681867Y-77240101D01*
X325719796Y-77208973D01*
X325723817Y-77205991D01*
X325764616Y-77178731D01*
X325768907Y-77176158D01*
X325812180Y-77153027D01*
X325816706Y-77150887D01*
X325862039Y-77132110D01*
X325866750Y-77130424D01*
X325913705Y-77116180D01*
X325918561Y-77114964D01*
X325966686Y-77105392D01*
X325971636Y-77104658D01*
X326020467Y-77099848D01*
X326025466Y-77099602D01*
X326043888Y-77099602D01*
X326050000Y-77099000D01*
X326550000Y-77099000D01*
X326556112Y-77099602D01*
X326574534Y-77099602D01*
X326579533Y-77099848D01*
X326628364Y-77104658D01*
X326633314Y-77105392D01*
X326681439Y-77114964D01*
X326686295Y-77116180D01*
X326733250Y-77130424D01*
X326737961Y-77132110D01*
X326783294Y-77150887D01*
X326787820Y-77153027D01*
X326831093Y-77176158D01*
X326835384Y-77178731D01*
X326876183Y-77205991D01*
X326880204Y-77208973D01*
X326918133Y-77240101D01*
X326921841Y-77243462D01*
X326956538Y-77278159D01*
X326959899Y-77281867D01*
X326991027Y-77319796D01*
X326994009Y-77323817D01*
X327021269Y-77364616D01*
X327023842Y-77368907D01*
X327046973Y-77412180D01*
X327049113Y-77416706D01*
X327067890Y-77462039D01*
X327069576Y-77466750D01*
X327083820Y-77513705D01*
X327085036Y-77518561D01*
X327094608Y-77566686D01*
X327095342Y-77571636D01*
X327100152Y-77620467D01*
X327100398Y-77625466D01*
X327100398Y-77643888D01*
X327101000Y-77650000D01*
X327101000Y-78150000D01*
X327100020Y-78159950D01*
G37*
G36*
X327100398Y-78956112D02*
G01*
X327100398Y-78974534D01*
X327100152Y-78979533D01*
X327095342Y-79028364D01*
X327094608Y-79033314D01*
X327085036Y-79081439D01*
X327083820Y-79086295D01*
X327069576Y-79133250D01*
X327067890Y-79137961D01*
X327049113Y-79183294D01*
X327046973Y-79187820D01*
X327023842Y-79231093D01*
X327021269Y-79235384D01*
X326994009Y-79276183D01*
X326991027Y-79280204D01*
X326959899Y-79318133D01*
X326956538Y-79321841D01*
X326921841Y-79356538D01*
X326918133Y-79359899D01*
X326880204Y-79391027D01*
X326876183Y-79394009D01*
X326835384Y-79421269D01*
X326831093Y-79423842D01*
X326787820Y-79446973D01*
X326783294Y-79449113D01*
X326737961Y-79467890D01*
X326733250Y-79469576D01*
X326686295Y-79483820D01*
X326681439Y-79485036D01*
X326633314Y-79494608D01*
X326628364Y-79495342D01*
X326579533Y-79500152D01*
X326574534Y-79500398D01*
X326556112Y-79500398D01*
X326550000Y-79501000D01*
X326050000Y-79501000D01*
X326043888Y-79500398D01*
X326025466Y-79500398D01*
X326020467Y-79500152D01*
X325971636Y-79495342D01*
X325966686Y-79494608D01*
X325918561Y-79485036D01*
X325913705Y-79483820D01*
X325866750Y-79469576D01*
X325862039Y-79467890D01*
X325816706Y-79449113D01*
X325812180Y-79446973D01*
X325768907Y-79423842D01*
X325764616Y-79421269D01*
X325723817Y-79394009D01*
X325719796Y-79391027D01*
X325681867Y-79359899D01*
X325678159Y-79356538D01*
X325643462Y-79321841D01*
X325640101Y-79318133D01*
X325608973Y-79280204D01*
X325605991Y-79276183D01*
X325578731Y-79235384D01*
X325576158Y-79231093D01*
X325553027Y-79187820D01*
X325550887Y-79183294D01*
X325532110Y-79137961D01*
X325530424Y-79133250D01*
X325516180Y-79086295D01*
X325514964Y-79081439D01*
X325505392Y-79033314D01*
X325504658Y-79028364D01*
X325499848Y-78979533D01*
X325499602Y-78974534D01*
X325499602Y-78956112D01*
X325499000Y-78950000D01*
X325499000Y-78450000D01*
X325499980Y-78440050D01*
X325502882Y-78430483D01*
X325507595Y-78421666D01*
X325513938Y-78413938D01*
X325521666Y-78407595D01*
X325530483Y-78402882D01*
X325540050Y-78399980D01*
X325550000Y-78399000D01*
X327050000Y-78399000D01*
X327059950Y-78399980D01*
X327069517Y-78402882D01*
X327078334Y-78407595D01*
X327086062Y-78413938D01*
X327092405Y-78421666D01*
X327097118Y-78430483D01*
X327100020Y-78440050D01*
X327101000Y-78450000D01*
X327101000Y-78950000D01*
X327100398Y-78956112D01*
G37*
G36*
G01*
X331218250Y-80424000D02*
X331781750Y-80424000D01*
G75*
G02*
X332026000Y-80668250I0J-244250D01*
G01*
X332026000Y-81156750D01*
G75*
G02*
X331781750Y-81401000I-244250J0D01*
G01*
X331218250Y-81401000D01*
G75*
G02*
X330974000Y-81156750I0J244250D01*
G01*
X330974000Y-80668250D01*
G75*
G02*
X331218250Y-80424000I244250J0D01*
G01*
G37*
G36*
G01*
X331218250Y-81999000D02*
X331781750Y-81999000D01*
G75*
G02*
X332026000Y-82243250I0J-244250D01*
G01*
X332026000Y-82731750D01*
G75*
G02*
X331781750Y-82976000I-244250J0D01*
G01*
X331218250Y-82976000D01*
G75*
G02*
X330974000Y-82731750I0J244250D01*
G01*
X330974000Y-82243250D01*
G75*
G02*
X331218250Y-81999000I244250J0D01*
G01*
G37*
G36*
G01*
X328618250Y-81999000D02*
X329181750Y-81999000D01*
G75*
G02*
X329426000Y-82243250I0J-244250D01*
G01*
X329426000Y-82731750D01*
G75*
G02*
X329181750Y-82976000I-244250J0D01*
G01*
X328618250Y-82976000D01*
G75*
G02*
X328374000Y-82731750I0J244250D01*
G01*
X328374000Y-82243250D01*
G75*
G02*
X328618250Y-81999000I244250J0D01*
G01*
G37*
G36*
G01*
X328618250Y-80424000D02*
X329181750Y-80424000D01*
G75*
G02*
X329426000Y-80668250I0J-244250D01*
G01*
X329426000Y-81156750D01*
G75*
G02*
X329181750Y-81401000I-244250J0D01*
G01*
X328618250Y-81401000D01*
G75*
G02*
X328374000Y-81156750I0J244250D01*
G01*
X328374000Y-80668250D01*
G75*
G02*
X328618250Y-80424000I244250J0D01*
G01*
G37*
G36*
G01*
X326018250Y-80424000D02*
X326581750Y-80424000D01*
G75*
G02*
X326826000Y-80668250I0J-244250D01*
G01*
X326826000Y-81156750D01*
G75*
G02*
X326581750Y-81401000I-244250J0D01*
G01*
X326018250Y-81401000D01*
G75*
G02*
X325774000Y-81156750I0J244250D01*
G01*
X325774000Y-80668250D01*
G75*
G02*
X326018250Y-80424000I244250J0D01*
G01*
G37*
G36*
G01*
X326018250Y-81999000D02*
X326581750Y-81999000D01*
G75*
G02*
X326826000Y-82243250I0J-244250D01*
G01*
X326826000Y-82731750D01*
G75*
G02*
X326581750Y-82976000I-244250J0D01*
G01*
X326018250Y-82976000D01*
G75*
G02*
X325774000Y-82731750I0J244250D01*
G01*
X325774000Y-82243250D01*
G75*
G02*
X326018250Y-81999000I244250J0D01*
G01*
G37*
D17*
X38000000Y-190000000D03*
X138000000Y-190000000D03*
X238000000Y-190000000D03*
X338000000Y-190000000D03*
G36*
G01*
X283449000Y-60375500D02*
X283449000Y-57324500D01*
G75*
G02*
X283724500Y-57049000I275500J0D01*
G01*
X284275500Y-57049000D01*
G75*
G02*
X284551000Y-57324500I0J-275500D01*
G01*
X284551000Y-60375500D01*
G75*
G02*
X284275500Y-60651000I-275500J0D01*
G01*
X283724500Y-60651000D01*
G75*
G02*
X283449000Y-60375500I0J275500D01*
G01*
G37*
G36*
G01*
X285449000Y-60375500D02*
X285449000Y-57324500D01*
G75*
G02*
X285724500Y-57049000I275500J0D01*
G01*
X286275500Y-57049000D01*
G75*
G02*
X286551000Y-57324500I0J-275500D01*
G01*
X286551000Y-60375500D01*
G75*
G02*
X286275500Y-60651000I-275500J0D01*
G01*
X285724500Y-60651000D01*
G75*
G02*
X285449000Y-60375500I0J275500D01*
G01*
G37*
G36*
G01*
X287449000Y-60375500D02*
X287449000Y-57324500D01*
G75*
G02*
X287724500Y-57049000I275500J0D01*
G01*
X288275500Y-57049000D01*
G75*
G02*
X288551000Y-57324500I0J-275500D01*
G01*
X288551000Y-60375500D01*
G75*
G02*
X288275500Y-60651000I-275500J0D01*
G01*
X287724500Y-60651000D01*
G75*
G02*
X287449000Y-60375500I0J275500D01*
G01*
G37*
G36*
G01*
X289449000Y-60375500D02*
X289449000Y-57324500D01*
G75*
G02*
X289724500Y-57049000I275500J0D01*
G01*
X290275500Y-57049000D01*
G75*
G02*
X290551000Y-57324500I0J-275500D01*
G01*
X290551000Y-60375500D01*
G75*
G02*
X290275500Y-60651000I-275500J0D01*
G01*
X289724500Y-60651000D01*
G75*
G02*
X289449000Y-60375500I0J275500D01*
G01*
G37*
G36*
G01*
X280849000Y-54584000D02*
X280849000Y-51616000D01*
G75*
G02*
X281116000Y-51349000I267000J0D01*
G01*
X282184000Y-51349000D01*
G75*
G02*
X282451000Y-51616000I0J-267000D01*
G01*
X282451000Y-54584000D01*
G75*
G02*
X282184000Y-54851000I-267000J0D01*
G01*
X281116000Y-54851000D01*
G75*
G02*
X280849000Y-54584000I0J267000D01*
G01*
G37*
G36*
G01*
X291549000Y-54584000D02*
X291549000Y-51616000D01*
G75*
G02*
X291816000Y-51349000I267000J0D01*
G01*
X292884000Y-51349000D01*
G75*
G02*
X293151000Y-51616000I0J-267000D01*
G01*
X293151000Y-54584000D01*
G75*
G02*
X292884000Y-54851000I-267000J0D01*
G01*
X291816000Y-54851000D01*
G75*
G02*
X291549000Y-54584000I0J267000D01*
G01*
G37*
M02*
