G04 #@! TF.GenerationSoftware,KiCad,Pcbnew,(5.1.6)-1*
G04 #@! TF.CreationDate,2021-03-28T22:48:09-04:00*
G04 #@! TF.ProjectId,keyboard-layout-tall,6b657962-6f61-4726-942d-6c61796f7574,rev?*
G04 #@! TF.SameCoordinates,Original*
G04 #@! TF.FileFunction,Legend,Top*
G04 #@! TF.FilePolarity,Positive*
%FSLAX46Y46*%
G04 Gerber Fmt 4.6, Leading zero omitted, Abs format (unit mm)*
G04 Created by KiCad (PCBNEW (5.1.6)-1) date 2021-03-28 22:48:09*
%MOMM*%
%LPD*%
G01*
G04 APERTURE LIST*
%ADD10C,0.150000*%
%ADD11C,0.120000*%
%ADD12C,1.626000*%
%ADD13C,3.152000*%
%ADD14C,4.102000*%
%ADD15C,1.802000*%
%ADD16C,2.302000*%
%ADD17C,3.302000*%
G04 APERTURE END LIST*
D10*
X296933333Y-83002380D02*
X296933333Y-82002380D01*
X297314285Y-82002380D01*
X297409523Y-82050000D01*
X297457142Y-82097619D01*
X297504761Y-82192857D01*
X297504761Y-82335714D01*
X297457142Y-82430952D01*
X297409523Y-82478571D01*
X297314285Y-82526190D01*
X296933333Y-82526190D01*
X297933333Y-83002380D02*
X297933333Y-82335714D01*
X297933333Y-82002380D02*
X297885714Y-82050000D01*
X297933333Y-82097619D01*
X297980952Y-82050000D01*
X297933333Y-82002380D01*
X297933333Y-82097619D01*
X299600000Y-82335714D02*
X299600000Y-83002380D01*
X299361904Y-81954761D02*
X299123809Y-82669047D01*
X299742857Y-82669047D01*
X300314285Y-82002380D02*
X300409523Y-82002380D01*
X300504761Y-82050000D01*
X300552380Y-82097619D01*
X300600000Y-82192857D01*
X300647619Y-82383333D01*
X300647619Y-82621428D01*
X300600000Y-82811904D01*
X300552380Y-82907142D01*
X300504761Y-82954761D01*
X300409523Y-83002380D01*
X300314285Y-83002380D01*
X300219047Y-82954761D01*
X300171428Y-82907142D01*
X300123809Y-82811904D01*
X300076190Y-82621428D01*
X300076190Y-82383333D01*
X300123809Y-82192857D01*
X300171428Y-82097619D01*
X300219047Y-82050000D01*
X300314285Y-82002380D01*
X301266666Y-82002380D02*
X301361904Y-82002380D01*
X301457142Y-82050000D01*
X301504761Y-82097619D01*
X301552380Y-82192857D01*
X301600000Y-82383333D01*
X301600000Y-82621428D01*
X301552380Y-82811904D01*
X301504761Y-82907142D01*
X301457142Y-82954761D01*
X301361904Y-83002380D01*
X301266666Y-83002380D01*
X301171428Y-82954761D01*
X301123809Y-82907142D01*
X301076190Y-82811904D01*
X301028571Y-82621428D01*
X301028571Y-82383333D01*
X301076190Y-82192857D01*
X301123809Y-82097619D01*
X301171428Y-82050000D01*
X301266666Y-82002380D01*
X302790476Y-83002380D02*
X302790476Y-82002380D01*
X303123809Y-82716666D01*
X303457142Y-82002380D01*
X303457142Y-83002380D01*
X304314285Y-82954761D02*
X304219047Y-83002380D01*
X304028571Y-83002380D01*
X303933333Y-82954761D01*
X303885714Y-82859523D01*
X303885714Y-82478571D01*
X303933333Y-82383333D01*
X304028571Y-82335714D01*
X304219047Y-82335714D01*
X304314285Y-82383333D01*
X304361904Y-82478571D01*
X304361904Y-82573809D01*
X303885714Y-82669047D01*
X305219047Y-82954761D02*
X305123809Y-83002380D01*
X304933333Y-83002380D01*
X304838095Y-82954761D01*
X304790476Y-82907142D01*
X304742857Y-82811904D01*
X304742857Y-82526190D01*
X304790476Y-82430952D01*
X304838095Y-82383333D01*
X304933333Y-82335714D01*
X305123809Y-82335714D01*
X305219047Y-82383333D01*
X305647619Y-83002380D02*
X305647619Y-82002380D01*
X306076190Y-83002380D02*
X306076190Y-82478571D01*
X306028571Y-82383333D01*
X305933333Y-82335714D01*
X305790476Y-82335714D01*
X305695238Y-82383333D01*
X305647619Y-82430952D01*
X306980952Y-83002380D02*
X306980952Y-82478571D01*
X306933333Y-82383333D01*
X306838095Y-82335714D01*
X306647619Y-82335714D01*
X306552380Y-82383333D01*
X306980952Y-82954761D02*
X306885714Y-83002380D01*
X306647619Y-83002380D01*
X306552380Y-82954761D01*
X306504761Y-82859523D01*
X306504761Y-82764285D01*
X306552380Y-82669047D01*
X306647619Y-82621428D01*
X306885714Y-82621428D01*
X306980952Y-82573809D01*
X307457142Y-82335714D02*
X307457142Y-83002380D01*
X307457142Y-82430952D02*
X307504761Y-82383333D01*
X307600000Y-82335714D01*
X307742857Y-82335714D01*
X307838095Y-82383333D01*
X307885714Y-82478571D01*
X307885714Y-83002380D01*
X308361904Y-83002380D02*
X308361904Y-82335714D01*
X308361904Y-82002380D02*
X308314285Y-82050000D01*
X308361904Y-82097619D01*
X308409523Y-82050000D01*
X308361904Y-82002380D01*
X308361904Y-82097619D01*
X309266666Y-82954761D02*
X309171428Y-83002380D01*
X308980952Y-83002380D01*
X308885714Y-82954761D01*
X308838095Y-82907142D01*
X308790476Y-82811904D01*
X308790476Y-82526190D01*
X308838095Y-82430952D01*
X308885714Y-82383333D01*
X308980952Y-82335714D01*
X309171428Y-82335714D01*
X309266666Y-82383333D01*
X310123809Y-83002380D02*
X310123809Y-82478571D01*
X310076190Y-82383333D01*
X309980952Y-82335714D01*
X309790476Y-82335714D01*
X309695238Y-82383333D01*
X310123809Y-82954761D02*
X310028571Y-83002380D01*
X309790476Y-83002380D01*
X309695238Y-82954761D01*
X309647619Y-82859523D01*
X309647619Y-82764285D01*
X309695238Y-82669047D01*
X309790476Y-82621428D01*
X310028571Y-82621428D01*
X310123809Y-82573809D01*
X310742857Y-83002380D02*
X310647619Y-82954761D01*
X310600000Y-82859523D01*
X310600000Y-82002380D01*
X311885714Y-83002380D02*
X311885714Y-82002380D01*
X312457142Y-83002380D02*
X312028571Y-82430952D01*
X312457142Y-82002380D02*
X311885714Y-82573809D01*
X313266666Y-82954761D02*
X313171428Y-83002380D01*
X312980952Y-83002380D01*
X312885714Y-82954761D01*
X312838095Y-82859523D01*
X312838095Y-82478571D01*
X312885714Y-82383333D01*
X312980952Y-82335714D01*
X313171428Y-82335714D01*
X313266666Y-82383333D01*
X313314285Y-82478571D01*
X313314285Y-82573809D01*
X312838095Y-82669047D01*
X313647619Y-82335714D02*
X313885714Y-83002380D01*
X314123809Y-82335714D02*
X313885714Y-83002380D01*
X313790476Y-83240476D01*
X313742857Y-83288095D01*
X313647619Y-83335714D01*
X314504761Y-83002380D02*
X314504761Y-82002380D01*
X314504761Y-82383333D02*
X314600000Y-82335714D01*
X314790476Y-82335714D01*
X314885714Y-82383333D01*
X314933333Y-82430952D01*
X314980952Y-82526190D01*
X314980952Y-82811904D01*
X314933333Y-82907142D01*
X314885714Y-82954761D01*
X314790476Y-83002380D01*
X314600000Y-83002380D01*
X314504761Y-82954761D01*
X315552380Y-83002380D02*
X315457142Y-82954761D01*
X315409523Y-82907142D01*
X315361904Y-82811904D01*
X315361904Y-82526190D01*
X315409523Y-82430952D01*
X315457142Y-82383333D01*
X315552380Y-82335714D01*
X315695238Y-82335714D01*
X315790476Y-82383333D01*
X315838095Y-82430952D01*
X315885714Y-82526190D01*
X315885714Y-82811904D01*
X315838095Y-82907142D01*
X315790476Y-82954761D01*
X315695238Y-83002380D01*
X315552380Y-83002380D01*
X316742857Y-83002380D02*
X316742857Y-82478571D01*
X316695238Y-82383333D01*
X316600000Y-82335714D01*
X316409523Y-82335714D01*
X316314285Y-82383333D01*
X316742857Y-82954761D02*
X316647619Y-83002380D01*
X316409523Y-83002380D01*
X316314285Y-82954761D01*
X316266666Y-82859523D01*
X316266666Y-82764285D01*
X316314285Y-82669047D01*
X316409523Y-82621428D01*
X316647619Y-82621428D01*
X316742857Y-82573809D01*
X317219047Y-83002380D02*
X317219047Y-82335714D01*
X317219047Y-82526190D02*
X317266666Y-82430952D01*
X317314285Y-82383333D01*
X317409523Y-82335714D01*
X317504761Y-82335714D01*
X318266666Y-83002380D02*
X318266666Y-82002380D01*
X318266666Y-82954761D02*
X318171428Y-83002380D01*
X317980952Y-83002380D01*
X317885714Y-82954761D01*
X317838095Y-82907142D01*
X317790476Y-82811904D01*
X317790476Y-82526190D01*
X317838095Y-82430952D01*
X317885714Y-82383333D01*
X317980952Y-82335714D01*
X318171428Y-82335714D01*
X318266666Y-82383333D01*
X304266666Y-84652380D02*
X304266666Y-83652380D01*
X304266666Y-84033333D02*
X304361904Y-83985714D01*
X304552380Y-83985714D01*
X304647619Y-84033333D01*
X304695238Y-84080952D01*
X304742857Y-84176190D01*
X304742857Y-84461904D01*
X304695238Y-84557142D01*
X304647619Y-84604761D01*
X304552380Y-84652380D01*
X304361904Y-84652380D01*
X304266666Y-84604761D01*
X305076190Y-83985714D02*
X305314285Y-84652380D01*
X305552380Y-83985714D02*
X305314285Y-84652380D01*
X305219047Y-84890476D01*
X305171428Y-84938095D01*
X305076190Y-84985714D01*
X306695238Y-84652380D02*
X306695238Y-83985714D01*
X306695238Y-84176190D02*
X306742857Y-84080952D01*
X306790476Y-84033333D01*
X306885714Y-83985714D01*
X306980952Y-83985714D01*
X307742857Y-83985714D02*
X307742857Y-84795238D01*
X307695238Y-84890476D01*
X307647619Y-84938095D01*
X307552380Y-84985714D01*
X307409523Y-84985714D01*
X307314285Y-84938095D01*
X307742857Y-84604761D02*
X307647619Y-84652380D01*
X307457142Y-84652380D01*
X307361904Y-84604761D01*
X307314285Y-84557142D01*
X307266666Y-84461904D01*
X307266666Y-84176190D01*
X307314285Y-84080952D01*
X307361904Y-84033333D01*
X307457142Y-83985714D01*
X307647619Y-83985714D01*
X307742857Y-84033333D01*
X308361904Y-84652380D02*
X308266666Y-84604761D01*
X308219047Y-84509523D01*
X308219047Y-83652380D01*
X309123809Y-84604761D02*
X309028571Y-84652380D01*
X308838095Y-84652380D01*
X308742857Y-84604761D01*
X308695238Y-84509523D01*
X308695238Y-84128571D01*
X308742857Y-84033333D01*
X308838095Y-83985714D01*
X309028571Y-83985714D01*
X309123809Y-84033333D01*
X309171428Y-84128571D01*
X309171428Y-84223809D01*
X308695238Y-84319047D01*
X309600000Y-83985714D02*
X309600000Y-84652380D01*
X309600000Y-84080952D02*
X309647619Y-84033333D01*
X309742857Y-83985714D01*
X309885714Y-83985714D01*
X309980952Y-84033333D01*
X310028571Y-84128571D01*
X310028571Y-84652380D01*
X310504761Y-83985714D02*
X310504761Y-84652380D01*
X310504761Y-84080952D02*
X310552380Y-84033333D01*
X310647619Y-83985714D01*
X310790476Y-83985714D01*
X310885714Y-84033333D01*
X310933333Y-84128571D01*
X310933333Y-84652380D01*
X302742857Y-85397619D02*
X302790476Y-85350000D01*
X302885714Y-85302380D01*
X303123809Y-85302380D01*
X303219047Y-85350000D01*
X303266666Y-85397619D01*
X303314285Y-85492857D01*
X303314285Y-85588095D01*
X303266666Y-85730952D01*
X302695238Y-86302380D01*
X303314285Y-86302380D01*
X303933333Y-85302380D02*
X304028571Y-85302380D01*
X304123809Y-85350000D01*
X304171428Y-85397619D01*
X304219047Y-85492857D01*
X304266666Y-85683333D01*
X304266666Y-85921428D01*
X304219047Y-86111904D01*
X304171428Y-86207142D01*
X304123809Y-86254761D01*
X304028571Y-86302380D01*
X303933333Y-86302380D01*
X303838095Y-86254761D01*
X303790476Y-86207142D01*
X303742857Y-86111904D01*
X303695238Y-85921428D01*
X303695238Y-85683333D01*
X303742857Y-85492857D01*
X303790476Y-85397619D01*
X303838095Y-85350000D01*
X303933333Y-85302380D01*
X304647619Y-85397619D02*
X304695238Y-85350000D01*
X304790476Y-85302380D01*
X305028571Y-85302380D01*
X305123809Y-85350000D01*
X305171428Y-85397619D01*
X305219047Y-85492857D01*
X305219047Y-85588095D01*
X305171428Y-85730952D01*
X304600000Y-86302380D01*
X305219047Y-86302380D01*
X306171428Y-86302380D02*
X305600000Y-86302380D01*
X305885714Y-86302380D02*
X305885714Y-85302380D01*
X305790476Y-85445238D01*
X305695238Y-85540476D01*
X305600000Y-85588095D01*
X306600000Y-85921428D02*
X307361904Y-85921428D01*
X308028571Y-85302380D02*
X308123809Y-85302380D01*
X308219047Y-85350000D01*
X308266666Y-85397619D01*
X308314285Y-85492857D01*
X308361904Y-85683333D01*
X308361904Y-85921428D01*
X308314285Y-86111904D01*
X308266666Y-86207142D01*
X308219047Y-86254761D01*
X308123809Y-86302380D01*
X308028571Y-86302380D01*
X307933333Y-86254761D01*
X307885714Y-86207142D01*
X307838095Y-86111904D01*
X307790476Y-85921428D01*
X307790476Y-85683333D01*
X307838095Y-85492857D01*
X307885714Y-85397619D01*
X307933333Y-85350000D01*
X308028571Y-85302380D01*
X308695238Y-85302380D02*
X309314285Y-85302380D01*
X308980952Y-85683333D01*
X309123809Y-85683333D01*
X309219047Y-85730952D01*
X309266666Y-85778571D01*
X309314285Y-85873809D01*
X309314285Y-86111904D01*
X309266666Y-86207142D01*
X309219047Y-86254761D01*
X309123809Y-86302380D01*
X308838095Y-86302380D01*
X308742857Y-86254761D01*
X308695238Y-86207142D01*
X309742857Y-85921428D02*
X310504761Y-85921428D01*
X310933333Y-85397619D02*
X310980952Y-85350000D01*
X311076190Y-85302380D01*
X311314285Y-85302380D01*
X311409523Y-85350000D01*
X311457142Y-85397619D01*
X311504761Y-85492857D01*
X311504761Y-85588095D01*
X311457142Y-85730952D01*
X310885714Y-86302380D01*
X311504761Y-86302380D01*
X312076190Y-85730952D02*
X311980952Y-85683333D01*
X311933333Y-85635714D01*
X311885714Y-85540476D01*
X311885714Y-85492857D01*
X311933333Y-85397619D01*
X311980952Y-85350000D01*
X312076190Y-85302380D01*
X312266666Y-85302380D01*
X312361904Y-85350000D01*
X312409523Y-85397619D01*
X312457142Y-85492857D01*
X312457142Y-85540476D01*
X312409523Y-85635714D01*
X312361904Y-85683333D01*
X312266666Y-85730952D01*
X312076190Y-85730952D01*
X311980952Y-85778571D01*
X311933333Y-85826190D01*
X311885714Y-85921428D01*
X311885714Y-86111904D01*
X311933333Y-86207142D01*
X311980952Y-86254761D01*
X312076190Y-86302380D01*
X312266666Y-86302380D01*
X312361904Y-86254761D01*
X312409523Y-86207142D01*
X312457142Y-86111904D01*
X312457142Y-85921428D01*
X312409523Y-85826190D01*
X312361904Y-85778571D01*
X312266666Y-85730952D01*
X282500000Y-62000000D02*
X332500000Y-62000000D01*
X332500000Y-62000000D02*
X332500000Y-77000000D01*
X332500000Y-77000000D02*
X282500000Y-77000000D01*
X282500000Y-77000000D02*
X282500000Y-62000000D01*
D11*
X295175000Y-91450000D02*
X309145000Y-91450000D01*
X309145000Y-91450000D02*
X309145000Y-105420000D01*
X309145000Y-105420000D02*
X295175000Y-105420000D01*
X295175000Y-105420000D02*
X295175000Y-91450000D01*
X292793750Y-129550000D02*
X306763750Y-129550000D01*
X306763750Y-129550000D02*
X306763750Y-143520000D01*
X306763750Y-143520000D02*
X292793750Y-143520000D01*
X292793750Y-143520000D02*
X292793750Y-129550000D01*
X49906250Y-148600000D02*
X63876250Y-148600000D01*
X63876250Y-148600000D02*
X63876250Y-162570000D01*
X63876250Y-162570000D02*
X49906250Y-162570000D01*
X49906250Y-162570000D02*
X49906250Y-148600000D01*
X299937500Y-110500000D02*
X313907500Y-110500000D01*
X313907500Y-110500000D02*
X313907500Y-124470000D01*
X313907500Y-124470000D02*
X299937500Y-124470000D01*
X299937500Y-124470000D02*
X299937500Y-110500000D01*
X42762500Y-110500000D02*
X56732500Y-110500000D01*
X56732500Y-110500000D02*
X56732500Y-124470000D01*
X56732500Y-124470000D02*
X42762500Y-124470000D01*
X42762500Y-124470000D02*
X42762500Y-110500000D01*
X278506250Y-148600000D02*
X292476250Y-148600000D01*
X292476250Y-148600000D02*
X292476250Y-162570000D01*
X292476250Y-162570000D02*
X278506250Y-162570000D01*
X278506250Y-162570000D02*
X278506250Y-148600000D01*
X45143750Y-129550000D02*
X59113750Y-129550000D01*
X59113750Y-129550000D02*
X59113750Y-143520000D01*
X59113750Y-143520000D02*
X45143750Y-143520000D01*
X45143750Y-143520000D02*
X45143750Y-129550000D01*
X40381250Y-167650000D02*
X54351250Y-167650000D01*
X54351250Y-167650000D02*
X54351250Y-181620000D01*
X54351250Y-181620000D02*
X40381250Y-181620000D01*
X40381250Y-181620000D02*
X40381250Y-167650000D01*
X83243750Y-167650000D02*
X97213750Y-167650000D01*
X97213750Y-167650000D02*
X97213750Y-181620000D01*
X97213750Y-181620000D02*
X83243750Y-181620000D01*
X83243750Y-181620000D02*
X83243750Y-167650000D01*
X240406250Y-167650000D02*
X254376250Y-167650000D01*
X254376250Y-167650000D02*
X254376250Y-181620000D01*
X254376250Y-181620000D02*
X240406250Y-181620000D01*
X240406250Y-181620000D02*
X240406250Y-167650000D01*
X264218750Y-167650000D02*
X278188750Y-167650000D01*
X278188750Y-167650000D02*
X278188750Y-181620000D01*
X278188750Y-181620000D02*
X264218750Y-181620000D01*
X264218750Y-181620000D02*
X264218750Y-167650000D01*
X157062500Y-148600000D02*
X171032500Y-148600000D01*
X171032500Y-148600000D02*
X171032500Y-162570000D01*
X171032500Y-162570000D02*
X157062500Y-162570000D01*
X157062500Y-162570000D02*
X157062500Y-148600000D01*
X104675000Y-62875000D02*
X118645000Y-62875000D01*
X118645000Y-62875000D02*
X118645000Y-76845000D01*
X118645000Y-76845000D02*
X104675000Y-76845000D01*
X104675000Y-76845000D02*
X104675000Y-62875000D01*
X38000000Y-62875000D02*
X51970000Y-62875000D01*
X51970000Y-62875000D02*
X51970000Y-76845000D01*
X51970000Y-76845000D02*
X38000000Y-76845000D01*
X38000000Y-76845000D02*
X38000000Y-62875000D01*
X323750000Y-167650000D02*
X337720000Y-167650000D01*
X337720000Y-167650000D02*
X337720000Y-181620000D01*
X337720000Y-181620000D02*
X323750000Y-181620000D01*
X323750000Y-181620000D02*
X323750000Y-167650000D01*
X304700000Y-148600000D02*
X318670000Y-148600000D01*
X318670000Y-148600000D02*
X318670000Y-162570000D01*
X318670000Y-162570000D02*
X304700000Y-162570000D01*
X304700000Y-162570000D02*
X304700000Y-148600000D01*
X166587500Y-129550000D02*
X180557500Y-129550000D01*
X180557500Y-129550000D02*
X180557500Y-143520000D01*
X180557500Y-143520000D02*
X166587500Y-143520000D01*
X166587500Y-143520000D02*
X166587500Y-129550000D01*
X176112500Y-148600000D02*
X190082500Y-148600000D01*
X190082500Y-148600000D02*
X190082500Y-162570000D01*
X190082500Y-162570000D02*
X176112500Y-162570000D01*
X176112500Y-162570000D02*
X176112500Y-148600000D01*
X99912500Y-148600000D02*
X113882500Y-148600000D01*
X113882500Y-148600000D02*
X113882500Y-162570000D01*
X113882500Y-162570000D02*
X99912500Y-162570000D01*
X99912500Y-162570000D02*
X99912500Y-148600000D01*
X90387500Y-129550000D02*
X104357500Y-129550000D01*
X104357500Y-129550000D02*
X104357500Y-143520000D01*
X104357500Y-143520000D02*
X90387500Y-143520000D01*
X90387500Y-143520000D02*
X90387500Y-129550000D01*
X66575000Y-62875000D02*
X80545000Y-62875000D01*
X80545000Y-62875000D02*
X80545000Y-76845000D01*
X80545000Y-76845000D02*
X66575000Y-76845000D01*
X66575000Y-76845000D02*
X66575000Y-62875000D01*
X85625000Y-62875000D02*
X99595000Y-62875000D01*
X99595000Y-62875000D02*
X99595000Y-76845000D01*
X99595000Y-76845000D02*
X85625000Y-76845000D01*
X85625000Y-76845000D02*
X85625000Y-62875000D01*
X123725000Y-62875000D02*
X137695000Y-62875000D01*
X137695000Y-62875000D02*
X137695000Y-76845000D01*
X137695000Y-76845000D02*
X123725000Y-76845000D01*
X123725000Y-76845000D02*
X123725000Y-62875000D01*
X152300000Y-62875000D02*
X166270000Y-62875000D01*
X166270000Y-62875000D02*
X166270000Y-76845000D01*
X166270000Y-76845000D02*
X152300000Y-76845000D01*
X152300000Y-76845000D02*
X152300000Y-62875000D01*
X171350000Y-62875000D02*
X185320000Y-62875000D01*
X185320000Y-62875000D02*
X185320000Y-76845000D01*
X185320000Y-76845000D02*
X171350000Y-76845000D01*
X171350000Y-76845000D02*
X171350000Y-62875000D01*
X190400000Y-62875000D02*
X204370000Y-62875000D01*
X204370000Y-62875000D02*
X204370000Y-76845000D01*
X204370000Y-76845000D02*
X190400000Y-76845000D01*
X190400000Y-76845000D02*
X190400000Y-62875000D01*
X209450000Y-62875000D02*
X223420000Y-62875000D01*
X223420000Y-62875000D02*
X223420000Y-76845000D01*
X223420000Y-76845000D02*
X209450000Y-76845000D01*
X209450000Y-76845000D02*
X209450000Y-62875000D01*
X238025000Y-62875000D02*
X251995000Y-62875000D01*
X251995000Y-62875000D02*
X251995000Y-76845000D01*
X251995000Y-76845000D02*
X238025000Y-76845000D01*
X238025000Y-76845000D02*
X238025000Y-62875000D01*
X257075000Y-62875000D02*
X271045000Y-62875000D01*
X271045000Y-62875000D02*
X271045000Y-76845000D01*
X271045000Y-76845000D02*
X257075000Y-76845000D01*
X257075000Y-76845000D02*
X257075000Y-62875000D01*
X38000000Y-91450000D02*
X51970000Y-91450000D01*
X51970000Y-91450000D02*
X51970000Y-105420000D01*
X51970000Y-105420000D02*
X38000000Y-105420000D01*
X38000000Y-105420000D02*
X38000000Y-91450000D01*
X57050000Y-91450000D02*
X71020000Y-91450000D01*
X71020000Y-91450000D02*
X71020000Y-105420000D01*
X71020000Y-105420000D02*
X57050000Y-105420000D01*
X57050000Y-105420000D02*
X57050000Y-91450000D01*
X76100000Y-91450000D02*
X90070000Y-91450000D01*
X90070000Y-91450000D02*
X90070000Y-105420000D01*
X90070000Y-105420000D02*
X76100000Y-105420000D01*
X76100000Y-105420000D02*
X76100000Y-91450000D01*
X95150000Y-91450000D02*
X109120000Y-91450000D01*
X109120000Y-91450000D02*
X109120000Y-105420000D01*
X109120000Y-105420000D02*
X95150000Y-105420000D01*
X95150000Y-105420000D02*
X95150000Y-91450000D01*
X114200000Y-91450000D02*
X128170000Y-91450000D01*
X128170000Y-91450000D02*
X128170000Y-105420000D01*
X128170000Y-105420000D02*
X114200000Y-105420000D01*
X114200000Y-105420000D02*
X114200000Y-91450000D01*
X133250000Y-91450000D02*
X147220000Y-91450000D01*
X147220000Y-91450000D02*
X147220000Y-105420000D01*
X147220000Y-105420000D02*
X133250000Y-105420000D01*
X133250000Y-105420000D02*
X133250000Y-91450000D01*
X152300000Y-91450000D02*
X166270000Y-91450000D01*
X166270000Y-91450000D02*
X166270000Y-105420000D01*
X166270000Y-105420000D02*
X152300000Y-105420000D01*
X152300000Y-105420000D02*
X152300000Y-91450000D01*
X171350000Y-91450000D02*
X185320000Y-91450000D01*
X185320000Y-91450000D02*
X185320000Y-105420000D01*
X185320000Y-105420000D02*
X171350000Y-105420000D01*
X171350000Y-105420000D02*
X171350000Y-91450000D01*
X190400000Y-91450000D02*
X204370000Y-91450000D01*
X204370000Y-91450000D02*
X204370000Y-105420000D01*
X204370000Y-105420000D02*
X190400000Y-105420000D01*
X190400000Y-105420000D02*
X190400000Y-91450000D01*
X209450000Y-91450000D02*
X223420000Y-91450000D01*
X223420000Y-91450000D02*
X223420000Y-105420000D01*
X223420000Y-105420000D02*
X209450000Y-105420000D01*
X209450000Y-105420000D02*
X209450000Y-91450000D01*
X228500000Y-91450000D02*
X242470000Y-91450000D01*
X242470000Y-91450000D02*
X242470000Y-105420000D01*
X242470000Y-105420000D02*
X228500000Y-105420000D01*
X228500000Y-105420000D02*
X228500000Y-91450000D01*
X247550000Y-91450000D02*
X261520000Y-91450000D01*
X261520000Y-91450000D02*
X261520000Y-105420000D01*
X261520000Y-105420000D02*
X247550000Y-105420000D01*
X247550000Y-105420000D02*
X247550000Y-91450000D01*
X266600000Y-91450000D02*
X280570000Y-91450000D01*
X280570000Y-91450000D02*
X280570000Y-105420000D01*
X280570000Y-105420000D02*
X266600000Y-105420000D01*
X266600000Y-105420000D02*
X266600000Y-91450000D01*
X323750000Y-91450000D02*
X337720000Y-91450000D01*
X337720000Y-91450000D02*
X337720000Y-105420000D01*
X337720000Y-105420000D02*
X323750000Y-105420000D01*
X323750000Y-105420000D02*
X323750000Y-91450000D01*
X66575000Y-110500000D02*
X80545000Y-110500000D01*
X80545000Y-110500000D02*
X80545000Y-124470000D01*
X80545000Y-124470000D02*
X66575000Y-124470000D01*
X66575000Y-124470000D02*
X66575000Y-110500000D01*
X85625000Y-110500000D02*
X99595000Y-110500000D01*
X99595000Y-110500000D02*
X99595000Y-124470000D01*
X99595000Y-124470000D02*
X85625000Y-124470000D01*
X85625000Y-124470000D02*
X85625000Y-110500000D01*
X104675000Y-110500000D02*
X118645000Y-110500000D01*
X118645000Y-110500000D02*
X118645000Y-124470000D01*
X118645000Y-124470000D02*
X104675000Y-124470000D01*
X104675000Y-124470000D02*
X104675000Y-110500000D01*
X123725000Y-110500000D02*
X137695000Y-110500000D01*
X137695000Y-110500000D02*
X137695000Y-124470000D01*
X137695000Y-124470000D02*
X123725000Y-124470000D01*
X123725000Y-124470000D02*
X123725000Y-110500000D01*
X142775000Y-110500000D02*
X156745000Y-110500000D01*
X156745000Y-110500000D02*
X156745000Y-124470000D01*
X156745000Y-124470000D02*
X142775000Y-124470000D01*
X142775000Y-124470000D02*
X142775000Y-110500000D01*
X161825000Y-110500000D02*
X175795000Y-110500000D01*
X175795000Y-110500000D02*
X175795000Y-124470000D01*
X175795000Y-124470000D02*
X161825000Y-124470000D01*
X161825000Y-124470000D02*
X161825000Y-110500000D01*
X180875000Y-110500000D02*
X194845000Y-110500000D01*
X194845000Y-110500000D02*
X194845000Y-124470000D01*
X194845000Y-124470000D02*
X180875000Y-124470000D01*
X180875000Y-124470000D02*
X180875000Y-110500000D01*
X199925000Y-110500000D02*
X213895000Y-110500000D01*
X213895000Y-110500000D02*
X213895000Y-124470000D01*
X213895000Y-124470000D02*
X199925000Y-124470000D01*
X199925000Y-124470000D02*
X199925000Y-110500000D01*
X218975000Y-110500000D02*
X232945000Y-110500000D01*
X232945000Y-110500000D02*
X232945000Y-124470000D01*
X232945000Y-124470000D02*
X218975000Y-124470000D01*
X218975000Y-124470000D02*
X218975000Y-110500000D01*
X238025000Y-110500000D02*
X251995000Y-110500000D01*
X251995000Y-110500000D02*
X251995000Y-124470000D01*
X251995000Y-124470000D02*
X238025000Y-124470000D01*
X238025000Y-124470000D02*
X238025000Y-110500000D01*
X257075000Y-110500000D02*
X271045000Y-110500000D01*
X271045000Y-110500000D02*
X271045000Y-124470000D01*
X271045000Y-124470000D02*
X257075000Y-124470000D01*
X257075000Y-124470000D02*
X257075000Y-110500000D01*
X276125000Y-110500000D02*
X290095000Y-110500000D01*
X290095000Y-110500000D02*
X290095000Y-124470000D01*
X290095000Y-124470000D02*
X276125000Y-124470000D01*
X276125000Y-124470000D02*
X276125000Y-110500000D01*
X323750000Y-110500000D02*
X337720000Y-110500000D01*
X337720000Y-110500000D02*
X337720000Y-124470000D01*
X337720000Y-124470000D02*
X323750000Y-124470000D01*
X323750000Y-124470000D02*
X323750000Y-110500000D01*
X71337500Y-129550000D02*
X85307500Y-129550000D01*
X85307500Y-129550000D02*
X85307500Y-143520000D01*
X85307500Y-143520000D02*
X71337500Y-143520000D01*
X71337500Y-143520000D02*
X71337500Y-129550000D01*
X109437500Y-129550000D02*
X123407500Y-129550000D01*
X123407500Y-129550000D02*
X123407500Y-143520000D01*
X123407500Y-143520000D02*
X109437500Y-143520000D01*
X109437500Y-143520000D02*
X109437500Y-129550000D01*
X128487500Y-129550000D02*
X142457500Y-129550000D01*
X142457500Y-129550000D02*
X142457500Y-143520000D01*
X142457500Y-143520000D02*
X128487500Y-143520000D01*
X128487500Y-143520000D02*
X128487500Y-129550000D01*
X147537500Y-129550000D02*
X161507500Y-129550000D01*
X161507500Y-129550000D02*
X161507500Y-143520000D01*
X161507500Y-143520000D02*
X147537500Y-143520000D01*
X147537500Y-143520000D02*
X147537500Y-129550000D01*
X185637500Y-129550000D02*
X199607500Y-129550000D01*
X199607500Y-129550000D02*
X199607500Y-143520000D01*
X199607500Y-143520000D02*
X185637500Y-143520000D01*
X185637500Y-143520000D02*
X185637500Y-129550000D01*
X204687500Y-129550000D02*
X218657500Y-129550000D01*
X218657500Y-129550000D02*
X218657500Y-143520000D01*
X218657500Y-143520000D02*
X204687500Y-143520000D01*
X204687500Y-143520000D02*
X204687500Y-129550000D01*
X223737500Y-129550000D02*
X237707500Y-129550000D01*
X237707500Y-129550000D02*
X237707500Y-143520000D01*
X237707500Y-143520000D02*
X223737500Y-143520000D01*
X223737500Y-143520000D02*
X223737500Y-129550000D01*
X242787500Y-129550000D02*
X256757500Y-129550000D01*
X256757500Y-129550000D02*
X256757500Y-143520000D01*
X256757500Y-143520000D02*
X242787500Y-143520000D01*
X242787500Y-143520000D02*
X242787500Y-129550000D01*
X261837500Y-129550000D02*
X275807500Y-129550000D01*
X275807500Y-129550000D02*
X275807500Y-143520000D01*
X275807500Y-143520000D02*
X261837500Y-143520000D01*
X261837500Y-143520000D02*
X261837500Y-129550000D01*
X323750000Y-129550000D02*
X337720000Y-129550000D01*
X337720000Y-129550000D02*
X337720000Y-143520000D01*
X337720000Y-143520000D02*
X323750000Y-143520000D01*
X323750000Y-143520000D02*
X323750000Y-129550000D01*
X80862500Y-148600000D02*
X94832500Y-148600000D01*
X94832500Y-148600000D02*
X94832500Y-162570000D01*
X94832500Y-162570000D02*
X80862500Y-162570000D01*
X80862500Y-162570000D02*
X80862500Y-148600000D01*
X118962500Y-148600000D02*
X132932500Y-148600000D01*
X132932500Y-148600000D02*
X132932500Y-162570000D01*
X132932500Y-162570000D02*
X118962500Y-162570000D01*
X118962500Y-162570000D02*
X118962500Y-148600000D01*
X138012500Y-148600000D02*
X151982500Y-148600000D01*
X151982500Y-148600000D02*
X151982500Y-162570000D01*
X151982500Y-162570000D02*
X138012500Y-162570000D01*
X138012500Y-162570000D02*
X138012500Y-148600000D01*
X195162500Y-148600000D02*
X209132500Y-148600000D01*
X209132500Y-148600000D02*
X209132500Y-162570000D01*
X209132500Y-162570000D02*
X195162500Y-162570000D01*
X195162500Y-162570000D02*
X195162500Y-148600000D01*
X214212500Y-148600000D02*
X228182500Y-148600000D01*
X228182500Y-148600000D02*
X228182500Y-162570000D01*
X228182500Y-162570000D02*
X214212500Y-162570000D01*
X214212500Y-162570000D02*
X214212500Y-148600000D01*
X233262500Y-148600000D02*
X247232500Y-148600000D01*
X247232500Y-148600000D02*
X247232500Y-162570000D01*
X247232500Y-162570000D02*
X233262500Y-162570000D01*
X233262500Y-162570000D02*
X233262500Y-148600000D01*
X252312500Y-148600000D02*
X266282500Y-148600000D01*
X266282500Y-148600000D02*
X266282500Y-162570000D01*
X266282500Y-162570000D02*
X252312500Y-162570000D01*
X252312500Y-162570000D02*
X252312500Y-148600000D01*
X323750000Y-148600000D02*
X337720000Y-148600000D01*
X337720000Y-148600000D02*
X337720000Y-162570000D01*
X337720000Y-162570000D02*
X323750000Y-162570000D01*
X323750000Y-162570000D02*
X323750000Y-148600000D01*
X61812500Y-167650000D02*
X75782500Y-167650000D01*
X75782500Y-167650000D02*
X75782500Y-181620000D01*
X75782500Y-181620000D02*
X61812500Y-181620000D01*
X61812500Y-181620000D02*
X61812500Y-167650000D01*
X285650000Y-167650000D02*
X299620000Y-167650000D01*
X299620000Y-167650000D02*
X299620000Y-181620000D01*
X299620000Y-181620000D02*
X285650000Y-181620000D01*
X285650000Y-181620000D02*
X285650000Y-167650000D01*
X304700000Y-167650000D02*
X318670000Y-167650000D01*
X318670000Y-167650000D02*
X318670000Y-181620000D01*
X318670000Y-181620000D02*
X304700000Y-181620000D01*
X304700000Y-181620000D02*
X304700000Y-167650000D01*
X161825000Y-167650000D02*
X175795000Y-167650000D01*
X175795000Y-167650000D02*
X175795000Y-181620000D01*
X175795000Y-181620000D02*
X161825000Y-181620000D01*
X161825000Y-181620000D02*
X161825000Y-167650000D01*
D10*
X306285714Y-78452380D02*
X306285714Y-77452380D01*
X306523809Y-77452380D01*
X306666666Y-77500000D01*
X306761904Y-77595238D01*
X306809523Y-77690476D01*
X306857142Y-77880952D01*
X306857142Y-78023809D01*
X306809523Y-78214285D01*
X306761904Y-78309523D01*
X306666666Y-78404761D01*
X306523809Y-78452380D01*
X306285714Y-78452380D01*
X307238095Y-78404761D02*
X307380952Y-78452380D01*
X307619047Y-78452380D01*
X307714285Y-78404761D01*
X307761904Y-78357142D01*
X307809523Y-78261904D01*
X307809523Y-78166666D01*
X307761904Y-78071428D01*
X307714285Y-78023809D01*
X307619047Y-77976190D01*
X307428571Y-77928571D01*
X307333333Y-77880952D01*
X307285714Y-77833333D01*
X307238095Y-77738095D01*
X307238095Y-77642857D01*
X307285714Y-77547619D01*
X307333333Y-77500000D01*
X307428571Y-77452380D01*
X307666666Y-77452380D01*
X307809523Y-77500000D01*
X308761904Y-78452380D02*
X308190476Y-78452380D01*
X308476190Y-78452380D02*
X308476190Y-77452380D01*
X308380952Y-77595238D01*
X308285714Y-77690476D01*
X308190476Y-77738095D01*
X300945714Y-91013380D02*
X300945714Y-90013380D01*
X301517142Y-91013380D02*
X301088571Y-90441952D01*
X301517142Y-90013380D02*
X300945714Y-90584809D01*
X301898095Y-90108619D02*
X301945714Y-90061000D01*
X302040952Y-90013380D01*
X302279047Y-90013380D01*
X302374285Y-90061000D01*
X302421904Y-90108619D01*
X302469523Y-90203857D01*
X302469523Y-90299095D01*
X302421904Y-90441952D01*
X301850476Y-91013380D01*
X302469523Y-91013380D01*
X303326666Y-90346714D02*
X303326666Y-91013380D01*
X303088571Y-89965761D02*
X302850476Y-90680047D01*
X303469523Y-90680047D01*
X298564464Y-129113380D02*
X298564464Y-128113380D01*
X299135892Y-129113380D02*
X298707321Y-128541952D01*
X299135892Y-128113380D02*
X298564464Y-128684809D01*
X300040654Y-128113380D02*
X299564464Y-128113380D01*
X299516845Y-128589571D01*
X299564464Y-128541952D01*
X299659702Y-128494333D01*
X299897797Y-128494333D01*
X299993035Y-128541952D01*
X300040654Y-128589571D01*
X300088273Y-128684809D01*
X300088273Y-128922904D01*
X300040654Y-129018142D01*
X299993035Y-129065761D01*
X299897797Y-129113380D01*
X299659702Y-129113380D01*
X299564464Y-129065761D01*
X299516845Y-129018142D01*
X300421607Y-128113380D02*
X301040654Y-128113380D01*
X300707321Y-128494333D01*
X300850178Y-128494333D01*
X300945416Y-128541952D01*
X300993035Y-128589571D01*
X301040654Y-128684809D01*
X301040654Y-128922904D01*
X300993035Y-129018142D01*
X300945416Y-129065761D01*
X300850178Y-129113380D01*
X300564464Y-129113380D01*
X300469226Y-129065761D01*
X300421607Y-129018142D01*
X55676964Y-148163380D02*
X55676964Y-147163380D01*
X56248392Y-148163380D02*
X55819821Y-147591952D01*
X56248392Y-147163380D02*
X55676964Y-147734809D01*
X57153154Y-147163380D02*
X56676964Y-147163380D01*
X56629345Y-147639571D01*
X56676964Y-147591952D01*
X56772202Y-147544333D01*
X57010297Y-147544333D01*
X57105535Y-147591952D01*
X57153154Y-147639571D01*
X57200773Y-147734809D01*
X57200773Y-147972904D01*
X57153154Y-148068142D01*
X57105535Y-148115761D01*
X57010297Y-148163380D01*
X56772202Y-148163380D01*
X56676964Y-148115761D01*
X56629345Y-148068142D01*
X58105535Y-147163380D02*
X57629345Y-147163380D01*
X57581726Y-147639571D01*
X57629345Y-147591952D01*
X57724583Y-147544333D01*
X57962678Y-147544333D01*
X58057916Y-147591952D01*
X58105535Y-147639571D01*
X58153154Y-147734809D01*
X58153154Y-147972904D01*
X58105535Y-148068142D01*
X58057916Y-148115761D01*
X57962678Y-148163380D01*
X57724583Y-148163380D01*
X57629345Y-148115761D01*
X57581726Y-148068142D01*
X305708214Y-110063380D02*
X305708214Y-109063380D01*
X306279642Y-110063380D02*
X305851071Y-109491952D01*
X306279642Y-109063380D02*
X305708214Y-109634809D01*
X306612976Y-109063380D02*
X307232023Y-109063380D01*
X306898690Y-109444333D01*
X307041547Y-109444333D01*
X307136785Y-109491952D01*
X307184404Y-109539571D01*
X307232023Y-109634809D01*
X307232023Y-109872904D01*
X307184404Y-109968142D01*
X307136785Y-110015761D01*
X307041547Y-110063380D01*
X306755833Y-110063380D01*
X306660595Y-110015761D01*
X306612976Y-109968142D01*
X307708214Y-110063380D02*
X307898690Y-110063380D01*
X307993928Y-110015761D01*
X308041547Y-109968142D01*
X308136785Y-109825285D01*
X308184404Y-109634809D01*
X308184404Y-109253857D01*
X308136785Y-109158619D01*
X308089166Y-109111000D01*
X307993928Y-109063380D01*
X307803452Y-109063380D01*
X307708214Y-109111000D01*
X307660595Y-109158619D01*
X307612976Y-109253857D01*
X307612976Y-109491952D01*
X307660595Y-109587190D01*
X307708214Y-109634809D01*
X307803452Y-109682428D01*
X307993928Y-109682428D01*
X308089166Y-109634809D01*
X308136785Y-109587190D01*
X308184404Y-109491952D01*
X48533214Y-110063380D02*
X48533214Y-109063380D01*
X49104642Y-110063380D02*
X48676071Y-109491952D01*
X49104642Y-109063380D02*
X48533214Y-109634809D01*
X49485595Y-109158619D02*
X49533214Y-109111000D01*
X49628452Y-109063380D01*
X49866547Y-109063380D01*
X49961785Y-109111000D01*
X50009404Y-109158619D01*
X50057023Y-109253857D01*
X50057023Y-109349095D01*
X50009404Y-109491952D01*
X49437976Y-110063380D01*
X50057023Y-110063380D01*
X50914166Y-109063380D02*
X50723690Y-109063380D01*
X50628452Y-109111000D01*
X50580833Y-109158619D01*
X50485595Y-109301476D01*
X50437976Y-109491952D01*
X50437976Y-109872904D01*
X50485595Y-109968142D01*
X50533214Y-110015761D01*
X50628452Y-110063380D01*
X50818928Y-110063380D01*
X50914166Y-110015761D01*
X50961785Y-109968142D01*
X51009404Y-109872904D01*
X51009404Y-109634809D01*
X50961785Y-109539571D01*
X50914166Y-109491952D01*
X50818928Y-109444333D01*
X50628452Y-109444333D01*
X50533214Y-109491952D01*
X50485595Y-109539571D01*
X50437976Y-109634809D01*
X284276964Y-148163380D02*
X284276964Y-147163380D01*
X284848392Y-148163380D02*
X284419821Y-147591952D01*
X284848392Y-147163380D02*
X284276964Y-147734809D01*
X285705535Y-147163380D02*
X285515059Y-147163380D01*
X285419821Y-147211000D01*
X285372202Y-147258619D01*
X285276964Y-147401476D01*
X285229345Y-147591952D01*
X285229345Y-147972904D01*
X285276964Y-148068142D01*
X285324583Y-148115761D01*
X285419821Y-148163380D01*
X285610297Y-148163380D01*
X285705535Y-148115761D01*
X285753154Y-148068142D01*
X285800773Y-147972904D01*
X285800773Y-147734809D01*
X285753154Y-147639571D01*
X285705535Y-147591952D01*
X285610297Y-147544333D01*
X285419821Y-147544333D01*
X285324583Y-147591952D01*
X285276964Y-147639571D01*
X285229345Y-147734809D01*
X286657916Y-147163380D02*
X286467440Y-147163380D01*
X286372202Y-147211000D01*
X286324583Y-147258619D01*
X286229345Y-147401476D01*
X286181726Y-147591952D01*
X286181726Y-147972904D01*
X286229345Y-148068142D01*
X286276964Y-148115761D01*
X286372202Y-148163380D01*
X286562678Y-148163380D01*
X286657916Y-148115761D01*
X286705535Y-148068142D01*
X286753154Y-147972904D01*
X286753154Y-147734809D01*
X286705535Y-147639571D01*
X286657916Y-147591952D01*
X286562678Y-147544333D01*
X286372202Y-147544333D01*
X286276964Y-147591952D01*
X286229345Y-147639571D01*
X286181726Y-147734809D01*
X50914464Y-129113380D02*
X50914464Y-128113380D01*
X51485892Y-129113380D02*
X51057321Y-128541952D01*
X51485892Y-128113380D02*
X50914464Y-128684809D01*
X52343035Y-128446714D02*
X52343035Y-129113380D01*
X52104940Y-128065761D02*
X51866845Y-128780047D01*
X52485892Y-128780047D01*
X53390654Y-129113380D02*
X52819226Y-129113380D01*
X53104940Y-129113380D02*
X53104940Y-128113380D01*
X53009702Y-128256238D01*
X52914464Y-128351476D01*
X52819226Y-128399095D01*
X46151964Y-167213380D02*
X46151964Y-166213380D01*
X46723392Y-167213380D02*
X46294821Y-166641952D01*
X46723392Y-166213380D02*
X46151964Y-166784809D01*
X47580535Y-166213380D02*
X47390059Y-166213380D01*
X47294821Y-166261000D01*
X47247202Y-166308619D01*
X47151964Y-166451476D01*
X47104345Y-166641952D01*
X47104345Y-167022904D01*
X47151964Y-167118142D01*
X47199583Y-167165761D01*
X47294821Y-167213380D01*
X47485297Y-167213380D01*
X47580535Y-167165761D01*
X47628154Y-167118142D01*
X47675773Y-167022904D01*
X47675773Y-166784809D01*
X47628154Y-166689571D01*
X47580535Y-166641952D01*
X47485297Y-166594333D01*
X47294821Y-166594333D01*
X47199583Y-166641952D01*
X47151964Y-166689571D01*
X47104345Y-166784809D01*
X48151964Y-167213380D02*
X48342440Y-167213380D01*
X48437678Y-167165761D01*
X48485297Y-167118142D01*
X48580535Y-166975285D01*
X48628154Y-166784809D01*
X48628154Y-166403857D01*
X48580535Y-166308619D01*
X48532916Y-166261000D01*
X48437678Y-166213380D01*
X48247202Y-166213380D01*
X48151964Y-166261000D01*
X48104345Y-166308619D01*
X48056726Y-166403857D01*
X48056726Y-166641952D01*
X48104345Y-166737190D01*
X48151964Y-166784809D01*
X48247202Y-166832428D01*
X48437678Y-166832428D01*
X48532916Y-166784809D01*
X48580535Y-166737190D01*
X48628154Y-166641952D01*
X89014464Y-167213380D02*
X89014464Y-166213380D01*
X89585892Y-167213380D02*
X89157321Y-166641952D01*
X89585892Y-166213380D02*
X89014464Y-166784809D01*
X89919226Y-166213380D02*
X90585892Y-166213380D01*
X90157321Y-167213380D01*
X91490654Y-167213380D02*
X90919226Y-167213380D01*
X91204940Y-167213380D02*
X91204940Y-166213380D01*
X91109702Y-166356238D01*
X91014464Y-166451476D01*
X90919226Y-166499095D01*
X246176964Y-167213380D02*
X246176964Y-166213380D01*
X246748392Y-167213380D02*
X246319821Y-166641952D01*
X246748392Y-166213380D02*
X246176964Y-166784809D01*
X247081726Y-166213380D02*
X247748392Y-166213380D01*
X247319821Y-167213380D01*
X248034107Y-166213380D02*
X248653154Y-166213380D01*
X248319821Y-166594333D01*
X248462678Y-166594333D01*
X248557916Y-166641952D01*
X248605535Y-166689571D01*
X248653154Y-166784809D01*
X248653154Y-167022904D01*
X248605535Y-167118142D01*
X248557916Y-167165761D01*
X248462678Y-167213380D01*
X248176964Y-167213380D01*
X248081726Y-167165761D01*
X248034107Y-167118142D01*
X269989464Y-167213380D02*
X269989464Y-166213380D01*
X270560892Y-167213380D02*
X270132321Y-166641952D01*
X270560892Y-166213380D02*
X269989464Y-166784809D01*
X270894226Y-166213380D02*
X271560892Y-166213380D01*
X271132321Y-167213380D01*
X272370416Y-166546714D02*
X272370416Y-167213380D01*
X272132321Y-166165761D02*
X271894226Y-166880047D01*
X272513273Y-166880047D01*
X162833214Y-148163380D02*
X162833214Y-147163380D01*
X163404642Y-148163380D02*
X162976071Y-147591952D01*
X163404642Y-147163380D02*
X162833214Y-147734809D01*
X164261785Y-147163380D02*
X164071309Y-147163380D01*
X163976071Y-147211000D01*
X163928452Y-147258619D01*
X163833214Y-147401476D01*
X163785595Y-147591952D01*
X163785595Y-147972904D01*
X163833214Y-148068142D01*
X163880833Y-148115761D01*
X163976071Y-148163380D01*
X164166547Y-148163380D01*
X164261785Y-148115761D01*
X164309404Y-148068142D01*
X164357023Y-147972904D01*
X164357023Y-147734809D01*
X164309404Y-147639571D01*
X164261785Y-147591952D01*
X164166547Y-147544333D01*
X163976071Y-147544333D01*
X163880833Y-147591952D01*
X163833214Y-147639571D01*
X163785595Y-147734809D01*
X164976071Y-147163380D02*
X165071309Y-147163380D01*
X165166547Y-147211000D01*
X165214166Y-147258619D01*
X165261785Y-147353857D01*
X165309404Y-147544333D01*
X165309404Y-147782428D01*
X165261785Y-147972904D01*
X165214166Y-148068142D01*
X165166547Y-148115761D01*
X165071309Y-148163380D01*
X164976071Y-148163380D01*
X164880833Y-148115761D01*
X164833214Y-148068142D01*
X164785595Y-147972904D01*
X164737976Y-147782428D01*
X164737976Y-147544333D01*
X164785595Y-147353857D01*
X164833214Y-147258619D01*
X164880833Y-147211000D01*
X164976071Y-147163380D01*
X110921904Y-62438380D02*
X110921904Y-61438380D01*
X111493333Y-62438380D02*
X111064761Y-61866952D01*
X111493333Y-61438380D02*
X110921904Y-62009809D01*
X111826666Y-61438380D02*
X112445714Y-61438380D01*
X112112380Y-61819333D01*
X112255238Y-61819333D01*
X112350476Y-61866952D01*
X112398095Y-61914571D01*
X112445714Y-62009809D01*
X112445714Y-62247904D01*
X112398095Y-62343142D01*
X112350476Y-62390761D01*
X112255238Y-62438380D01*
X111969523Y-62438380D01*
X111874285Y-62390761D01*
X111826666Y-62343142D01*
X44246904Y-62438380D02*
X44246904Y-61438380D01*
X44818333Y-62438380D02*
X44389761Y-61866952D01*
X44818333Y-61438380D02*
X44246904Y-62009809D01*
X45437380Y-61438380D02*
X45532619Y-61438380D01*
X45627857Y-61486000D01*
X45675476Y-61533619D01*
X45723095Y-61628857D01*
X45770714Y-61819333D01*
X45770714Y-62057428D01*
X45723095Y-62247904D01*
X45675476Y-62343142D01*
X45627857Y-62390761D01*
X45532619Y-62438380D01*
X45437380Y-62438380D01*
X45342142Y-62390761D01*
X45294523Y-62343142D01*
X45246904Y-62247904D01*
X45199285Y-62057428D01*
X45199285Y-61819333D01*
X45246904Y-61628857D01*
X45294523Y-61533619D01*
X45342142Y-61486000D01*
X45437380Y-61438380D01*
X329520714Y-167213380D02*
X329520714Y-166213380D01*
X330092142Y-167213380D02*
X329663571Y-166641952D01*
X330092142Y-166213380D02*
X329520714Y-166784809D01*
X330425476Y-166213380D02*
X331092142Y-166213380D01*
X330663571Y-167213380D01*
X331377857Y-166213380D02*
X332044523Y-166213380D01*
X331615952Y-167213380D01*
X310470714Y-148163380D02*
X310470714Y-147163380D01*
X311042142Y-148163380D02*
X310613571Y-147591952D01*
X311042142Y-147163380D02*
X310470714Y-147734809D01*
X311899285Y-147163380D02*
X311708809Y-147163380D01*
X311613571Y-147211000D01*
X311565952Y-147258619D01*
X311470714Y-147401476D01*
X311423095Y-147591952D01*
X311423095Y-147972904D01*
X311470714Y-148068142D01*
X311518333Y-148115761D01*
X311613571Y-148163380D01*
X311804047Y-148163380D01*
X311899285Y-148115761D01*
X311946904Y-148068142D01*
X311994523Y-147972904D01*
X311994523Y-147734809D01*
X311946904Y-147639571D01*
X311899285Y-147591952D01*
X311804047Y-147544333D01*
X311613571Y-147544333D01*
X311518333Y-147591952D01*
X311470714Y-147639571D01*
X311423095Y-147734809D01*
X312327857Y-147163380D02*
X312994523Y-147163380D01*
X312565952Y-148163380D01*
X172358214Y-129113380D02*
X172358214Y-128113380D01*
X172929642Y-129113380D02*
X172501071Y-128541952D01*
X172929642Y-128113380D02*
X172358214Y-128684809D01*
X173786785Y-128446714D02*
X173786785Y-129113380D01*
X173548690Y-128065761D02*
X173310595Y-128780047D01*
X173929642Y-128780047D01*
X174215357Y-128113380D02*
X174882023Y-128113380D01*
X174453452Y-129113380D01*
X181883214Y-148163380D02*
X181883214Y-147163380D01*
X182454642Y-148163380D02*
X182026071Y-147591952D01*
X182454642Y-147163380D02*
X181883214Y-147734809D01*
X183311785Y-147163380D02*
X183121309Y-147163380D01*
X183026071Y-147211000D01*
X182978452Y-147258619D01*
X182883214Y-147401476D01*
X182835595Y-147591952D01*
X182835595Y-147972904D01*
X182883214Y-148068142D01*
X182930833Y-148115761D01*
X183026071Y-148163380D01*
X183216547Y-148163380D01*
X183311785Y-148115761D01*
X183359404Y-148068142D01*
X183407023Y-147972904D01*
X183407023Y-147734809D01*
X183359404Y-147639571D01*
X183311785Y-147591952D01*
X183216547Y-147544333D01*
X183026071Y-147544333D01*
X182930833Y-147591952D01*
X182883214Y-147639571D01*
X182835595Y-147734809D01*
X184359404Y-148163380D02*
X183787976Y-148163380D01*
X184073690Y-148163380D02*
X184073690Y-147163380D01*
X183978452Y-147306238D01*
X183883214Y-147401476D01*
X183787976Y-147449095D01*
X105683214Y-148163380D02*
X105683214Y-147163380D01*
X106254642Y-148163380D02*
X105826071Y-147591952D01*
X106254642Y-147163380D02*
X105683214Y-147734809D01*
X107159404Y-147163380D02*
X106683214Y-147163380D01*
X106635595Y-147639571D01*
X106683214Y-147591952D01*
X106778452Y-147544333D01*
X107016547Y-147544333D01*
X107111785Y-147591952D01*
X107159404Y-147639571D01*
X107207023Y-147734809D01*
X107207023Y-147972904D01*
X107159404Y-148068142D01*
X107111785Y-148115761D01*
X107016547Y-148163380D01*
X106778452Y-148163380D01*
X106683214Y-148115761D01*
X106635595Y-148068142D01*
X107540357Y-147163380D02*
X108207023Y-147163380D01*
X107778452Y-148163380D01*
X96158214Y-129113380D02*
X96158214Y-128113380D01*
X96729642Y-129113380D02*
X96301071Y-128541952D01*
X96729642Y-128113380D02*
X96158214Y-128684809D01*
X97586785Y-128446714D02*
X97586785Y-129113380D01*
X97348690Y-128065761D02*
X97110595Y-128780047D01*
X97729642Y-128780047D01*
X98015357Y-128113380D02*
X98634404Y-128113380D01*
X98301071Y-128494333D01*
X98443928Y-128494333D01*
X98539166Y-128541952D01*
X98586785Y-128589571D01*
X98634404Y-128684809D01*
X98634404Y-128922904D01*
X98586785Y-129018142D01*
X98539166Y-129065761D01*
X98443928Y-129113380D01*
X98158214Y-129113380D01*
X98062976Y-129065761D01*
X98015357Y-129018142D01*
X72821904Y-62438380D02*
X72821904Y-61438380D01*
X73393333Y-62438380D02*
X72964761Y-61866952D01*
X73393333Y-61438380D02*
X72821904Y-62009809D01*
X74345714Y-62438380D02*
X73774285Y-62438380D01*
X74060000Y-62438380D02*
X74060000Y-61438380D01*
X73964761Y-61581238D01*
X73869523Y-61676476D01*
X73774285Y-61724095D01*
X91871904Y-62438380D02*
X91871904Y-61438380D01*
X92443333Y-62438380D02*
X92014761Y-61866952D01*
X92443333Y-61438380D02*
X91871904Y-62009809D01*
X92824285Y-61533619D02*
X92871904Y-61486000D01*
X92967142Y-61438380D01*
X93205238Y-61438380D01*
X93300476Y-61486000D01*
X93348095Y-61533619D01*
X93395714Y-61628857D01*
X93395714Y-61724095D01*
X93348095Y-61866952D01*
X92776666Y-62438380D01*
X93395714Y-62438380D01*
X129971904Y-62438380D02*
X129971904Y-61438380D01*
X130543333Y-62438380D02*
X130114761Y-61866952D01*
X130543333Y-61438380D02*
X129971904Y-62009809D01*
X131400476Y-61771714D02*
X131400476Y-62438380D01*
X131162380Y-61390761D02*
X130924285Y-62105047D01*
X131543333Y-62105047D01*
X158546904Y-62438380D02*
X158546904Y-61438380D01*
X159118333Y-62438380D02*
X158689761Y-61866952D01*
X159118333Y-61438380D02*
X158546904Y-62009809D01*
X160023095Y-61438380D02*
X159546904Y-61438380D01*
X159499285Y-61914571D01*
X159546904Y-61866952D01*
X159642142Y-61819333D01*
X159880238Y-61819333D01*
X159975476Y-61866952D01*
X160023095Y-61914571D01*
X160070714Y-62009809D01*
X160070714Y-62247904D01*
X160023095Y-62343142D01*
X159975476Y-62390761D01*
X159880238Y-62438380D01*
X159642142Y-62438380D01*
X159546904Y-62390761D01*
X159499285Y-62343142D01*
X177596904Y-62438380D02*
X177596904Y-61438380D01*
X178168333Y-62438380D02*
X177739761Y-61866952D01*
X178168333Y-61438380D02*
X177596904Y-62009809D01*
X179025476Y-61438380D02*
X178835000Y-61438380D01*
X178739761Y-61486000D01*
X178692142Y-61533619D01*
X178596904Y-61676476D01*
X178549285Y-61866952D01*
X178549285Y-62247904D01*
X178596904Y-62343142D01*
X178644523Y-62390761D01*
X178739761Y-62438380D01*
X178930238Y-62438380D01*
X179025476Y-62390761D01*
X179073095Y-62343142D01*
X179120714Y-62247904D01*
X179120714Y-62009809D01*
X179073095Y-61914571D01*
X179025476Y-61866952D01*
X178930238Y-61819333D01*
X178739761Y-61819333D01*
X178644523Y-61866952D01*
X178596904Y-61914571D01*
X178549285Y-62009809D01*
X196646904Y-62438380D02*
X196646904Y-61438380D01*
X197218333Y-62438380D02*
X196789761Y-61866952D01*
X197218333Y-61438380D02*
X196646904Y-62009809D01*
X197551666Y-61438380D02*
X198218333Y-61438380D01*
X197789761Y-62438380D01*
X215696904Y-62438380D02*
X215696904Y-61438380D01*
X216268333Y-62438380D02*
X215839761Y-61866952D01*
X216268333Y-61438380D02*
X215696904Y-62009809D01*
X216839761Y-61866952D02*
X216744523Y-61819333D01*
X216696904Y-61771714D01*
X216649285Y-61676476D01*
X216649285Y-61628857D01*
X216696904Y-61533619D01*
X216744523Y-61486000D01*
X216839761Y-61438380D01*
X217030238Y-61438380D01*
X217125476Y-61486000D01*
X217173095Y-61533619D01*
X217220714Y-61628857D01*
X217220714Y-61676476D01*
X217173095Y-61771714D01*
X217125476Y-61819333D01*
X217030238Y-61866952D01*
X216839761Y-61866952D01*
X216744523Y-61914571D01*
X216696904Y-61962190D01*
X216649285Y-62057428D01*
X216649285Y-62247904D01*
X216696904Y-62343142D01*
X216744523Y-62390761D01*
X216839761Y-62438380D01*
X217030238Y-62438380D01*
X217125476Y-62390761D01*
X217173095Y-62343142D01*
X217220714Y-62247904D01*
X217220714Y-62057428D01*
X217173095Y-61962190D01*
X217125476Y-61914571D01*
X217030238Y-61866952D01*
X244271904Y-62438380D02*
X244271904Y-61438380D01*
X244843333Y-62438380D02*
X244414761Y-61866952D01*
X244843333Y-61438380D02*
X244271904Y-62009809D01*
X245319523Y-62438380D02*
X245510000Y-62438380D01*
X245605238Y-62390761D01*
X245652857Y-62343142D01*
X245748095Y-62200285D01*
X245795714Y-62009809D01*
X245795714Y-61628857D01*
X245748095Y-61533619D01*
X245700476Y-61486000D01*
X245605238Y-61438380D01*
X245414761Y-61438380D01*
X245319523Y-61486000D01*
X245271904Y-61533619D01*
X245224285Y-61628857D01*
X245224285Y-61866952D01*
X245271904Y-61962190D01*
X245319523Y-62009809D01*
X245414761Y-62057428D01*
X245605238Y-62057428D01*
X245700476Y-62009809D01*
X245748095Y-61962190D01*
X245795714Y-61866952D01*
X262845714Y-62438380D02*
X262845714Y-61438380D01*
X263417142Y-62438380D02*
X262988571Y-61866952D01*
X263417142Y-61438380D02*
X262845714Y-62009809D01*
X264369523Y-62438380D02*
X263798095Y-62438380D01*
X264083809Y-62438380D02*
X264083809Y-61438380D01*
X263988571Y-61581238D01*
X263893333Y-61676476D01*
X263798095Y-61724095D01*
X264988571Y-61438380D02*
X265083809Y-61438380D01*
X265179047Y-61486000D01*
X265226666Y-61533619D01*
X265274285Y-61628857D01*
X265321904Y-61819333D01*
X265321904Y-62057428D01*
X265274285Y-62247904D01*
X265226666Y-62343142D01*
X265179047Y-62390761D01*
X265083809Y-62438380D01*
X264988571Y-62438380D01*
X264893333Y-62390761D01*
X264845714Y-62343142D01*
X264798095Y-62247904D01*
X264750476Y-62057428D01*
X264750476Y-61819333D01*
X264798095Y-61628857D01*
X264845714Y-61533619D01*
X264893333Y-61486000D01*
X264988571Y-61438380D01*
X43770714Y-91013380D02*
X43770714Y-90013380D01*
X44342142Y-91013380D02*
X43913571Y-90441952D01*
X44342142Y-90013380D02*
X43770714Y-90584809D01*
X45294523Y-91013380D02*
X44723095Y-91013380D01*
X45008809Y-91013380D02*
X45008809Y-90013380D01*
X44913571Y-90156238D01*
X44818333Y-90251476D01*
X44723095Y-90299095D01*
X46246904Y-91013380D02*
X45675476Y-91013380D01*
X45961190Y-91013380D02*
X45961190Y-90013380D01*
X45865952Y-90156238D01*
X45770714Y-90251476D01*
X45675476Y-90299095D01*
X62820714Y-91013380D02*
X62820714Y-90013380D01*
X63392142Y-91013380D02*
X62963571Y-90441952D01*
X63392142Y-90013380D02*
X62820714Y-90584809D01*
X64344523Y-91013380D02*
X63773095Y-91013380D01*
X64058809Y-91013380D02*
X64058809Y-90013380D01*
X63963571Y-90156238D01*
X63868333Y-90251476D01*
X63773095Y-90299095D01*
X64725476Y-90108619D02*
X64773095Y-90061000D01*
X64868333Y-90013380D01*
X65106428Y-90013380D01*
X65201666Y-90061000D01*
X65249285Y-90108619D01*
X65296904Y-90203857D01*
X65296904Y-90299095D01*
X65249285Y-90441952D01*
X64677857Y-91013380D01*
X65296904Y-91013380D01*
X81870714Y-91013380D02*
X81870714Y-90013380D01*
X82442142Y-91013380D02*
X82013571Y-90441952D01*
X82442142Y-90013380D02*
X81870714Y-90584809D01*
X83394523Y-91013380D02*
X82823095Y-91013380D01*
X83108809Y-91013380D02*
X83108809Y-90013380D01*
X83013571Y-90156238D01*
X82918333Y-90251476D01*
X82823095Y-90299095D01*
X83727857Y-90013380D02*
X84346904Y-90013380D01*
X84013571Y-90394333D01*
X84156428Y-90394333D01*
X84251666Y-90441952D01*
X84299285Y-90489571D01*
X84346904Y-90584809D01*
X84346904Y-90822904D01*
X84299285Y-90918142D01*
X84251666Y-90965761D01*
X84156428Y-91013380D01*
X83870714Y-91013380D01*
X83775476Y-90965761D01*
X83727857Y-90918142D01*
X100920714Y-91013380D02*
X100920714Y-90013380D01*
X101492142Y-91013380D02*
X101063571Y-90441952D01*
X101492142Y-90013380D02*
X100920714Y-90584809D01*
X102444523Y-91013380D02*
X101873095Y-91013380D01*
X102158809Y-91013380D02*
X102158809Y-90013380D01*
X102063571Y-90156238D01*
X101968333Y-90251476D01*
X101873095Y-90299095D01*
X103301666Y-90346714D02*
X103301666Y-91013380D01*
X103063571Y-89965761D02*
X102825476Y-90680047D01*
X103444523Y-90680047D01*
X119970714Y-91013380D02*
X119970714Y-90013380D01*
X120542142Y-91013380D02*
X120113571Y-90441952D01*
X120542142Y-90013380D02*
X119970714Y-90584809D01*
X121494523Y-91013380D02*
X120923095Y-91013380D01*
X121208809Y-91013380D02*
X121208809Y-90013380D01*
X121113571Y-90156238D01*
X121018333Y-90251476D01*
X120923095Y-90299095D01*
X122399285Y-90013380D02*
X121923095Y-90013380D01*
X121875476Y-90489571D01*
X121923095Y-90441952D01*
X122018333Y-90394333D01*
X122256428Y-90394333D01*
X122351666Y-90441952D01*
X122399285Y-90489571D01*
X122446904Y-90584809D01*
X122446904Y-90822904D01*
X122399285Y-90918142D01*
X122351666Y-90965761D01*
X122256428Y-91013380D01*
X122018333Y-91013380D01*
X121923095Y-90965761D01*
X121875476Y-90918142D01*
X139020714Y-91013380D02*
X139020714Y-90013380D01*
X139592142Y-91013380D02*
X139163571Y-90441952D01*
X139592142Y-90013380D02*
X139020714Y-90584809D01*
X140544523Y-91013380D02*
X139973095Y-91013380D01*
X140258809Y-91013380D02*
X140258809Y-90013380D01*
X140163571Y-90156238D01*
X140068333Y-90251476D01*
X139973095Y-90299095D01*
X141401666Y-90013380D02*
X141211190Y-90013380D01*
X141115952Y-90061000D01*
X141068333Y-90108619D01*
X140973095Y-90251476D01*
X140925476Y-90441952D01*
X140925476Y-90822904D01*
X140973095Y-90918142D01*
X141020714Y-90965761D01*
X141115952Y-91013380D01*
X141306428Y-91013380D01*
X141401666Y-90965761D01*
X141449285Y-90918142D01*
X141496904Y-90822904D01*
X141496904Y-90584809D01*
X141449285Y-90489571D01*
X141401666Y-90441952D01*
X141306428Y-90394333D01*
X141115952Y-90394333D01*
X141020714Y-90441952D01*
X140973095Y-90489571D01*
X140925476Y-90584809D01*
X158070714Y-91013380D02*
X158070714Y-90013380D01*
X158642142Y-91013380D02*
X158213571Y-90441952D01*
X158642142Y-90013380D02*
X158070714Y-90584809D01*
X159594523Y-91013380D02*
X159023095Y-91013380D01*
X159308809Y-91013380D02*
X159308809Y-90013380D01*
X159213571Y-90156238D01*
X159118333Y-90251476D01*
X159023095Y-90299095D01*
X159927857Y-90013380D02*
X160594523Y-90013380D01*
X160165952Y-91013380D01*
X177120714Y-91013380D02*
X177120714Y-90013380D01*
X177692142Y-91013380D02*
X177263571Y-90441952D01*
X177692142Y-90013380D02*
X177120714Y-90584809D01*
X178644523Y-91013380D02*
X178073095Y-91013380D01*
X178358809Y-91013380D02*
X178358809Y-90013380D01*
X178263571Y-90156238D01*
X178168333Y-90251476D01*
X178073095Y-90299095D01*
X179215952Y-90441952D02*
X179120714Y-90394333D01*
X179073095Y-90346714D01*
X179025476Y-90251476D01*
X179025476Y-90203857D01*
X179073095Y-90108619D01*
X179120714Y-90061000D01*
X179215952Y-90013380D01*
X179406428Y-90013380D01*
X179501666Y-90061000D01*
X179549285Y-90108619D01*
X179596904Y-90203857D01*
X179596904Y-90251476D01*
X179549285Y-90346714D01*
X179501666Y-90394333D01*
X179406428Y-90441952D01*
X179215952Y-90441952D01*
X179120714Y-90489571D01*
X179073095Y-90537190D01*
X179025476Y-90632428D01*
X179025476Y-90822904D01*
X179073095Y-90918142D01*
X179120714Y-90965761D01*
X179215952Y-91013380D01*
X179406428Y-91013380D01*
X179501666Y-90965761D01*
X179549285Y-90918142D01*
X179596904Y-90822904D01*
X179596904Y-90632428D01*
X179549285Y-90537190D01*
X179501666Y-90489571D01*
X179406428Y-90441952D01*
X196170714Y-91013380D02*
X196170714Y-90013380D01*
X196742142Y-91013380D02*
X196313571Y-90441952D01*
X196742142Y-90013380D02*
X196170714Y-90584809D01*
X197694523Y-91013380D02*
X197123095Y-91013380D01*
X197408809Y-91013380D02*
X197408809Y-90013380D01*
X197313571Y-90156238D01*
X197218333Y-90251476D01*
X197123095Y-90299095D01*
X198170714Y-91013380D02*
X198361190Y-91013380D01*
X198456428Y-90965761D01*
X198504047Y-90918142D01*
X198599285Y-90775285D01*
X198646904Y-90584809D01*
X198646904Y-90203857D01*
X198599285Y-90108619D01*
X198551666Y-90061000D01*
X198456428Y-90013380D01*
X198265952Y-90013380D01*
X198170714Y-90061000D01*
X198123095Y-90108619D01*
X198075476Y-90203857D01*
X198075476Y-90441952D01*
X198123095Y-90537190D01*
X198170714Y-90584809D01*
X198265952Y-90632428D01*
X198456428Y-90632428D01*
X198551666Y-90584809D01*
X198599285Y-90537190D01*
X198646904Y-90441952D01*
X215220714Y-91013380D02*
X215220714Y-90013380D01*
X215792142Y-91013380D02*
X215363571Y-90441952D01*
X215792142Y-90013380D02*
X215220714Y-90584809D01*
X216173095Y-90108619D02*
X216220714Y-90061000D01*
X216315952Y-90013380D01*
X216554047Y-90013380D01*
X216649285Y-90061000D01*
X216696904Y-90108619D01*
X216744523Y-90203857D01*
X216744523Y-90299095D01*
X216696904Y-90441952D01*
X216125476Y-91013380D01*
X216744523Y-91013380D01*
X217363571Y-90013380D02*
X217458809Y-90013380D01*
X217554047Y-90061000D01*
X217601666Y-90108619D01*
X217649285Y-90203857D01*
X217696904Y-90394333D01*
X217696904Y-90632428D01*
X217649285Y-90822904D01*
X217601666Y-90918142D01*
X217554047Y-90965761D01*
X217458809Y-91013380D01*
X217363571Y-91013380D01*
X217268333Y-90965761D01*
X217220714Y-90918142D01*
X217173095Y-90822904D01*
X217125476Y-90632428D01*
X217125476Y-90394333D01*
X217173095Y-90203857D01*
X217220714Y-90108619D01*
X217268333Y-90061000D01*
X217363571Y-90013380D01*
X234270714Y-91013380D02*
X234270714Y-90013380D01*
X234842142Y-91013380D02*
X234413571Y-90441952D01*
X234842142Y-90013380D02*
X234270714Y-90584809D01*
X235223095Y-90108619D02*
X235270714Y-90061000D01*
X235365952Y-90013380D01*
X235604047Y-90013380D01*
X235699285Y-90061000D01*
X235746904Y-90108619D01*
X235794523Y-90203857D01*
X235794523Y-90299095D01*
X235746904Y-90441952D01*
X235175476Y-91013380D01*
X235794523Y-91013380D01*
X236746904Y-91013380D02*
X236175476Y-91013380D01*
X236461190Y-91013380D02*
X236461190Y-90013380D01*
X236365952Y-90156238D01*
X236270714Y-90251476D01*
X236175476Y-90299095D01*
X253320714Y-91013380D02*
X253320714Y-90013380D01*
X253892142Y-91013380D02*
X253463571Y-90441952D01*
X253892142Y-90013380D02*
X253320714Y-90584809D01*
X254273095Y-90108619D02*
X254320714Y-90061000D01*
X254415952Y-90013380D01*
X254654047Y-90013380D01*
X254749285Y-90061000D01*
X254796904Y-90108619D01*
X254844523Y-90203857D01*
X254844523Y-90299095D01*
X254796904Y-90441952D01*
X254225476Y-91013380D01*
X254844523Y-91013380D01*
X255225476Y-90108619D02*
X255273095Y-90061000D01*
X255368333Y-90013380D01*
X255606428Y-90013380D01*
X255701666Y-90061000D01*
X255749285Y-90108619D01*
X255796904Y-90203857D01*
X255796904Y-90299095D01*
X255749285Y-90441952D01*
X255177857Y-91013380D01*
X255796904Y-91013380D01*
X272370714Y-91013380D02*
X272370714Y-90013380D01*
X272942142Y-91013380D02*
X272513571Y-90441952D01*
X272942142Y-90013380D02*
X272370714Y-90584809D01*
X273323095Y-90108619D02*
X273370714Y-90061000D01*
X273465952Y-90013380D01*
X273704047Y-90013380D01*
X273799285Y-90061000D01*
X273846904Y-90108619D01*
X273894523Y-90203857D01*
X273894523Y-90299095D01*
X273846904Y-90441952D01*
X273275476Y-91013380D01*
X273894523Y-91013380D01*
X274227857Y-90013380D02*
X274846904Y-90013380D01*
X274513571Y-90394333D01*
X274656428Y-90394333D01*
X274751666Y-90441952D01*
X274799285Y-90489571D01*
X274846904Y-90584809D01*
X274846904Y-90822904D01*
X274799285Y-90918142D01*
X274751666Y-90965761D01*
X274656428Y-91013380D01*
X274370714Y-91013380D01*
X274275476Y-90965761D01*
X274227857Y-90918142D01*
X329520714Y-91013380D02*
X329520714Y-90013380D01*
X330092142Y-91013380D02*
X329663571Y-90441952D01*
X330092142Y-90013380D02*
X329520714Y-90584809D01*
X330473095Y-90108619D02*
X330520714Y-90061000D01*
X330615952Y-90013380D01*
X330854047Y-90013380D01*
X330949285Y-90061000D01*
X330996904Y-90108619D01*
X331044523Y-90203857D01*
X331044523Y-90299095D01*
X330996904Y-90441952D01*
X330425476Y-91013380D01*
X331044523Y-91013380D01*
X331949285Y-90013380D02*
X331473095Y-90013380D01*
X331425476Y-90489571D01*
X331473095Y-90441952D01*
X331568333Y-90394333D01*
X331806428Y-90394333D01*
X331901666Y-90441952D01*
X331949285Y-90489571D01*
X331996904Y-90584809D01*
X331996904Y-90822904D01*
X331949285Y-90918142D01*
X331901666Y-90965761D01*
X331806428Y-91013380D01*
X331568333Y-91013380D01*
X331473095Y-90965761D01*
X331425476Y-90918142D01*
X72345714Y-110063380D02*
X72345714Y-109063380D01*
X72917142Y-110063380D02*
X72488571Y-109491952D01*
X72917142Y-109063380D02*
X72345714Y-109634809D01*
X73298095Y-109158619D02*
X73345714Y-109111000D01*
X73440952Y-109063380D01*
X73679047Y-109063380D01*
X73774285Y-109111000D01*
X73821904Y-109158619D01*
X73869523Y-109253857D01*
X73869523Y-109349095D01*
X73821904Y-109491952D01*
X73250476Y-110063380D01*
X73869523Y-110063380D01*
X74202857Y-109063380D02*
X74869523Y-109063380D01*
X74440952Y-110063380D01*
X91395714Y-110063380D02*
X91395714Y-109063380D01*
X91967142Y-110063380D02*
X91538571Y-109491952D01*
X91967142Y-109063380D02*
X91395714Y-109634809D01*
X92348095Y-109158619D02*
X92395714Y-109111000D01*
X92490952Y-109063380D01*
X92729047Y-109063380D01*
X92824285Y-109111000D01*
X92871904Y-109158619D01*
X92919523Y-109253857D01*
X92919523Y-109349095D01*
X92871904Y-109491952D01*
X92300476Y-110063380D01*
X92919523Y-110063380D01*
X93490952Y-109491952D02*
X93395714Y-109444333D01*
X93348095Y-109396714D01*
X93300476Y-109301476D01*
X93300476Y-109253857D01*
X93348095Y-109158619D01*
X93395714Y-109111000D01*
X93490952Y-109063380D01*
X93681428Y-109063380D01*
X93776666Y-109111000D01*
X93824285Y-109158619D01*
X93871904Y-109253857D01*
X93871904Y-109301476D01*
X93824285Y-109396714D01*
X93776666Y-109444333D01*
X93681428Y-109491952D01*
X93490952Y-109491952D01*
X93395714Y-109539571D01*
X93348095Y-109587190D01*
X93300476Y-109682428D01*
X93300476Y-109872904D01*
X93348095Y-109968142D01*
X93395714Y-110015761D01*
X93490952Y-110063380D01*
X93681428Y-110063380D01*
X93776666Y-110015761D01*
X93824285Y-109968142D01*
X93871904Y-109872904D01*
X93871904Y-109682428D01*
X93824285Y-109587190D01*
X93776666Y-109539571D01*
X93681428Y-109491952D01*
X110445714Y-110063380D02*
X110445714Y-109063380D01*
X111017142Y-110063380D02*
X110588571Y-109491952D01*
X111017142Y-109063380D02*
X110445714Y-109634809D01*
X111398095Y-109158619D02*
X111445714Y-109111000D01*
X111540952Y-109063380D01*
X111779047Y-109063380D01*
X111874285Y-109111000D01*
X111921904Y-109158619D01*
X111969523Y-109253857D01*
X111969523Y-109349095D01*
X111921904Y-109491952D01*
X111350476Y-110063380D01*
X111969523Y-110063380D01*
X112445714Y-110063380D02*
X112636190Y-110063380D01*
X112731428Y-110015761D01*
X112779047Y-109968142D01*
X112874285Y-109825285D01*
X112921904Y-109634809D01*
X112921904Y-109253857D01*
X112874285Y-109158619D01*
X112826666Y-109111000D01*
X112731428Y-109063380D01*
X112540952Y-109063380D01*
X112445714Y-109111000D01*
X112398095Y-109158619D01*
X112350476Y-109253857D01*
X112350476Y-109491952D01*
X112398095Y-109587190D01*
X112445714Y-109634809D01*
X112540952Y-109682428D01*
X112731428Y-109682428D01*
X112826666Y-109634809D01*
X112874285Y-109587190D01*
X112921904Y-109491952D01*
X129495714Y-110063380D02*
X129495714Y-109063380D01*
X130067142Y-110063380D02*
X129638571Y-109491952D01*
X130067142Y-109063380D02*
X129495714Y-109634809D01*
X130400476Y-109063380D02*
X131019523Y-109063380D01*
X130686190Y-109444333D01*
X130829047Y-109444333D01*
X130924285Y-109491952D01*
X130971904Y-109539571D01*
X131019523Y-109634809D01*
X131019523Y-109872904D01*
X130971904Y-109968142D01*
X130924285Y-110015761D01*
X130829047Y-110063380D01*
X130543333Y-110063380D01*
X130448095Y-110015761D01*
X130400476Y-109968142D01*
X131638571Y-109063380D02*
X131733809Y-109063380D01*
X131829047Y-109111000D01*
X131876666Y-109158619D01*
X131924285Y-109253857D01*
X131971904Y-109444333D01*
X131971904Y-109682428D01*
X131924285Y-109872904D01*
X131876666Y-109968142D01*
X131829047Y-110015761D01*
X131733809Y-110063380D01*
X131638571Y-110063380D01*
X131543333Y-110015761D01*
X131495714Y-109968142D01*
X131448095Y-109872904D01*
X131400476Y-109682428D01*
X131400476Y-109444333D01*
X131448095Y-109253857D01*
X131495714Y-109158619D01*
X131543333Y-109111000D01*
X131638571Y-109063380D01*
X148545714Y-110063380D02*
X148545714Y-109063380D01*
X149117142Y-110063380D02*
X148688571Y-109491952D01*
X149117142Y-109063380D02*
X148545714Y-109634809D01*
X149450476Y-109063380D02*
X150069523Y-109063380D01*
X149736190Y-109444333D01*
X149879047Y-109444333D01*
X149974285Y-109491952D01*
X150021904Y-109539571D01*
X150069523Y-109634809D01*
X150069523Y-109872904D01*
X150021904Y-109968142D01*
X149974285Y-110015761D01*
X149879047Y-110063380D01*
X149593333Y-110063380D01*
X149498095Y-110015761D01*
X149450476Y-109968142D01*
X151021904Y-110063380D02*
X150450476Y-110063380D01*
X150736190Y-110063380D02*
X150736190Y-109063380D01*
X150640952Y-109206238D01*
X150545714Y-109301476D01*
X150450476Y-109349095D01*
X167595714Y-110063380D02*
X167595714Y-109063380D01*
X168167142Y-110063380D02*
X167738571Y-109491952D01*
X168167142Y-109063380D02*
X167595714Y-109634809D01*
X168500476Y-109063380D02*
X169119523Y-109063380D01*
X168786190Y-109444333D01*
X168929047Y-109444333D01*
X169024285Y-109491952D01*
X169071904Y-109539571D01*
X169119523Y-109634809D01*
X169119523Y-109872904D01*
X169071904Y-109968142D01*
X169024285Y-110015761D01*
X168929047Y-110063380D01*
X168643333Y-110063380D01*
X168548095Y-110015761D01*
X168500476Y-109968142D01*
X169500476Y-109158619D02*
X169548095Y-109111000D01*
X169643333Y-109063380D01*
X169881428Y-109063380D01*
X169976666Y-109111000D01*
X170024285Y-109158619D01*
X170071904Y-109253857D01*
X170071904Y-109349095D01*
X170024285Y-109491952D01*
X169452857Y-110063380D01*
X170071904Y-110063380D01*
X186645714Y-110063380D02*
X186645714Y-109063380D01*
X187217142Y-110063380D02*
X186788571Y-109491952D01*
X187217142Y-109063380D02*
X186645714Y-109634809D01*
X187550476Y-109063380D02*
X188169523Y-109063380D01*
X187836190Y-109444333D01*
X187979047Y-109444333D01*
X188074285Y-109491952D01*
X188121904Y-109539571D01*
X188169523Y-109634809D01*
X188169523Y-109872904D01*
X188121904Y-109968142D01*
X188074285Y-110015761D01*
X187979047Y-110063380D01*
X187693333Y-110063380D01*
X187598095Y-110015761D01*
X187550476Y-109968142D01*
X188502857Y-109063380D02*
X189121904Y-109063380D01*
X188788571Y-109444333D01*
X188931428Y-109444333D01*
X189026666Y-109491952D01*
X189074285Y-109539571D01*
X189121904Y-109634809D01*
X189121904Y-109872904D01*
X189074285Y-109968142D01*
X189026666Y-110015761D01*
X188931428Y-110063380D01*
X188645714Y-110063380D01*
X188550476Y-110015761D01*
X188502857Y-109968142D01*
X205695714Y-110063380D02*
X205695714Y-109063380D01*
X206267142Y-110063380D02*
X205838571Y-109491952D01*
X206267142Y-109063380D02*
X205695714Y-109634809D01*
X206600476Y-109063380D02*
X207219523Y-109063380D01*
X206886190Y-109444333D01*
X207029047Y-109444333D01*
X207124285Y-109491952D01*
X207171904Y-109539571D01*
X207219523Y-109634809D01*
X207219523Y-109872904D01*
X207171904Y-109968142D01*
X207124285Y-110015761D01*
X207029047Y-110063380D01*
X206743333Y-110063380D01*
X206648095Y-110015761D01*
X206600476Y-109968142D01*
X208076666Y-109396714D02*
X208076666Y-110063380D01*
X207838571Y-109015761D02*
X207600476Y-109730047D01*
X208219523Y-109730047D01*
X224745714Y-110063380D02*
X224745714Y-109063380D01*
X225317142Y-110063380D02*
X224888571Y-109491952D01*
X225317142Y-109063380D02*
X224745714Y-109634809D01*
X225650476Y-109063380D02*
X226269523Y-109063380D01*
X225936190Y-109444333D01*
X226079047Y-109444333D01*
X226174285Y-109491952D01*
X226221904Y-109539571D01*
X226269523Y-109634809D01*
X226269523Y-109872904D01*
X226221904Y-109968142D01*
X226174285Y-110015761D01*
X226079047Y-110063380D01*
X225793333Y-110063380D01*
X225698095Y-110015761D01*
X225650476Y-109968142D01*
X227174285Y-109063380D02*
X226698095Y-109063380D01*
X226650476Y-109539571D01*
X226698095Y-109491952D01*
X226793333Y-109444333D01*
X227031428Y-109444333D01*
X227126666Y-109491952D01*
X227174285Y-109539571D01*
X227221904Y-109634809D01*
X227221904Y-109872904D01*
X227174285Y-109968142D01*
X227126666Y-110015761D01*
X227031428Y-110063380D01*
X226793333Y-110063380D01*
X226698095Y-110015761D01*
X226650476Y-109968142D01*
X243795714Y-110063380D02*
X243795714Y-109063380D01*
X244367142Y-110063380D02*
X243938571Y-109491952D01*
X244367142Y-109063380D02*
X243795714Y-109634809D01*
X244700476Y-109063380D02*
X245319523Y-109063380D01*
X244986190Y-109444333D01*
X245129047Y-109444333D01*
X245224285Y-109491952D01*
X245271904Y-109539571D01*
X245319523Y-109634809D01*
X245319523Y-109872904D01*
X245271904Y-109968142D01*
X245224285Y-110015761D01*
X245129047Y-110063380D01*
X244843333Y-110063380D01*
X244748095Y-110015761D01*
X244700476Y-109968142D01*
X246176666Y-109063380D02*
X245986190Y-109063380D01*
X245890952Y-109111000D01*
X245843333Y-109158619D01*
X245748095Y-109301476D01*
X245700476Y-109491952D01*
X245700476Y-109872904D01*
X245748095Y-109968142D01*
X245795714Y-110015761D01*
X245890952Y-110063380D01*
X246081428Y-110063380D01*
X246176666Y-110015761D01*
X246224285Y-109968142D01*
X246271904Y-109872904D01*
X246271904Y-109634809D01*
X246224285Y-109539571D01*
X246176666Y-109491952D01*
X246081428Y-109444333D01*
X245890952Y-109444333D01*
X245795714Y-109491952D01*
X245748095Y-109539571D01*
X245700476Y-109634809D01*
X262845714Y-110063380D02*
X262845714Y-109063380D01*
X263417142Y-110063380D02*
X262988571Y-109491952D01*
X263417142Y-109063380D02*
X262845714Y-109634809D01*
X263750476Y-109063380D02*
X264369523Y-109063380D01*
X264036190Y-109444333D01*
X264179047Y-109444333D01*
X264274285Y-109491952D01*
X264321904Y-109539571D01*
X264369523Y-109634809D01*
X264369523Y-109872904D01*
X264321904Y-109968142D01*
X264274285Y-110015761D01*
X264179047Y-110063380D01*
X263893333Y-110063380D01*
X263798095Y-110015761D01*
X263750476Y-109968142D01*
X264702857Y-109063380D02*
X265369523Y-109063380D01*
X264940952Y-110063380D01*
X281895714Y-110063380D02*
X281895714Y-109063380D01*
X282467142Y-110063380D02*
X282038571Y-109491952D01*
X282467142Y-109063380D02*
X281895714Y-109634809D01*
X282800476Y-109063380D02*
X283419523Y-109063380D01*
X283086190Y-109444333D01*
X283229047Y-109444333D01*
X283324285Y-109491952D01*
X283371904Y-109539571D01*
X283419523Y-109634809D01*
X283419523Y-109872904D01*
X283371904Y-109968142D01*
X283324285Y-110015761D01*
X283229047Y-110063380D01*
X282943333Y-110063380D01*
X282848095Y-110015761D01*
X282800476Y-109968142D01*
X283990952Y-109491952D02*
X283895714Y-109444333D01*
X283848095Y-109396714D01*
X283800476Y-109301476D01*
X283800476Y-109253857D01*
X283848095Y-109158619D01*
X283895714Y-109111000D01*
X283990952Y-109063380D01*
X284181428Y-109063380D01*
X284276666Y-109111000D01*
X284324285Y-109158619D01*
X284371904Y-109253857D01*
X284371904Y-109301476D01*
X284324285Y-109396714D01*
X284276666Y-109444333D01*
X284181428Y-109491952D01*
X283990952Y-109491952D01*
X283895714Y-109539571D01*
X283848095Y-109587190D01*
X283800476Y-109682428D01*
X283800476Y-109872904D01*
X283848095Y-109968142D01*
X283895714Y-110015761D01*
X283990952Y-110063380D01*
X284181428Y-110063380D01*
X284276666Y-110015761D01*
X284324285Y-109968142D01*
X284371904Y-109872904D01*
X284371904Y-109682428D01*
X284324285Y-109587190D01*
X284276666Y-109539571D01*
X284181428Y-109491952D01*
X329520714Y-110063380D02*
X329520714Y-109063380D01*
X330092142Y-110063380D02*
X329663571Y-109491952D01*
X330092142Y-109063380D02*
X329520714Y-109634809D01*
X330949285Y-109396714D02*
X330949285Y-110063380D01*
X330711190Y-109015761D02*
X330473095Y-109730047D01*
X331092142Y-109730047D01*
X331663571Y-109063380D02*
X331758809Y-109063380D01*
X331854047Y-109111000D01*
X331901666Y-109158619D01*
X331949285Y-109253857D01*
X331996904Y-109444333D01*
X331996904Y-109682428D01*
X331949285Y-109872904D01*
X331901666Y-109968142D01*
X331854047Y-110015761D01*
X331758809Y-110063380D01*
X331663571Y-110063380D01*
X331568333Y-110015761D01*
X331520714Y-109968142D01*
X331473095Y-109872904D01*
X331425476Y-109682428D01*
X331425476Y-109444333D01*
X331473095Y-109253857D01*
X331520714Y-109158619D01*
X331568333Y-109111000D01*
X331663571Y-109063380D01*
X77108214Y-129113380D02*
X77108214Y-128113380D01*
X77679642Y-129113380D02*
X77251071Y-128541952D01*
X77679642Y-128113380D02*
X77108214Y-128684809D01*
X78536785Y-128446714D02*
X78536785Y-129113380D01*
X78298690Y-128065761D02*
X78060595Y-128780047D01*
X78679642Y-128780047D01*
X79012976Y-128208619D02*
X79060595Y-128161000D01*
X79155833Y-128113380D01*
X79393928Y-128113380D01*
X79489166Y-128161000D01*
X79536785Y-128208619D01*
X79584404Y-128303857D01*
X79584404Y-128399095D01*
X79536785Y-128541952D01*
X78965357Y-129113380D01*
X79584404Y-129113380D01*
X115208214Y-129113380D02*
X115208214Y-128113380D01*
X115779642Y-129113380D02*
X115351071Y-128541952D01*
X115779642Y-128113380D02*
X115208214Y-128684809D01*
X116636785Y-128446714D02*
X116636785Y-129113380D01*
X116398690Y-128065761D02*
X116160595Y-128780047D01*
X116779642Y-128780047D01*
X117589166Y-128446714D02*
X117589166Y-129113380D01*
X117351071Y-128065761D02*
X117112976Y-128780047D01*
X117732023Y-128780047D01*
X134258214Y-129113380D02*
X134258214Y-128113380D01*
X134829642Y-129113380D02*
X134401071Y-128541952D01*
X134829642Y-128113380D02*
X134258214Y-128684809D01*
X135686785Y-128446714D02*
X135686785Y-129113380D01*
X135448690Y-128065761D02*
X135210595Y-128780047D01*
X135829642Y-128780047D01*
X136686785Y-128113380D02*
X136210595Y-128113380D01*
X136162976Y-128589571D01*
X136210595Y-128541952D01*
X136305833Y-128494333D01*
X136543928Y-128494333D01*
X136639166Y-128541952D01*
X136686785Y-128589571D01*
X136734404Y-128684809D01*
X136734404Y-128922904D01*
X136686785Y-129018142D01*
X136639166Y-129065761D01*
X136543928Y-129113380D01*
X136305833Y-129113380D01*
X136210595Y-129065761D01*
X136162976Y-129018142D01*
X153308214Y-129113380D02*
X153308214Y-128113380D01*
X153879642Y-129113380D02*
X153451071Y-128541952D01*
X153879642Y-128113380D02*
X153308214Y-128684809D01*
X154736785Y-128446714D02*
X154736785Y-129113380D01*
X154498690Y-128065761D02*
X154260595Y-128780047D01*
X154879642Y-128780047D01*
X155689166Y-128113380D02*
X155498690Y-128113380D01*
X155403452Y-128161000D01*
X155355833Y-128208619D01*
X155260595Y-128351476D01*
X155212976Y-128541952D01*
X155212976Y-128922904D01*
X155260595Y-129018142D01*
X155308214Y-129065761D01*
X155403452Y-129113380D01*
X155593928Y-129113380D01*
X155689166Y-129065761D01*
X155736785Y-129018142D01*
X155784404Y-128922904D01*
X155784404Y-128684809D01*
X155736785Y-128589571D01*
X155689166Y-128541952D01*
X155593928Y-128494333D01*
X155403452Y-128494333D01*
X155308214Y-128541952D01*
X155260595Y-128589571D01*
X155212976Y-128684809D01*
X191408214Y-129113380D02*
X191408214Y-128113380D01*
X191979642Y-129113380D02*
X191551071Y-128541952D01*
X191979642Y-128113380D02*
X191408214Y-128684809D01*
X192836785Y-128446714D02*
X192836785Y-129113380D01*
X192598690Y-128065761D02*
X192360595Y-128780047D01*
X192979642Y-128780047D01*
X193503452Y-128541952D02*
X193408214Y-128494333D01*
X193360595Y-128446714D01*
X193312976Y-128351476D01*
X193312976Y-128303857D01*
X193360595Y-128208619D01*
X193408214Y-128161000D01*
X193503452Y-128113380D01*
X193693928Y-128113380D01*
X193789166Y-128161000D01*
X193836785Y-128208619D01*
X193884404Y-128303857D01*
X193884404Y-128351476D01*
X193836785Y-128446714D01*
X193789166Y-128494333D01*
X193693928Y-128541952D01*
X193503452Y-128541952D01*
X193408214Y-128589571D01*
X193360595Y-128637190D01*
X193312976Y-128732428D01*
X193312976Y-128922904D01*
X193360595Y-129018142D01*
X193408214Y-129065761D01*
X193503452Y-129113380D01*
X193693928Y-129113380D01*
X193789166Y-129065761D01*
X193836785Y-129018142D01*
X193884404Y-128922904D01*
X193884404Y-128732428D01*
X193836785Y-128637190D01*
X193789166Y-128589571D01*
X193693928Y-128541952D01*
X210458214Y-129113380D02*
X210458214Y-128113380D01*
X211029642Y-129113380D02*
X210601071Y-128541952D01*
X211029642Y-128113380D02*
X210458214Y-128684809D01*
X211886785Y-128446714D02*
X211886785Y-129113380D01*
X211648690Y-128065761D02*
X211410595Y-128780047D01*
X212029642Y-128780047D01*
X212458214Y-129113380D02*
X212648690Y-129113380D01*
X212743928Y-129065761D01*
X212791547Y-129018142D01*
X212886785Y-128875285D01*
X212934404Y-128684809D01*
X212934404Y-128303857D01*
X212886785Y-128208619D01*
X212839166Y-128161000D01*
X212743928Y-128113380D01*
X212553452Y-128113380D01*
X212458214Y-128161000D01*
X212410595Y-128208619D01*
X212362976Y-128303857D01*
X212362976Y-128541952D01*
X212410595Y-128637190D01*
X212458214Y-128684809D01*
X212553452Y-128732428D01*
X212743928Y-128732428D01*
X212839166Y-128684809D01*
X212886785Y-128637190D01*
X212934404Y-128541952D01*
X229508214Y-129113380D02*
X229508214Y-128113380D01*
X230079642Y-129113380D02*
X229651071Y-128541952D01*
X230079642Y-128113380D02*
X229508214Y-128684809D01*
X230984404Y-128113380D02*
X230508214Y-128113380D01*
X230460595Y-128589571D01*
X230508214Y-128541952D01*
X230603452Y-128494333D01*
X230841547Y-128494333D01*
X230936785Y-128541952D01*
X230984404Y-128589571D01*
X231032023Y-128684809D01*
X231032023Y-128922904D01*
X230984404Y-129018142D01*
X230936785Y-129065761D01*
X230841547Y-129113380D01*
X230603452Y-129113380D01*
X230508214Y-129065761D01*
X230460595Y-129018142D01*
X231651071Y-128113380D02*
X231746309Y-128113380D01*
X231841547Y-128161000D01*
X231889166Y-128208619D01*
X231936785Y-128303857D01*
X231984404Y-128494333D01*
X231984404Y-128732428D01*
X231936785Y-128922904D01*
X231889166Y-129018142D01*
X231841547Y-129065761D01*
X231746309Y-129113380D01*
X231651071Y-129113380D01*
X231555833Y-129065761D01*
X231508214Y-129018142D01*
X231460595Y-128922904D01*
X231412976Y-128732428D01*
X231412976Y-128494333D01*
X231460595Y-128303857D01*
X231508214Y-128208619D01*
X231555833Y-128161000D01*
X231651071Y-128113380D01*
X248558214Y-129113380D02*
X248558214Y-128113380D01*
X249129642Y-129113380D02*
X248701071Y-128541952D01*
X249129642Y-128113380D02*
X248558214Y-128684809D01*
X250034404Y-128113380D02*
X249558214Y-128113380D01*
X249510595Y-128589571D01*
X249558214Y-128541952D01*
X249653452Y-128494333D01*
X249891547Y-128494333D01*
X249986785Y-128541952D01*
X250034404Y-128589571D01*
X250082023Y-128684809D01*
X250082023Y-128922904D01*
X250034404Y-129018142D01*
X249986785Y-129065761D01*
X249891547Y-129113380D01*
X249653452Y-129113380D01*
X249558214Y-129065761D01*
X249510595Y-129018142D01*
X251034404Y-129113380D02*
X250462976Y-129113380D01*
X250748690Y-129113380D02*
X250748690Y-128113380D01*
X250653452Y-128256238D01*
X250558214Y-128351476D01*
X250462976Y-128399095D01*
X267608214Y-129113380D02*
X267608214Y-128113380D01*
X268179642Y-129113380D02*
X267751071Y-128541952D01*
X268179642Y-128113380D02*
X267608214Y-128684809D01*
X269084404Y-128113380D02*
X268608214Y-128113380D01*
X268560595Y-128589571D01*
X268608214Y-128541952D01*
X268703452Y-128494333D01*
X268941547Y-128494333D01*
X269036785Y-128541952D01*
X269084404Y-128589571D01*
X269132023Y-128684809D01*
X269132023Y-128922904D01*
X269084404Y-129018142D01*
X269036785Y-129065761D01*
X268941547Y-129113380D01*
X268703452Y-129113380D01*
X268608214Y-129065761D01*
X268560595Y-129018142D01*
X269512976Y-128208619D02*
X269560595Y-128161000D01*
X269655833Y-128113380D01*
X269893928Y-128113380D01*
X269989166Y-128161000D01*
X270036785Y-128208619D01*
X270084404Y-128303857D01*
X270084404Y-128399095D01*
X270036785Y-128541952D01*
X269465357Y-129113380D01*
X270084404Y-129113380D01*
X329520714Y-129113380D02*
X329520714Y-128113380D01*
X330092142Y-129113380D02*
X329663571Y-128541952D01*
X330092142Y-128113380D02*
X329520714Y-128684809D01*
X330996904Y-128113380D02*
X330520714Y-128113380D01*
X330473095Y-128589571D01*
X330520714Y-128541952D01*
X330615952Y-128494333D01*
X330854047Y-128494333D01*
X330949285Y-128541952D01*
X330996904Y-128589571D01*
X331044523Y-128684809D01*
X331044523Y-128922904D01*
X330996904Y-129018142D01*
X330949285Y-129065761D01*
X330854047Y-129113380D01*
X330615952Y-129113380D01*
X330520714Y-129065761D01*
X330473095Y-129018142D01*
X331901666Y-128446714D02*
X331901666Y-129113380D01*
X331663571Y-128065761D02*
X331425476Y-128780047D01*
X332044523Y-128780047D01*
X86633214Y-148163380D02*
X86633214Y-147163380D01*
X87204642Y-148163380D02*
X86776071Y-147591952D01*
X87204642Y-147163380D02*
X86633214Y-147734809D01*
X88109404Y-147163380D02*
X87633214Y-147163380D01*
X87585595Y-147639571D01*
X87633214Y-147591952D01*
X87728452Y-147544333D01*
X87966547Y-147544333D01*
X88061785Y-147591952D01*
X88109404Y-147639571D01*
X88157023Y-147734809D01*
X88157023Y-147972904D01*
X88109404Y-148068142D01*
X88061785Y-148115761D01*
X87966547Y-148163380D01*
X87728452Y-148163380D01*
X87633214Y-148115761D01*
X87585595Y-148068142D01*
X89014166Y-147163380D02*
X88823690Y-147163380D01*
X88728452Y-147211000D01*
X88680833Y-147258619D01*
X88585595Y-147401476D01*
X88537976Y-147591952D01*
X88537976Y-147972904D01*
X88585595Y-148068142D01*
X88633214Y-148115761D01*
X88728452Y-148163380D01*
X88918928Y-148163380D01*
X89014166Y-148115761D01*
X89061785Y-148068142D01*
X89109404Y-147972904D01*
X89109404Y-147734809D01*
X89061785Y-147639571D01*
X89014166Y-147591952D01*
X88918928Y-147544333D01*
X88728452Y-147544333D01*
X88633214Y-147591952D01*
X88585595Y-147639571D01*
X88537976Y-147734809D01*
X124733214Y-148163380D02*
X124733214Y-147163380D01*
X125304642Y-148163380D02*
X124876071Y-147591952D01*
X125304642Y-147163380D02*
X124733214Y-147734809D01*
X126209404Y-147163380D02*
X125733214Y-147163380D01*
X125685595Y-147639571D01*
X125733214Y-147591952D01*
X125828452Y-147544333D01*
X126066547Y-147544333D01*
X126161785Y-147591952D01*
X126209404Y-147639571D01*
X126257023Y-147734809D01*
X126257023Y-147972904D01*
X126209404Y-148068142D01*
X126161785Y-148115761D01*
X126066547Y-148163380D01*
X125828452Y-148163380D01*
X125733214Y-148115761D01*
X125685595Y-148068142D01*
X126828452Y-147591952D02*
X126733214Y-147544333D01*
X126685595Y-147496714D01*
X126637976Y-147401476D01*
X126637976Y-147353857D01*
X126685595Y-147258619D01*
X126733214Y-147211000D01*
X126828452Y-147163380D01*
X127018928Y-147163380D01*
X127114166Y-147211000D01*
X127161785Y-147258619D01*
X127209404Y-147353857D01*
X127209404Y-147401476D01*
X127161785Y-147496714D01*
X127114166Y-147544333D01*
X127018928Y-147591952D01*
X126828452Y-147591952D01*
X126733214Y-147639571D01*
X126685595Y-147687190D01*
X126637976Y-147782428D01*
X126637976Y-147972904D01*
X126685595Y-148068142D01*
X126733214Y-148115761D01*
X126828452Y-148163380D01*
X127018928Y-148163380D01*
X127114166Y-148115761D01*
X127161785Y-148068142D01*
X127209404Y-147972904D01*
X127209404Y-147782428D01*
X127161785Y-147687190D01*
X127114166Y-147639571D01*
X127018928Y-147591952D01*
X143783214Y-148163380D02*
X143783214Y-147163380D01*
X144354642Y-148163380D02*
X143926071Y-147591952D01*
X144354642Y-147163380D02*
X143783214Y-147734809D01*
X145259404Y-147163380D02*
X144783214Y-147163380D01*
X144735595Y-147639571D01*
X144783214Y-147591952D01*
X144878452Y-147544333D01*
X145116547Y-147544333D01*
X145211785Y-147591952D01*
X145259404Y-147639571D01*
X145307023Y-147734809D01*
X145307023Y-147972904D01*
X145259404Y-148068142D01*
X145211785Y-148115761D01*
X145116547Y-148163380D01*
X144878452Y-148163380D01*
X144783214Y-148115761D01*
X144735595Y-148068142D01*
X145783214Y-148163380D02*
X145973690Y-148163380D01*
X146068928Y-148115761D01*
X146116547Y-148068142D01*
X146211785Y-147925285D01*
X146259404Y-147734809D01*
X146259404Y-147353857D01*
X146211785Y-147258619D01*
X146164166Y-147211000D01*
X146068928Y-147163380D01*
X145878452Y-147163380D01*
X145783214Y-147211000D01*
X145735595Y-147258619D01*
X145687976Y-147353857D01*
X145687976Y-147591952D01*
X145735595Y-147687190D01*
X145783214Y-147734809D01*
X145878452Y-147782428D01*
X146068928Y-147782428D01*
X146164166Y-147734809D01*
X146211785Y-147687190D01*
X146259404Y-147591952D01*
X200933214Y-148163380D02*
X200933214Y-147163380D01*
X201504642Y-148163380D02*
X201076071Y-147591952D01*
X201504642Y-147163380D02*
X200933214Y-147734809D01*
X202361785Y-147163380D02*
X202171309Y-147163380D01*
X202076071Y-147211000D01*
X202028452Y-147258619D01*
X201933214Y-147401476D01*
X201885595Y-147591952D01*
X201885595Y-147972904D01*
X201933214Y-148068142D01*
X201980833Y-148115761D01*
X202076071Y-148163380D01*
X202266547Y-148163380D01*
X202361785Y-148115761D01*
X202409404Y-148068142D01*
X202457023Y-147972904D01*
X202457023Y-147734809D01*
X202409404Y-147639571D01*
X202361785Y-147591952D01*
X202266547Y-147544333D01*
X202076071Y-147544333D01*
X201980833Y-147591952D01*
X201933214Y-147639571D01*
X201885595Y-147734809D01*
X202837976Y-147258619D02*
X202885595Y-147211000D01*
X202980833Y-147163380D01*
X203218928Y-147163380D01*
X203314166Y-147211000D01*
X203361785Y-147258619D01*
X203409404Y-147353857D01*
X203409404Y-147449095D01*
X203361785Y-147591952D01*
X202790357Y-148163380D01*
X203409404Y-148163380D01*
X219983214Y-148163380D02*
X219983214Y-147163380D01*
X220554642Y-148163380D02*
X220126071Y-147591952D01*
X220554642Y-147163380D02*
X219983214Y-147734809D01*
X221411785Y-147163380D02*
X221221309Y-147163380D01*
X221126071Y-147211000D01*
X221078452Y-147258619D01*
X220983214Y-147401476D01*
X220935595Y-147591952D01*
X220935595Y-147972904D01*
X220983214Y-148068142D01*
X221030833Y-148115761D01*
X221126071Y-148163380D01*
X221316547Y-148163380D01*
X221411785Y-148115761D01*
X221459404Y-148068142D01*
X221507023Y-147972904D01*
X221507023Y-147734809D01*
X221459404Y-147639571D01*
X221411785Y-147591952D01*
X221316547Y-147544333D01*
X221126071Y-147544333D01*
X221030833Y-147591952D01*
X220983214Y-147639571D01*
X220935595Y-147734809D01*
X221840357Y-147163380D02*
X222459404Y-147163380D01*
X222126071Y-147544333D01*
X222268928Y-147544333D01*
X222364166Y-147591952D01*
X222411785Y-147639571D01*
X222459404Y-147734809D01*
X222459404Y-147972904D01*
X222411785Y-148068142D01*
X222364166Y-148115761D01*
X222268928Y-148163380D01*
X221983214Y-148163380D01*
X221887976Y-148115761D01*
X221840357Y-148068142D01*
X239033214Y-148163380D02*
X239033214Y-147163380D01*
X239604642Y-148163380D02*
X239176071Y-147591952D01*
X239604642Y-147163380D02*
X239033214Y-147734809D01*
X240461785Y-147163380D02*
X240271309Y-147163380D01*
X240176071Y-147211000D01*
X240128452Y-147258619D01*
X240033214Y-147401476D01*
X239985595Y-147591952D01*
X239985595Y-147972904D01*
X240033214Y-148068142D01*
X240080833Y-148115761D01*
X240176071Y-148163380D01*
X240366547Y-148163380D01*
X240461785Y-148115761D01*
X240509404Y-148068142D01*
X240557023Y-147972904D01*
X240557023Y-147734809D01*
X240509404Y-147639571D01*
X240461785Y-147591952D01*
X240366547Y-147544333D01*
X240176071Y-147544333D01*
X240080833Y-147591952D01*
X240033214Y-147639571D01*
X239985595Y-147734809D01*
X241414166Y-147496714D02*
X241414166Y-148163380D01*
X241176071Y-147115761D02*
X240937976Y-147830047D01*
X241557023Y-147830047D01*
X258083214Y-148163380D02*
X258083214Y-147163380D01*
X258654642Y-148163380D02*
X258226071Y-147591952D01*
X258654642Y-147163380D02*
X258083214Y-147734809D01*
X259511785Y-147163380D02*
X259321309Y-147163380D01*
X259226071Y-147211000D01*
X259178452Y-147258619D01*
X259083214Y-147401476D01*
X259035595Y-147591952D01*
X259035595Y-147972904D01*
X259083214Y-148068142D01*
X259130833Y-148115761D01*
X259226071Y-148163380D01*
X259416547Y-148163380D01*
X259511785Y-148115761D01*
X259559404Y-148068142D01*
X259607023Y-147972904D01*
X259607023Y-147734809D01*
X259559404Y-147639571D01*
X259511785Y-147591952D01*
X259416547Y-147544333D01*
X259226071Y-147544333D01*
X259130833Y-147591952D01*
X259083214Y-147639571D01*
X259035595Y-147734809D01*
X260511785Y-147163380D02*
X260035595Y-147163380D01*
X259987976Y-147639571D01*
X260035595Y-147591952D01*
X260130833Y-147544333D01*
X260368928Y-147544333D01*
X260464166Y-147591952D01*
X260511785Y-147639571D01*
X260559404Y-147734809D01*
X260559404Y-147972904D01*
X260511785Y-148068142D01*
X260464166Y-148115761D01*
X260368928Y-148163380D01*
X260130833Y-148163380D01*
X260035595Y-148115761D01*
X259987976Y-148068142D01*
X329520714Y-148163380D02*
X329520714Y-147163380D01*
X330092142Y-148163380D02*
X329663571Y-147591952D01*
X330092142Y-147163380D02*
X329520714Y-147734809D01*
X330949285Y-147163380D02*
X330758809Y-147163380D01*
X330663571Y-147211000D01*
X330615952Y-147258619D01*
X330520714Y-147401476D01*
X330473095Y-147591952D01*
X330473095Y-147972904D01*
X330520714Y-148068142D01*
X330568333Y-148115761D01*
X330663571Y-148163380D01*
X330854047Y-148163380D01*
X330949285Y-148115761D01*
X330996904Y-148068142D01*
X331044523Y-147972904D01*
X331044523Y-147734809D01*
X330996904Y-147639571D01*
X330949285Y-147591952D01*
X330854047Y-147544333D01*
X330663571Y-147544333D01*
X330568333Y-147591952D01*
X330520714Y-147639571D01*
X330473095Y-147734809D01*
X331615952Y-147591952D02*
X331520714Y-147544333D01*
X331473095Y-147496714D01*
X331425476Y-147401476D01*
X331425476Y-147353857D01*
X331473095Y-147258619D01*
X331520714Y-147211000D01*
X331615952Y-147163380D01*
X331806428Y-147163380D01*
X331901666Y-147211000D01*
X331949285Y-147258619D01*
X331996904Y-147353857D01*
X331996904Y-147401476D01*
X331949285Y-147496714D01*
X331901666Y-147544333D01*
X331806428Y-147591952D01*
X331615952Y-147591952D01*
X331520714Y-147639571D01*
X331473095Y-147687190D01*
X331425476Y-147782428D01*
X331425476Y-147972904D01*
X331473095Y-148068142D01*
X331520714Y-148115761D01*
X331615952Y-148163380D01*
X331806428Y-148163380D01*
X331901666Y-148115761D01*
X331949285Y-148068142D01*
X331996904Y-147972904D01*
X331996904Y-147782428D01*
X331949285Y-147687190D01*
X331901666Y-147639571D01*
X331806428Y-147591952D01*
X67583214Y-167213380D02*
X67583214Y-166213380D01*
X68154642Y-167213380D02*
X67726071Y-166641952D01*
X68154642Y-166213380D02*
X67583214Y-166784809D01*
X68487976Y-166213380D02*
X69154642Y-166213380D01*
X68726071Y-167213380D01*
X69726071Y-166213380D02*
X69821309Y-166213380D01*
X69916547Y-166261000D01*
X69964166Y-166308619D01*
X70011785Y-166403857D01*
X70059404Y-166594333D01*
X70059404Y-166832428D01*
X70011785Y-167022904D01*
X69964166Y-167118142D01*
X69916547Y-167165761D01*
X69821309Y-167213380D01*
X69726071Y-167213380D01*
X69630833Y-167165761D01*
X69583214Y-167118142D01*
X69535595Y-167022904D01*
X69487976Y-166832428D01*
X69487976Y-166594333D01*
X69535595Y-166403857D01*
X69583214Y-166308619D01*
X69630833Y-166261000D01*
X69726071Y-166213380D01*
X291420714Y-167213380D02*
X291420714Y-166213380D01*
X291992142Y-167213380D02*
X291563571Y-166641952D01*
X291992142Y-166213380D02*
X291420714Y-166784809D01*
X292325476Y-166213380D02*
X292992142Y-166213380D01*
X292563571Y-167213380D01*
X293849285Y-166213380D02*
X293373095Y-166213380D01*
X293325476Y-166689571D01*
X293373095Y-166641952D01*
X293468333Y-166594333D01*
X293706428Y-166594333D01*
X293801666Y-166641952D01*
X293849285Y-166689571D01*
X293896904Y-166784809D01*
X293896904Y-167022904D01*
X293849285Y-167118142D01*
X293801666Y-167165761D01*
X293706428Y-167213380D01*
X293468333Y-167213380D01*
X293373095Y-167165761D01*
X293325476Y-167118142D01*
X310470714Y-167213380D02*
X310470714Y-166213380D01*
X311042142Y-167213380D02*
X310613571Y-166641952D01*
X311042142Y-166213380D02*
X310470714Y-166784809D01*
X311375476Y-166213380D02*
X312042142Y-166213380D01*
X311613571Y-167213380D01*
X312851666Y-166213380D02*
X312661190Y-166213380D01*
X312565952Y-166261000D01*
X312518333Y-166308619D01*
X312423095Y-166451476D01*
X312375476Y-166641952D01*
X312375476Y-167022904D01*
X312423095Y-167118142D01*
X312470714Y-167165761D01*
X312565952Y-167213380D01*
X312756428Y-167213380D01*
X312851666Y-167165761D01*
X312899285Y-167118142D01*
X312946904Y-167022904D01*
X312946904Y-166784809D01*
X312899285Y-166689571D01*
X312851666Y-166641952D01*
X312756428Y-166594333D01*
X312565952Y-166594333D01*
X312470714Y-166641952D01*
X312423095Y-166689571D01*
X312375476Y-166784809D01*
X167595714Y-167213380D02*
X167595714Y-166213380D01*
X168167142Y-167213380D02*
X167738571Y-166641952D01*
X168167142Y-166213380D02*
X167595714Y-166784809D01*
X168500476Y-166213380D02*
X169167142Y-166213380D01*
X168738571Y-167213380D01*
X169500476Y-166308619D02*
X169548095Y-166261000D01*
X169643333Y-166213380D01*
X169881428Y-166213380D01*
X169976666Y-166261000D01*
X170024285Y-166308619D01*
X170071904Y-166403857D01*
X170071904Y-166499095D01*
X170024285Y-166641952D01*
X169452857Y-167213380D01*
X170071904Y-167213380D01*
%LPC*%
D12*
X294800000Y-63150000D03*
X297340000Y-63150000D03*
X299880000Y-63150000D03*
X302420000Y-63150000D03*
X304960000Y-63150000D03*
X307500000Y-63150000D03*
X310040000Y-63150000D03*
X312580000Y-63150000D03*
X315120000Y-63150000D03*
X317660000Y-63150000D03*
X320200000Y-63150000D03*
X320200000Y-75850000D03*
X317660000Y-75850000D03*
X315120000Y-75850000D03*
X312580000Y-75850000D03*
X310040000Y-75850000D03*
X307500000Y-75850000D03*
X304960000Y-75850000D03*
X302420000Y-75850000D03*
X299880000Y-75850000D03*
X297340000Y-75850000D03*
X294800000Y-75850000D03*
D13*
X314060000Y-91435000D03*
X290260000Y-91435000D03*
D14*
X290260000Y-106675000D03*
X314060000Y-106675000D03*
D15*
X307240000Y-98435000D03*
X297080000Y-98435000D03*
D14*
X302160000Y-98435000D03*
D16*
X298350000Y-95895000D03*
X304700000Y-93355000D03*
D13*
X311678750Y-129535000D03*
X287878750Y-129535000D03*
D14*
X287878750Y-144775000D03*
X311678750Y-144775000D03*
D15*
X304858750Y-136535000D03*
X294698750Y-136535000D03*
D14*
X299778750Y-136535000D03*
D16*
X295968750Y-133995000D03*
X302318750Y-131455000D03*
D13*
X68791250Y-148585000D03*
X44991250Y-148585000D03*
D14*
X44991250Y-163825000D03*
X68791250Y-163825000D03*
D15*
X61971250Y-155585000D03*
X51811250Y-155585000D03*
D14*
X56891250Y-155585000D03*
D16*
X53081250Y-153045000D03*
X59431250Y-150505000D03*
D15*
X312002500Y-117485000D03*
X301842500Y-117485000D03*
D14*
X306922500Y-117485000D03*
D16*
X303112500Y-114945000D03*
X309462500Y-112405000D03*
D15*
X54827500Y-117485000D03*
X44667500Y-117485000D03*
D14*
X49747500Y-117485000D03*
D16*
X45937500Y-114945000D03*
X52287500Y-112405000D03*
D15*
X290571250Y-155585000D03*
X280411250Y-155585000D03*
D14*
X285491250Y-155585000D03*
D16*
X281681250Y-153045000D03*
X288031250Y-150505000D03*
D15*
X57208750Y-136535000D03*
X47048750Y-136535000D03*
D14*
X52128750Y-136535000D03*
D16*
X48318750Y-133995000D03*
X54668750Y-131455000D03*
D15*
X52446250Y-174635000D03*
X42286250Y-174635000D03*
D14*
X47366250Y-174635000D03*
D16*
X43556250Y-172095000D03*
X49906250Y-169555000D03*
D15*
X95308750Y-174635000D03*
X85148750Y-174635000D03*
D14*
X90228750Y-174635000D03*
D16*
X86418750Y-172095000D03*
X92768750Y-169555000D03*
D15*
X252471250Y-174635000D03*
X242311250Y-174635000D03*
D14*
X247391250Y-174635000D03*
D16*
X243581250Y-172095000D03*
X249931250Y-169555000D03*
D15*
X276283750Y-174635000D03*
X266123750Y-174635000D03*
D14*
X271203750Y-174635000D03*
D16*
X267393750Y-172095000D03*
X273743750Y-169555000D03*
D15*
X169127500Y-155585000D03*
X158967500Y-155585000D03*
D14*
X164047500Y-155585000D03*
D16*
X160237500Y-153045000D03*
X166587500Y-150505000D03*
D15*
X116740000Y-69860000D03*
X106580000Y-69860000D03*
D14*
X111660000Y-69860000D03*
D16*
X107850000Y-67320000D03*
X114200000Y-64780000D03*
D15*
X50065000Y-69860000D03*
X39905000Y-69860000D03*
D14*
X44985000Y-69860000D03*
D16*
X41175000Y-67320000D03*
X47525000Y-64780000D03*
D15*
X335815000Y-174635000D03*
X325655000Y-174635000D03*
D14*
X330735000Y-174635000D03*
D16*
X326925000Y-172095000D03*
X333275000Y-169555000D03*
D15*
X316765000Y-155585000D03*
X306605000Y-155585000D03*
D14*
X311685000Y-155585000D03*
D16*
X307875000Y-153045000D03*
X314225000Y-150505000D03*
D15*
X178652500Y-136535000D03*
X168492500Y-136535000D03*
D14*
X173572500Y-136535000D03*
D16*
X169762500Y-133995000D03*
X176112500Y-131455000D03*
D15*
X188177500Y-155585000D03*
X178017500Y-155585000D03*
D14*
X183097500Y-155585000D03*
D16*
X179287500Y-153045000D03*
X185637500Y-150505000D03*
D15*
X111977500Y-155585000D03*
X101817500Y-155585000D03*
D14*
X106897500Y-155585000D03*
D16*
X103087500Y-153045000D03*
X109437500Y-150505000D03*
D15*
X102452500Y-136535000D03*
X92292500Y-136535000D03*
D14*
X97372500Y-136535000D03*
D16*
X93562500Y-133995000D03*
X99912500Y-131455000D03*
D15*
X78640000Y-69860000D03*
X68480000Y-69860000D03*
D14*
X73560000Y-69860000D03*
D16*
X69750000Y-67320000D03*
X76100000Y-64780000D03*
D15*
X97690000Y-69860000D03*
X87530000Y-69860000D03*
D14*
X92610000Y-69860000D03*
D16*
X88800000Y-67320000D03*
X95150000Y-64780000D03*
D15*
X135790000Y-69860000D03*
X125630000Y-69860000D03*
D14*
X130710000Y-69860000D03*
D16*
X126900000Y-67320000D03*
X133250000Y-64780000D03*
D15*
X164365000Y-69860000D03*
X154205000Y-69860000D03*
D14*
X159285000Y-69860000D03*
D16*
X155475000Y-67320000D03*
X161825000Y-64780000D03*
D15*
X183415000Y-69860000D03*
X173255000Y-69860000D03*
D14*
X178335000Y-69860000D03*
D16*
X174525000Y-67320000D03*
X180875000Y-64780000D03*
D15*
X202465000Y-69860000D03*
X192305000Y-69860000D03*
D14*
X197385000Y-69860000D03*
D16*
X193575000Y-67320000D03*
X199925000Y-64780000D03*
D15*
X221515000Y-69860000D03*
X211355000Y-69860000D03*
D14*
X216435000Y-69860000D03*
D16*
X212625000Y-67320000D03*
X218975000Y-64780000D03*
D15*
X250090000Y-69860000D03*
X239930000Y-69860000D03*
D14*
X245010000Y-69860000D03*
D16*
X241200000Y-67320000D03*
X247550000Y-64780000D03*
D15*
X269140000Y-69860000D03*
X258980000Y-69860000D03*
D14*
X264060000Y-69860000D03*
D16*
X260250000Y-67320000D03*
X266600000Y-64780000D03*
D15*
X50065000Y-98435000D03*
X39905000Y-98435000D03*
D14*
X44985000Y-98435000D03*
D16*
X41175000Y-95895000D03*
X47525000Y-93355000D03*
D15*
X69115000Y-98435000D03*
X58955000Y-98435000D03*
D14*
X64035000Y-98435000D03*
D16*
X60225000Y-95895000D03*
X66575000Y-93355000D03*
D15*
X88165000Y-98435000D03*
X78005000Y-98435000D03*
D14*
X83085000Y-98435000D03*
D16*
X79275000Y-95895000D03*
X85625000Y-93355000D03*
D15*
X107215000Y-98435000D03*
X97055000Y-98435000D03*
D14*
X102135000Y-98435000D03*
D16*
X98325000Y-95895000D03*
X104675000Y-93355000D03*
D15*
X126265000Y-98435000D03*
X116105000Y-98435000D03*
D14*
X121185000Y-98435000D03*
D16*
X117375000Y-95895000D03*
X123725000Y-93355000D03*
D15*
X145315000Y-98435000D03*
X135155000Y-98435000D03*
D14*
X140235000Y-98435000D03*
D16*
X136425000Y-95895000D03*
X142775000Y-93355000D03*
D15*
X164365000Y-98435000D03*
X154205000Y-98435000D03*
D14*
X159285000Y-98435000D03*
D16*
X155475000Y-95895000D03*
X161825000Y-93355000D03*
D15*
X183415000Y-98435000D03*
X173255000Y-98435000D03*
D14*
X178335000Y-98435000D03*
D16*
X174525000Y-95895000D03*
X180875000Y-93355000D03*
D15*
X202465000Y-98435000D03*
X192305000Y-98435000D03*
D14*
X197385000Y-98435000D03*
D16*
X193575000Y-95895000D03*
X199925000Y-93355000D03*
D15*
X221515000Y-98435000D03*
X211355000Y-98435000D03*
D14*
X216435000Y-98435000D03*
D16*
X212625000Y-95895000D03*
X218975000Y-93355000D03*
D15*
X240565000Y-98435000D03*
X230405000Y-98435000D03*
D14*
X235485000Y-98435000D03*
D16*
X231675000Y-95895000D03*
X238025000Y-93355000D03*
D15*
X259615000Y-98435000D03*
X249455000Y-98435000D03*
D14*
X254535000Y-98435000D03*
D16*
X250725000Y-95895000D03*
X257075000Y-93355000D03*
D15*
X278665000Y-98435000D03*
X268505000Y-98435000D03*
D14*
X273585000Y-98435000D03*
D16*
X269775000Y-95895000D03*
X276125000Y-93355000D03*
D15*
X335815000Y-98435000D03*
X325655000Y-98435000D03*
D14*
X330735000Y-98435000D03*
D16*
X326925000Y-95895000D03*
X333275000Y-93355000D03*
D15*
X78640000Y-117485000D03*
X68480000Y-117485000D03*
D14*
X73560000Y-117485000D03*
D16*
X69750000Y-114945000D03*
X76100000Y-112405000D03*
D15*
X97690000Y-117485000D03*
X87530000Y-117485000D03*
D14*
X92610000Y-117485000D03*
D16*
X88800000Y-114945000D03*
X95150000Y-112405000D03*
D15*
X116740000Y-117485000D03*
X106580000Y-117485000D03*
D14*
X111660000Y-117485000D03*
D16*
X107850000Y-114945000D03*
X114200000Y-112405000D03*
D15*
X135790000Y-117485000D03*
X125630000Y-117485000D03*
D14*
X130710000Y-117485000D03*
D16*
X126900000Y-114945000D03*
X133250000Y-112405000D03*
D15*
X154840000Y-117485000D03*
X144680000Y-117485000D03*
D14*
X149760000Y-117485000D03*
D16*
X145950000Y-114945000D03*
X152300000Y-112405000D03*
D15*
X173890000Y-117485000D03*
X163730000Y-117485000D03*
D14*
X168810000Y-117485000D03*
D16*
X165000000Y-114945000D03*
X171350000Y-112405000D03*
D15*
X192940000Y-117485000D03*
X182780000Y-117485000D03*
D14*
X187860000Y-117485000D03*
D16*
X184050000Y-114945000D03*
X190400000Y-112405000D03*
D15*
X211990000Y-117485000D03*
X201830000Y-117485000D03*
D14*
X206910000Y-117485000D03*
D16*
X203100000Y-114945000D03*
X209450000Y-112405000D03*
D15*
X231040000Y-117485000D03*
X220880000Y-117485000D03*
D14*
X225960000Y-117485000D03*
D16*
X222150000Y-114945000D03*
X228500000Y-112405000D03*
D15*
X250090000Y-117485000D03*
X239930000Y-117485000D03*
D14*
X245010000Y-117485000D03*
D16*
X241200000Y-114945000D03*
X247550000Y-112405000D03*
D15*
X269140000Y-117485000D03*
X258980000Y-117485000D03*
D14*
X264060000Y-117485000D03*
D16*
X260250000Y-114945000D03*
X266600000Y-112405000D03*
D15*
X288190000Y-117485000D03*
X278030000Y-117485000D03*
D14*
X283110000Y-117485000D03*
D16*
X279300000Y-114945000D03*
X285650000Y-112405000D03*
D15*
X335815000Y-117485000D03*
X325655000Y-117485000D03*
D14*
X330735000Y-117485000D03*
D16*
X326925000Y-114945000D03*
X333275000Y-112405000D03*
D15*
X83402500Y-136535000D03*
X73242500Y-136535000D03*
D14*
X78322500Y-136535000D03*
D16*
X74512500Y-133995000D03*
X80862500Y-131455000D03*
D15*
X121502500Y-136535000D03*
X111342500Y-136535000D03*
D14*
X116422500Y-136535000D03*
D16*
X112612500Y-133995000D03*
X118962500Y-131455000D03*
D15*
X140552500Y-136535000D03*
X130392500Y-136535000D03*
D14*
X135472500Y-136535000D03*
D16*
X131662500Y-133995000D03*
X138012500Y-131455000D03*
D15*
X159602500Y-136535000D03*
X149442500Y-136535000D03*
D14*
X154522500Y-136535000D03*
D16*
X150712500Y-133995000D03*
X157062500Y-131455000D03*
D15*
X197702500Y-136535000D03*
X187542500Y-136535000D03*
D14*
X192622500Y-136535000D03*
D16*
X188812500Y-133995000D03*
X195162500Y-131455000D03*
D15*
X216752500Y-136535000D03*
X206592500Y-136535000D03*
D14*
X211672500Y-136535000D03*
D16*
X207862500Y-133995000D03*
X214212500Y-131455000D03*
D15*
X235802500Y-136535000D03*
X225642500Y-136535000D03*
D14*
X230722500Y-136535000D03*
D16*
X226912500Y-133995000D03*
X233262500Y-131455000D03*
D15*
X254852500Y-136535000D03*
X244692500Y-136535000D03*
D14*
X249772500Y-136535000D03*
D16*
X245962500Y-133995000D03*
X252312500Y-131455000D03*
D15*
X273902500Y-136535000D03*
X263742500Y-136535000D03*
D14*
X268822500Y-136535000D03*
D16*
X265012500Y-133995000D03*
X271362500Y-131455000D03*
D15*
X335815000Y-136535000D03*
X325655000Y-136535000D03*
D14*
X330735000Y-136535000D03*
D16*
X326925000Y-133995000D03*
X333275000Y-131455000D03*
D15*
X92927500Y-155585000D03*
X82767500Y-155585000D03*
D14*
X87847500Y-155585000D03*
D16*
X84037500Y-153045000D03*
X90387500Y-150505000D03*
D15*
X131027500Y-155585000D03*
X120867500Y-155585000D03*
D14*
X125947500Y-155585000D03*
D16*
X122137500Y-153045000D03*
X128487500Y-150505000D03*
D15*
X150077500Y-155585000D03*
X139917500Y-155585000D03*
D14*
X144997500Y-155585000D03*
D16*
X141187500Y-153045000D03*
X147537500Y-150505000D03*
D15*
X207227500Y-155585000D03*
X197067500Y-155585000D03*
D14*
X202147500Y-155585000D03*
D16*
X198337500Y-153045000D03*
X204687500Y-150505000D03*
D15*
X226277500Y-155585000D03*
X216117500Y-155585000D03*
D14*
X221197500Y-155585000D03*
D16*
X217387500Y-153045000D03*
X223737500Y-150505000D03*
D15*
X245327500Y-155585000D03*
X235167500Y-155585000D03*
D14*
X240247500Y-155585000D03*
D16*
X236437500Y-153045000D03*
X242787500Y-150505000D03*
D15*
X264377500Y-155585000D03*
X254217500Y-155585000D03*
D14*
X259297500Y-155585000D03*
D16*
X255487500Y-153045000D03*
X261837500Y-150505000D03*
D15*
X335815000Y-155585000D03*
X325655000Y-155585000D03*
D14*
X330735000Y-155585000D03*
D16*
X326925000Y-153045000D03*
X333275000Y-150505000D03*
D15*
X73877500Y-174635000D03*
X63717500Y-174635000D03*
D14*
X68797500Y-174635000D03*
D16*
X64987500Y-172095000D03*
X71337500Y-169555000D03*
D15*
X297715000Y-174635000D03*
X287555000Y-174635000D03*
D14*
X292635000Y-174635000D03*
D16*
X288825000Y-172095000D03*
X295175000Y-169555000D03*
D15*
X316765000Y-174635000D03*
X306605000Y-174635000D03*
D14*
X311685000Y-174635000D03*
D16*
X307875000Y-172095000D03*
X314225000Y-169555000D03*
D17*
X38000000Y-55000000D03*
X138000000Y-55000000D03*
X238000000Y-55000000D03*
X338000000Y-55000000D03*
D16*
X171350000Y-169555000D03*
X165000000Y-172095000D03*
D14*
X168810000Y-174635000D03*
D15*
X163730000Y-174635000D03*
X173890000Y-174635000D03*
D14*
X225960000Y-182875000D03*
X111660000Y-182875000D03*
D13*
X111660000Y-167635000D03*
X225960000Y-167635000D03*
D17*
X38000000Y-190000000D03*
X138000000Y-190000000D03*
X238000000Y-190000000D03*
X338000000Y-190000000D03*
M02*
