M48
; DRILL file {KiCad (5.1.6)-1} date 03/28/21 22:48:11
; FORMAT={-:-/ absolute / inch / decimal}
; #@! TF.CreationDate,2021-03-28T22:48:11-04:00
; #@! TF.GenerationSoftware,Kicad,Pcbnew,(5.1.6)-1
FMAT,2
INCH
T1C0.0157
T2C0.0315
T3C0.0591
T4C0.0669
T5C0.1201
T6C0.1260
T7C0.1575
%
G90
G05
T1
X2.2331Y-2.4254
X3.7461Y-4.9879
X4.1231Y-2.5504
X4.3831Y-2.9404
X4.7831Y-4.9504
X5.2331Y-3.0754
X5.2331Y-4.0654
X5.2481Y-2.4254
X5.5831Y-2.4054
X5.6231Y-2.4069
X6.5831Y-2.5504
X6.6331Y-2.9754
X6.6331Y-4.0654
X6.6734Y-2.9407
X6.6734Y-3.5711
X7.1827Y-5.5657
X7.4118Y-3.5994
X7.4173Y-3.5236
X7.4581Y-2.9404
X7.4581Y-3.5211
X7.4892Y-6.6193
X7.5331Y-5.6254
X7.5331Y-7.0654
X7.6081Y-6.3154
X7.6081Y-7.0654
X7.7681Y-4.8754
X7.8669Y-6.3157
X7.8728Y-5.5657
X8.1457Y-3.4882
X8.4654Y-4.8157
X9.6969Y-3.937
X9.9319Y-4.0657
X9.9843Y-3.7441
X10.0079Y-2.9567
X10.1772Y-2.9567
X10.1831Y-6.3154
X10.1831Y-7.0654
X10.2874Y-3.7126
X10.2992Y-3.6142
X10.3386Y-3.3465
X10.3581Y-6.2754
X10.3581Y-7.0654
X10.4173Y-3.3071
X10.4724Y-3.8189
X10.6142Y-3.6644
X10.7165Y-3.5118
X10.9181Y-4.8154
X10.9181Y-6.3154
X11.1811Y-2.4094
X11.4173Y-3.0315
X11.4173Y-3.1102
X11.4567Y-3.0276
X11.4567Y-3.1496
X11.5481Y-4.0254
X11.5481Y-5.0004
X11.5581Y-5.7004
X11.5581Y-6.3154
X11.5591Y-2.4094
X12.1831Y-5.5204
X12.2831Y-4.8154
X12.6081Y-4.0654
X12.6081Y-6.2754
X12.7081Y-4.0254
X12.7081Y-4.8154
X12.9961Y-2.8789
X13.0433Y-2.8701
X13.0945Y-2.8701
X13.1339Y-3.248
X13.1417Y-2.6142
X13.1457Y-2.8701
X13.1929Y-2.6142
X13.1929Y-2.8701
X13.2441Y-2.6142
X13.2441Y-2.8701
X13.2953Y-2.6142
X13.2953Y-2.8701
X13.3465Y-2.6142
X13.3465Y-2.8701
X13.3858Y-2.4409
T2
X11.6063Y-2.4862
X11.6063Y-2.9862
X11.7063Y-2.4862
X11.7063Y-2.9862
X11.8063Y-2.4862
X11.8063Y-2.9862
X11.9063Y-2.4862
X11.9063Y-2.9862
X12.0063Y-2.4862
X12.0063Y-2.9862
X12.1063Y-2.4862
X12.1063Y-2.9862
X12.2063Y-2.4862
X12.2063Y-2.9862
X12.3063Y-2.4862
X12.3063Y-2.9862
X12.4063Y-2.4862
X12.4063Y-2.9862
X12.5063Y-2.4862
X12.5063Y-2.9862
X12.6063Y-2.4862
X12.6063Y-2.9862
T3
X5.7461Y-4.5254
X5.9961Y-4.4254
X4.8086Y-6.0254
X5.0586Y-5.9254
X7.9961Y-4.5254
X8.2461Y-4.4254
X12.8711Y-3.7754
X13.1211Y-3.6754
X7.6211Y-3.7754
X7.8711Y-3.6754
X4.4336Y-5.2754
X4.6836Y-5.1754
X11.0898Y-6.0254
X11.3398Y-5.9254
X6.1211Y-2.6504
X6.3711Y-2.5504
X3.4023Y-6.7754
X3.6523Y-6.6754
X2.7461Y-2.6504
X2.9961Y-2.5504
X8.1836Y-5.2754
X8.4336Y-5.1754
X10.5273Y-6.7754
X10.7773Y-6.6754
X6.4961Y-6.7754
X6.7461Y-6.6754
X9.4961Y-2.6504
X9.7461Y-2.5504
X11.6523Y-5.2754
X11.9023Y-5.1754
X3.4961Y-2.6504
X3.7461Y-2.5504
X9.5898Y-6.7754
X9.8398Y-6.6754
X3.3086Y-6.0254
X3.5586Y-5.9254
X4.9961Y-4.5254
X5.2461Y-4.4254
X7.2461Y-4.5254
X7.4961Y-4.4254
X7.8086Y-6.0254
X8.0586Y-5.9254
X8.3711Y-3.7754
X8.6211Y-3.6754
X6.1211Y-3.7754
X6.3711Y-3.6754
X8.3711Y-2.6504
X8.6211Y-2.5504
X1.6211Y-2.6504
X1.8711Y-2.5504
X10.9961Y-4.5254
X11.2461Y-4.4254
X2.3711Y-3.7754
X2.6211Y-3.6754
X2.0898Y-6.0254
X2.3398Y-5.9254
X3.6836Y-5.2754
X3.9336Y-5.1754
X9.6836Y-5.2754
X9.9336Y-5.1754
X1.7148Y-6.7754
X1.9648Y-6.6754
X1.9023Y-5.2754
X2.1523Y-5.1754
X12.8711Y-6.0254
X13.1211Y-5.9254
X10.0586Y-6.0254
X10.3086Y-5.9254
X5.5586Y-6.0254
X5.8086Y-5.9254
X6.8711Y-3.7754
X7.1211Y-3.6754
X10.2461Y-2.6504
X10.4961Y-2.5504
X7.0586Y-6.0254
X7.3086Y-5.9254
X12.8711Y-5.2754
X13.1211Y-5.1754
X1.8086Y-4.5254
X2.0586Y-4.4254
X10.4336Y-5.2754
X10.6836Y-5.1754
X4.2461Y-2.6504
X4.4961Y-2.5504
X12.1211Y-6.0254
X12.3711Y-5.9254
X3.4961Y-4.5254
X3.7461Y-4.4254
X9.1211Y-3.7754
X9.3711Y-3.6754
X8.7461Y-4.5254
X8.9961Y-4.4254
X4.6211Y-3.7754
X4.8711Y-3.6754
X2.5586Y-6.7754
X2.8086Y-6.6754
X4.0586Y-6.0254
X4.3086Y-5.9254
X1.6211Y-3.7754
X1.8711Y-3.6754
X11.9336Y-4.5254
X12.1836Y-4.4254
X6.3086Y-6.0254
X6.5586Y-5.9254
X6.6836Y-5.2754
X6.9336Y-5.1754
X2.7461Y-4.5254
X2.9961Y-4.4254
X6.4961Y-4.5254
X6.7461Y-4.4254
X5.1836Y-5.2754
X5.4336Y-5.1754
X3.8711Y-3.7754
X4.1211Y-3.6754
X7.4336Y-5.2754
X7.6836Y-5.1754
X10.2461Y-4.5254
X10.4961Y-4.4254
X12.8711Y-6.7754
X13.1211Y-6.6754
X2.9336Y-5.2754
X3.1836Y-5.1754
X5.9336Y-5.2754
X6.1836Y-5.1754
X11.3711Y-6.7754
X11.6211Y-6.6754
X4.2461Y-4.5254
X4.4961Y-4.4254
X9.3086Y-6.0254
X9.5586Y-5.9254
X8.5586Y-6.0254
X8.8086Y-5.9254
X5.3711Y-3.7754
X5.6211Y-3.6754
X10.6211Y-3.7754
X10.8711Y-3.6754
X9.8711Y-3.7754
X10.1211Y-3.6754
X12.8711Y-4.5254
X13.1211Y-4.4254
X3.1211Y-3.7754
X3.3711Y-3.6754
X11.7461Y-3.7754
X11.9961Y-3.6754
X6.8711Y-2.6504
X7.1211Y-2.5504
X9.4961Y-4.5254
X9.7461Y-4.4254
X7.6211Y-2.6504
X7.8711Y-2.5504
X4.9961Y-2.6504
X5.2461Y-2.5504
X8.9336Y-5.2754
X9.1836Y-5.1754
X12.1211Y-6.7754
X12.3711Y-6.6754
T4
X1.6648Y-6.8754
X2.0648Y-6.8754
X1.8523Y-5.3754
X2.2523Y-5.3754
X12.8211Y-6.1254
X13.2211Y-6.1254
X10.0086Y-6.1254
X10.4086Y-6.1254
X5.5086Y-6.1254
X5.9086Y-6.1254
X6.8211Y-3.8754
X7.2211Y-3.8754
X10.1961Y-2.7504
X10.5961Y-2.7504
X7.0086Y-6.1254
X7.4086Y-6.1254
X12.8211Y-5.3754
X13.2211Y-5.3754
X1.7586Y-4.6254
X2.1586Y-4.6254
X10.3836Y-5.3754
X10.7836Y-5.3754
X4.1961Y-2.7504
X4.5961Y-2.7504
X12.0711Y-6.1254
X12.4711Y-6.1254
X3.4461Y-4.6254
X3.8461Y-4.6254
X9.0711Y-3.8754
X9.4711Y-3.8754
X8.6961Y-4.6254
X9.0961Y-4.6254
X4.5711Y-3.8754
X4.9711Y-3.8754
X2.5086Y-6.8754
X2.9086Y-6.8754
X4.0086Y-6.1254
X4.4086Y-6.1254
X1.5711Y-3.8754
X1.9711Y-3.8754
X11.8836Y-4.6254
X12.2836Y-4.6254
X6.2586Y-6.1254
X6.6586Y-6.1254
X6.6336Y-5.3754
X7.0336Y-5.3754
X2.6961Y-4.6254
X3.0961Y-4.6254
X6.4461Y-4.6254
X6.8461Y-4.6254
X5.1336Y-5.3754
X5.5336Y-5.3754
X3.8211Y-3.8754
X4.2211Y-3.8754
X7.3836Y-5.3754
X7.7836Y-5.3754
X10.1961Y-4.6254
X10.5961Y-4.6254
X12.8211Y-6.8754
X13.2211Y-6.8754
X2.8836Y-5.3754
X3.2836Y-5.3754
X5.8836Y-5.3754
X6.2836Y-5.3754
X11.3211Y-6.8754
X11.7211Y-6.8754
X4.1961Y-4.6254
X4.5961Y-4.6254
X9.2586Y-6.1254
X9.6586Y-6.1254
X8.5086Y-6.1254
X8.9086Y-6.1254
X5.3211Y-3.8754
X5.7211Y-3.8754
X10.5711Y-3.8754
X10.9711Y-3.8754
X9.8211Y-3.8754
X10.2211Y-3.8754
X12.8211Y-4.6254
X13.2211Y-4.6254
X3.0711Y-3.8754
X3.4711Y-3.8754
X11.6961Y-3.8754
X12.0961Y-3.8754
X6.8211Y-2.7504
X7.2211Y-2.7504
X9.4461Y-4.6254
X9.8461Y-4.6254
X7.5711Y-2.7504
X7.9711Y-2.7504
X4.9461Y-2.7504
X5.3461Y-2.7504
X8.8836Y-5.3754
X9.2836Y-5.3754
X12.0711Y-6.8754
X12.4711Y-6.8754
X5.6961Y-4.6254
X6.0961Y-4.6254
X4.7586Y-6.1254
X5.1586Y-6.1254
X7.9461Y-4.6254
X8.3461Y-4.6254
X12.8211Y-3.8754
X13.2211Y-3.8754
X7.5711Y-3.8754
X7.9711Y-3.8754
X4.3836Y-5.3754
X4.7836Y-5.3754
X11.0398Y-6.1254
X11.4398Y-6.1254
X6.0711Y-2.7504
X6.4711Y-2.7504
X3.3523Y-6.8754
X3.7523Y-6.8754
X2.6961Y-2.7504
X3.0961Y-2.7504
X8.1336Y-5.3754
X8.5336Y-5.3754
X10.4773Y-6.8754
X10.8773Y-6.8754
X6.4461Y-6.8754
X6.8461Y-6.8754
X9.4461Y-2.7504
X9.8461Y-2.7504
X11.6023Y-5.3754
X12.0023Y-5.3754
X3.4461Y-2.7504
X3.8461Y-2.7504
X9.5398Y-6.8754
X9.9398Y-6.8754
X3.2586Y-6.1254
X3.6586Y-6.1254
X4.9461Y-4.6254
X5.3461Y-4.6254
X7.1961Y-4.6254
X7.5961Y-4.6254
X7.7586Y-6.1254
X8.1586Y-6.1254
X8.3211Y-3.8754
X8.7211Y-3.8754
X6.0711Y-3.8754
X6.4711Y-3.8754
X8.3211Y-2.7504
X8.7211Y-2.7504
X1.5711Y-2.7504
X1.9711Y-2.7504
X10.9461Y-4.6254
X11.3461Y-4.6254
X2.3211Y-3.8754
X2.7211Y-3.8754
X2.0398Y-6.1254
X2.4398Y-6.1254
X3.6336Y-5.3754
X4.0336Y-5.3754
X9.6336Y-5.3754
X10.0336Y-5.3754
T5
X11.4276Y-3.5998
X12.3646Y-3.5998
X4.3961Y-6.5998
X8.8961Y-6.5998
X11.3338Y-5.0998
X12.2708Y-5.0998
X1.7713Y-5.8498
X2.7083Y-5.8498
T6
X9.3701Y-2.1654
X1.4961Y-7.4803
X9.3701Y-7.4803
X13.3071Y-7.4803
X13.3071Y-2.1654
X1.4961Y-2.1654
X5.4331Y-7.4803
X5.4331Y-2.1654
T7
X9.2711Y-3.8754
X8.8961Y-4.6254
X4.7711Y-3.8754
X2.7086Y-6.8754
X4.2086Y-6.1254
X1.7711Y-3.8754
X12.0836Y-4.6254
X6.4586Y-6.1254
X6.8336Y-5.3754
X2.8961Y-4.6254
X6.6461Y-4.6254
X5.3336Y-5.3754
X4.0211Y-3.8754
X7.5836Y-5.3754
X10.3961Y-4.6254
X13.0211Y-6.8754
X3.0836Y-5.3754
X6.0836Y-5.3754
X11.5211Y-6.8754
X4.3961Y-4.6254
X9.4586Y-6.1254
X8.7086Y-6.1254
X5.5211Y-3.8754
X10.7711Y-3.8754
X10.0211Y-3.8754
X13.0211Y-4.6254
X3.2711Y-3.8754
X11.4276Y-4.1998
X11.8961Y-3.8754
X12.3646Y-4.1998
X7.0211Y-2.7504
X9.6461Y-4.6254
X7.7711Y-2.7504
X5.1461Y-2.7504
X9.0836Y-5.3754
X12.2711Y-6.8754
X5.8961Y-4.6254
X4.9586Y-6.1254
X8.1461Y-4.6254
X13.0211Y-3.8754
X7.7711Y-3.8754
X4.5836Y-5.3754
X11.2398Y-6.1254
X6.2711Y-2.7504
X3.5523Y-6.8754
X2.8961Y-2.7504
X8.3336Y-5.3754
X10.6773Y-6.8754
X4.3961Y-7.1998
X6.6461Y-6.8754
X8.8961Y-7.1998
X9.6461Y-2.7504
X11.3338Y-5.6998
X11.8023Y-5.3754
X12.2708Y-5.6998
X3.6461Y-2.7504
X9.7398Y-6.8754
X3.4586Y-6.1254
X5.1461Y-4.6254
X7.3961Y-4.6254
X7.9586Y-6.1254
X8.5211Y-3.8754
X6.2711Y-3.8754
X8.5211Y-2.7504
X1.7711Y-2.7504
X11.1461Y-4.6254
X2.5211Y-3.8754
X1.7713Y-6.4498
X2.2398Y-6.1254
X2.7083Y-6.4498
X3.8336Y-5.3754
X9.8336Y-5.3754
X1.8648Y-6.8754
X2.0523Y-5.3754
X13.0211Y-6.1254
X10.2086Y-6.1254
X5.7086Y-6.1254
X7.0211Y-3.8754
X10.3961Y-2.7504
X7.2086Y-6.1254
X13.0211Y-5.3754
X1.9586Y-4.6254
X10.5836Y-5.3754
X4.3961Y-2.7504
X12.2711Y-6.1254
X3.6461Y-4.6254
T0
M30
